<svg xmlns="http://www.w3.org/2000/svg" xmlns:xlink="http://www.w3.org/1999/xlink" viewBox="0 0 178.1 305.81"><defs><style>.cls-1,.cls-12,.cls-4{fill:#ff5050;}.cls-1,.cls-11,.cls-12{stroke-miterlimit:10;stroke-width:0.67px;}.cls-1{stroke:url(#linear-gradient);}.cls-2{fill:#28bfbb;}.cls-3{fill:#0e666c;}.cls-5{fill:#f36f63;}.cls-6{fill:#d6d922;}.cls-7{fill:#0d86a3;}.cls-8{fill:#fff;}.cls-9{fill:#070707;}.cls-10{fill:#3a3a3a;}.cls-11{fill:none;stroke:#3a3a3a;}.cls-12{stroke:url(#linear-gradient-2);}</style><linearGradient id="linear-gradient" x1="-1009.32" y1="92.06" x2="-1089.79" y2="92.06" gradientTransform="matrix(-1, 0, 0, 1, -911.68, 0)" gradientUnits="userSpaceOnUse"><stop offset="0" stop-color="#ff5050"/><stop offset="1" stop-color="#fcee21"/></linearGradient><linearGradient id="linear-gradient-2" x1="-911.68" y1="199.45" x2="-1037.4" y2="199.45" xlink:href="#linear-gradient"/></defs><title>Asset 5</title><g id="Layer_2" data-name="Layer 2"><g id="bird"><g id="wing_left"><path id="wing_left-2" data-name="wing_left" class="cls-1" d="M104.56,101.06C99.3,72.9,149.88,55.6,160.53,27S167.18.36,167.18.36c18.76,12.9-2.76,57.81-8.15,68.33a.33.33,0,0,0,.54.36C169,58.55,170.85,52.12,176.83,38c5.2,11.77-12.56,38.39-19,47.47a.33.33,0,0,0,.51.42c17.73-17.73,16.52-28.6,16.52-21.27-.33,17-12.64,27.28-12.64,27.28,15.31,4.66,1.33,16,1.33,16,11.31,19.3-4,27.29-4,27.29,11.31,10.64-6,14.64-6,14.64,6,26-15.31,21.29-15.31,21.29-3.32,18.63-22,11.31-22,11.31C83.67,154.41,104.56,101.06,104.56,101.06Z"/><path id="wing_cap_left" class="cls-2" d="M118.27,71.9s10-5.76,12.64-2.66c3.56,4.21-8,16.63-8,16.63s12.33,1.74,12.64,6c.28,3.79-10,7.32-10,7.32s7.2,5.52,6.65,8.65c-.43,2.5-6.65,4-6.65,4s2.5,8.24.67,11.31c-2.3,3.85-11.94,1.5-11.94,1.5s.78,7.3-1.37,8.48c-4,2.19-14.1-8.48-14.1-8.48,3.45-20.8,6.18-24.13,6.18-24.13C100.3,85.21,118.27,71.9,118.27,71.9Z"/></g><g id="body"><path id="body_main" class="cls-3" d="M27.69,247.06c18.7,15.9,88.3,12.05,101.94-8.38,8.24-12.33-3.83-44.5-5.11-59.34-1.85-21.51-25.27-37.46-46.56-35.63l-20.18,1.74a38.9,38.9,0,0,0-35.2,42.27C23.86,202.56,16.41,237.47,27.69,247.06Z"/><path id="body_ruffle1" class="cls-2" d="M163.06,305.81c-6.22-13-17.17-38.26-22.85-41.2-49.34,50.7-126.06,14.65-126.06,14.65L1.43,305.81Z"/><path id="body_ruffle2" class="cls-4" d="M18.86,259.41,3.26,291.25c-1.7,1.75.54,4.41,3,3.49l7.8-3c2.46-.93,5.08,1.23,4.21,3.48h0c-.75,1.93,1.68,3.71,3.66,2.67l9.25-4.85a11.74,11.74,0,0,1,13.92,2.48l3.65,4.13a2.73,2.73,0,0,0,3.12.64l13-5.89a11.83,11.83,0,0,1,12,1.5l11,8.78a2.7,2.7,0,0,0,3.33,0l10.88-8.85a11.68,11.68,0,0,1,13.58-.42l10.58,7.1a2.65,2.65,0,0,0,3.62-.6l5.38-8.28c2.69-4.15,8.54-5.71,13.55-3.63l8.46,3.54c2.36,1,4.54-1.42,3-3.28-3.32-3.93-18.15-40.29-24.89-43.69C89.91,292.09,18.86,259.41,18.86,259.41Z"/><path id="body_ruffle1-2" data-name="body_ruffle1" class="cls-2" d="M23.44,239.93,8.83,269.75c-1.59,1.65.5,4.13,2.76,3.27l7.31-2.78c2.3-.87,4.76,1.15,3.94,3.26h0c-.7,1.81,1.58,3.48,3.43,2.5l8.67-4.54a11,11,0,0,1,13,2.32l3.42,3.87a2.57,2.57,0,0,0,2.92.6l12.19-5.52a11.11,11.11,0,0,1,11.28,1.4l10.34,8.23a2.54,2.54,0,0,0,3.12,0l10.19-8.29a10.93,10.93,0,0,1,12.72-.39l9.91,6.65a2.47,2.47,0,0,0,3.39-.57l5-7.76c2.51-3.88,8-5.34,12.69-3.39l7.93,3.31c2.21.92,4.24-1.33,2.78-3.07-3.11-3.67-17-37.73-23.31-40.92C90,270.54,23.44,239.93,23.44,239.93Z"/></g><g id="head"><path id="head_ruffle" class="cls-2" d="M38.61,152l-14,13.48a1.49,1.49,0,0,0,1.67,2.37l4.56-2.17A1.8,1.8,0,0,1,33.24,168h0a1.45,1.45,0,0,0,2.1,1.79l5.42-3.49a5.92,5.92,0,0,1,8.05,1.5l2.06,2.8a1.38,1.38,0,0,0,1.8.4l7.62-4.27a5.89,5.89,0,0,1,7,.85l6.29,5.91a1.38,1.38,0,0,0,1.93,0l6.43-6.29a5.91,5.91,0,0,1,7.87-.49l6,4.74a1.41,1.41,0,0,0,2.11-.47l3.22-5.81a6.06,6.06,0,0,1,7.91-2.71l4.86,2.32a1.52,1.52,0,0,0,1.77-2.32c-1.88-2.66-9.9-6.3-11.65-10.87Z"/><path id="head_main" class="cls-4" d="M42.92,145.52l-8.85,10.3a1.17,1.17,0,0,0,1.36,1.83l3.7-1.64a1.45,1.45,0,0,1,2,1.81h0a1.16,1.16,0,0,0,1.7,1.39l4.39-2.66a5,5,0,0,1,6.54,1.2l1.69,2.16a1.16,1.16,0,0,0,1.46.32L63,157a5,5,0,0,1,5.66.69l5.14,4.57a1.17,1.17,0,0,0,1.57,0l5.18-4.8A5,5,0,0,1,87,157.1l4.94,3.68a1.16,1.16,0,0,0,1.71-.35L96.21,156a5,5,0,0,1,6.41-2l4,1.8A1.17,1.17,0,0,0,108,154c-5.44-7.28-13.82-24.11-.24-48C80,60,40.34,88.76,42.63,106.94a13.44,13.44,0,0,1-2.77,10.41c-3.26,3.85-9.4,6.36-20.71-.82a.61.61,0,0,0-.85.82c6,10.46,17.49,12.11,24.13,12.12a.58.58,0,0,1,.12,1.15,26.77,26.77,0,0,1-17.15-1.34.61.61,0,0,0-.68,1c6.89,6.77,13.63,7.61,17.13,7.48a.58.58,0,0,1,.27,1.1c-4.36,2.23-9.52,1.87-12.13,1.49a.6.6,0,0,0-.51,1c4.45,4.43,10,3.9,12.86,3.21A.58.58,0,0,1,42.92,145.52Z"/><path id="mouth" class="cls-5" d="M103.3,120.14c-2.66,6,6.38,8.82,6.38,8.82a16.3,16.3,0,0,1-16.36-6.82h0C92.65,119.48,103.3,120.14,103.3,120.14Z"/><path id="face" class="cls-6" d="M100.36,98.15c29.8,14.15,27.14,29,24.94,34.33a1.19,1.19,0,0,1-2.12.17c-9.53-15.8-15.42-11.79-15.42-11.79A19.42,19.42,0,0,1,94,120.69c1.84,7.84,11,8.26,15.16,8a.6.6,0,0,1,.39,1.08c-14.24,10.34-31.69,1.05-39.84-4.51A23.52,23.52,0,0,1,61,114.54c-7.54-19.32,21.78-23.26,30.81-14a7.49,7.49,0,0,0,3,2C100.48,104.32,100.36,98.15,100.36,98.15Z"/><ellipse id="cere" class="cls-7" cx="100.36" cy="101.06" rx="2.53" ry="3.61" transform="translate(-40.95 83.29) rotate(-38.03)"/><ellipse id="nostril" cx="114.32" cy="115.96" rx="0.67" ry="1" transform="translate(-14.65 215.36) rotate(-83.03)"/><g id="eye"><ellipse id="eye_main" cx="78.32" cy="111.56" rx="5.99" ry="7.32" transform="matrix(0.12, -0.99, 0.99, 0.12, -41.91, 175.76)"/><g id="eye_highlights"><circle id="eye_highlight2" class="cls-8" cx="75.18" cy="109.83" r="2"/><circle id="eye_highlight1" class="cls-8" cx="81.09" cy="113.57" r="1"/></g></g></g><g id="microphone"><path id="microphone_head" class="cls-9" d="M108.47,157.69h0c3-2.95,4.76-6,1.75-9l-1.75-1.7a7.87,7.87,0,0,0-10.93,0h0a7.4,7.4,0,0,0,0,10.66l1.75,1.7C102.31,162.33,105.45,160.63,108.47,157.69Z"/><path id="microphone_body" class="cls-9" d="M136.88,185.39h0c1.56-1.52,2.49-3.11,1-4.7L112.54,154c-2.13-2.27-3.15.21-5.38,2.39h0c-2.24,2.17-4.78,3.17-2.45,5.25l27.34,24.71C133.68,187.82,135.32,186.91,136.88,185.39Z"/><path id="microphone_head_line" class="cls-10" d="M98.94,159c-1.32-1.27.2-4.57,3.22-7.51h0c3-2.94,6.39-4.42,7.7-3.14l-.9-.88c-1.31-1.28-4.69.2-7.7,3.14h0c-3,2.94-4.54,6.24-3.23,7.52Z"/><path id="microphone_body_line" class="cls-10" d="M104.75,161.73c-1.06-1,.31-3.13,2.48-5.25h0c2.17-2.12,4.33-3.45,5.39-2.42l-.73-.71c-1.06-1-3.22.3-5.39,2.42h0C104.33,157.89,103,160,104,161Z"/><path id="microphone_body_line2" class="cls-11" d="M108.51,164.89c-.94-.92-.05-3.29,2-5.29h0c2-2,4.49-2.88,5.43-2"/></g><g id="wing_right"><path id="wing_main_right" class="cls-12" d="M120.06,183.24c3.7,6.49-13.83,17.74-18,20.06a.53.53,0,0,0,0,1c3.74,2.45,14.55-1.61,14.89-1.94,3,6.32-15.24,20.2-19.76,24.47a1.15,1.15,0,0,0,0,1.65c1.3,1.34,3.47,4.83,1.81,6.48-2,2-7.18,2.27-11.44,2.53a1,1,0,0,0-.92,1c0,4.05-2.61,8.81-4.53,11.06a6.08,6.08,0,0,1-4.4,1.92c-5.66.48-15.18-2.3-17.25-2.45a1.11,1.11,0,0,0-1.07.57c-1,1.84-4.18,7.11-6.3,7.35-2.75.33-8.28-5.39-10.07-7.34a1.13,1.13,0,0,0-1.35-.25c-2.32,1.15-9.26,4.42-11.88,3.6-3.76-1.18-9.32-11-10.89-13.85a1.13,1.13,0,0,0-1.28-.56c-1.91.46-6.41,1.43-7.79.44s-1.87-6.14-2-7.6a1.2,1.2,0,0,0-.3-.69c-22.71-24.57,15.58-54.93,15.58-54.93,2.66,8.65,69.87,35.93,98.82-33.61,9.37,4.48-17.63,37.6-17.63,37.6s9-5.65,20-18.63c5.39,4.66-9.9,20.08-17.41,27.09a.48.48,0,0,0,.58.76S113.28,188.69,120.06,183.24Z"/><path id="wing_cap_right" class="cls-2" d="M10.32,189c-2.52,10.72,6.14,7.39,6.14,7.39,2,14,14.64,4,14.64,4,9,9,14.64-.66,14.64-.66,14,5.32,7.32-5.33,7.32-5.33,15.66,2.51,15.54-6.39,6.73-6.42a49.89,49.89,0,0,1-6.92-.33C28.1,184,23.11,175,23.11,175,13.79,179,10.32,189,10.32,189Z"/></g></g></g></svg>