<svg xmlns="http://www.w3.org/2000/svg" xmlns:xlink="http://www.w3.org/1999/xlink" viewBox="0 0 229.59 265.34">
  <defs>
    <style>
      .cls-4,.cls-7{fill:none;stroke-miterlimit:10}.cls-4{stroke:#ffca97}.cls-7{stroke:#e6394e;stroke-width:4px}.cls-8{fill:#904757}.cls-11{fill:#b0a895}.cls-18{fill:#efeff7}.cls-19{fill:#000008}.cls-20{fill:#1d2b41}

      .a_head {
                <!-- animation: [animation-name] [animation-duration] [animation-timing-function] [animation-delay] [animation-iteration-count] [animation-direction]*/ -->
        animation: a-head 2s ease-in-out infinite;
        transform-origin: 50% 50%;
      }

      @keyframes a-head {
        0% {
          transform: translate(0px, 0px) rotate(0deg);
        }
        30% {
          transform: translate(0px, 3px) rotate(5deg);
        }
        50% {
          transform: translate(0px, 0px) rotate(0deg);
        }
        80% {
          transform: translate(0px, 3px) rotate(-5deg);
        }
        100% {
          transform: translate(0px, 0px) rotate(0deg);
        }
      }

    .a_hands {
      animation: a-hands 1s ease-in-out infinite;
    }

    @keyframes a-hands {
        0% {
          transform: translate(0px, 0px) rotate(0deg);
        }
        30% {
          transform: translate(0px, 1px) rotate(.5deg);
        }
        50% {
          transform: translate(0px, 0px) rotate(0deg);
        }
        80% {
          transform: translate(0px, 1px) rotate(-.5deg);
        }
        100% {
          transform: translate(0px, 0px) rotate(0deg);
        }
      }

    .a_eyebrows {
        animation: a-eyebrows 2s ease-in-out infinite;
        transform-origin: 50% 50%;
    }

     @keyframes a-eyebrows {
        0% {
          transform: translate(0px, 0px);
        }
        30% {
          transform: translate(0px, 3px);
        }
        50% {
          transform: translate(0px, 0px);
        }
        80% {
          transform: translate(0px, 3px);
        }
        100% {
          transform: translate(0px, 0px);
        }
      }

    </style>
    <linearGradient id="linear-gradient" x1="114.39" y1="265.34" x2="114.39" y2="97.65" gradientUnits="userSpaceOnUse">
      <stop offset="0" stop-color="#1d2b41"/>
      <stop offset=".51" stop-color="#111e4c"/>
      <stop offset="1" stop-color="#0b1852"/>
    </linearGradient>
    <linearGradient id="linear-gradient-2" x1="79.7" y1="99.4" x2="147.89" y2="99.4" gradientUnits="userSpaceOnUse">
      <stop offset="0" stop-color="#564d60"/>
      <stop offset=".31" stop-color="#484559"/>
      <stop offset=".89" stop-color="#253045"/>
      <stop offset="1" stop-color="#1d2b41"/>
    </linearGradient>
    <radialGradient id="radial-gradient" cx="114.89" cy="146.06" r="21.12" gradientTransform="matrix(1 -.00332 .00182 .55 -.26 66.22)" gradientUnits="userSpaceOnUse">
      <stop offset="0" stop-color="#ffeddd"/>
      <stop offset=".5" stop-color="#ffdab8"/>
      <stop offset="1" stop-color="#ffca97"/>
    </radialGradient>
    <radialGradient id="radial-gradient-2" cx="120.38" cy="209.11" r="38.01" gradientTransform="matrix(1 0 0 .4 0 125.47)" gradientUnits="userSpaceOnUse">
      <stop offset="0" stop-color="#ffca97"/>
      <stop offset=".31" stop-color="#f9c393"/>
      <stop offset=".76" stop-color="#e7ae89"/>
      <stop offset="1" stop-color="#dca183"/>
    </radialGradient>
    <radialGradient id="radial-gradient-3" cx="120.38" cy="235.73" r="66.78" gradientTransform="matrix(1 0 0 .55 0 105.38)" gradientUnits="userSpaceOnUse">
      <stop offset="0" stop-color="#333e6e"/>
      <stop offset=".48" stop-color="#0b1852"/>
      <stop offset="1" stop-color="#08123d"/>
    </radialGradient>
    <linearGradient id="linear-gradient-3" x1="146.95" y1="175.52" x2="228.16" y2="175.52" gradientTransform="rotate(-156.47 187.55 175.525)" xlink:href="#linear-gradient-2"/>
    <linearGradient id="linear-gradient-4" x1="163.14" y1="153" x2="212.91" y2="239.2" gradientUnits="userSpaceOnUse">
      <stop offset=".41" stop-color="#1d2b41"/>
      <stop offset=".71" stop-color="#1b2843"/>
      <stop offset=".9" stop-color="#12204b"/>
      <stop offset="1" stop-color="#0b1852"/>
    </linearGradient>
    <radialGradient id="radial-gradient-4" cx="165.9" cy="172.26" fx="152.115" fy="155.24" r="141.35" gradientTransform="matrix(1 0 0 1.07 0 -12.1)" gradientUnits="userSpaceOnUse">
      <stop offset="0" stop-color="#ffca97"/>
      <stop offset=".04" stop-color="#ebb38c"/>
      <stop offset=".11" stop-color="#cc8e7a"/>
      <stop offset=".17" stop-color="#b6746d"/>
      <stop offset=".23" stop-color="#a86465"/>
      <stop offset=".28" stop-color="#a35e62"/>
      <stop offset=".29" stop-color="#a25c61"/>
      <stop offset=".41" stop-color="#97505b"/>
      <stop offset=".58" stop-color="#924958"/>
      <stop offset="1" stop-color="#904757"/>
    </radialGradient>
    <linearGradient id="linear-gradient-5" x1="58.53" y1="13.52" x2="58.53" y2="117.82" gradientUnits="userSpaceOnUse">
      <stop offset="0" stop-color="#564d60"/>
      <stop offset=".01" stop-color="#51495c"/>
      <stop offset=".05" stop-color="#3a364c"/>
      <stop offset=".09" stop-color="#2a2841"/>
      <stop offset=".13" stop-color="#21203a"/>
      <stop offset=".2" stop-color="#1e1e38"/>
      <stop offset=".64" stop-color="#202039"/>
      <stop offset=".8" stop-color="#27253e"/>
      <stop offset=".91" stop-color="#322f46"/>
      <stop offset="1" stop-color="#433d52"/>
    </linearGradient>
    <linearGradient id="linear-gradient-6" x1="170.28" y1="18.64" x2="170.28" y2="131.55" xlink:href="#linear-gradient-5"/>
    <linearGradient id="linear-gradient-7" x1="112.78" x2="112.78" y2="106.9" gradientUnits="userSpaceOnUse">
      <stop offset="0" stop-color="#904757"/>
      <stop offset=".47" stop-color="#8e4656"/>
      <stop offset=".64" stop-color="#874352"/>
      <stop offset=".76" stop-color="#7c3d4b"/>
      <stop offset=".86" stop-color="#6b3541"/>
      <stop offset=".94" stop-color="#552a34"/>
      <stop offset="1" stop-color="#402027"/>
    </linearGradient>
    <linearGradient id="linear-gradient-8" x1="122.72" y1="70.93" x2="162.85" y2="94.1" gradientUnits="userSpaceOnUse">
      <stop offset="0" stop-color="#ff5058"/>
      <stop offset=".35" stop-color="#fd5058"/>
      <stop offset=".53" stop-color="#f54f58"/>
      <stop offset=".66" stop-color="#e84e58"/>
      <stop offset=".77" stop-color="#d64d58"/>
      <stop offset=".87" stop-color="#be4b57"/>
      <stop offset=".96" stop-color="#a04857"/>
      <stop offset="1" stop-color="#904757"/>
    </linearGradient>
    <radialGradient id="radial-gradient-5" cx="114.14" cy="44.47" r="46.61" gradientTransform="matrix(1 0 0 2 0 -44.47)" gradientUnits="userSpaceOnUse">
      <stop offset="0" stop-color="#ffca97"/>
      <stop offset=".05" stop-color="#ffca97"/>
      <stop offset=".46" stop-color="#dda384"/>
      <stop offset=".8" stop-color="#c88978"/>
      <stop offset="1" stop-color="#c08073"/>
    </radialGradient>
    <radialGradient id="radial-gradient-6" cx="114.54" cy="58.73" fy="47.409" r="28.31" gradientTransform="matrix(1 0 0 .8 0 11.96)" gradientUnits="userSpaceOnUse">
      <stop offset="0" stop-color="#fff"/>
      <stop offset=".01" stop-color="#f6f6f6"/>
      <stop offset=".04" stop-color="#c8c8c8"/>
      <stop offset=".07" stop-color="#9d9d9d"/>
      <stop offset=".11" stop-color="#777"/>
      <stop offset=".15" stop-color="#575757"/>
      <stop offset=".2" stop-color="#3b3b3b"/>
      <stop offset=".25" stop-color="#252525"/>
      <stop offset=".31" stop-color="#141414"/>
      <stop offset=".38" stop-color="#090909"/>
      <stop offset=".49" stop-color="#020202"/>
      <stop offset=".78"/>
    </radialGradient>
    <linearGradient id="linear-gradient-9" x1="81.83" y1="175.52" x2=".61" y2="175.52" gradientTransform="rotate(-23.53 41.24 175.536)" xlink:href="#linear-gradient-2"/>
    <linearGradient id="linear-gradient-10" x1="67.99" y1="156.22" x2="19.36" y2="240.44" gradientUnits="userSpaceOnUse">
      <stop offset="0" stop-color="#1d2b41"/>
      <stop offset=".51" stop-color="#1b2843"/>
      <stop offset=".84" stop-color="#12204b"/>
      <stop offset="1" stop-color="#0b1852"/>
    </linearGradient>
    <radialGradient id="radial-gradient-7" cx="69.05" cy="178.79" fx="90.413" fy="165.923" r="111.8" gradientTransform="matrix(1 0 0 1.6 0 -106.82)" xlink:href="#radial-gradient-4"/>
  </defs>
  <g id="Layer_2" data-name="Layer 2">
    <g id="dog">
      <path id="body_main" d="M199.6 265.34H29.18c-10.1 0-13.29-9.09-13.29-20.3l5-62.22c0-47 26-57.1 76.73-85.17h33.54c45.45 22.16 76.73 38.13 76.73 85.17l5 62.22c0 11.21-3.19 20.3-13.29 20.3z" fill="url(#linear-gradient)"/>
      <path id="neck" d="M147.25 107.9c-11.9 12.37-55 8.46-66.72 0-4-2.94 8.24-12.35 3.33-17.37 10.62-9.52 50.62-10.47 60.06 0-5.24 5.02 6.79 13.76 3.33 17.37z" fill="url(#linear-gradient-2)"/>
      <g id="necklace">
        <path id="bone" d="M131.42 146.1h-.06v-.1h.27a4.06 4.06 0 1 0-4.06-4.06v.27H102.4v-.27a4.06 4.06 0 1 0-4.32 4v.09a4.08 4.08 0 1 0 3.91 2.79h25.57a4.06 4.06 0 1 0 3.85-2.79z" fill="url(#radial-gradient)"/>
        <g id="chain">
          <g id="chain_right">
            <rect class="cls-4" x="92.1" y="131.58" width="4.66" height="10.65" rx="1.84" transform="rotate(-45 94.429 136.906)"/>
            <rect class="cls-4" x="87.44" y="124.93" width="4.66" height="10.65" rx="1.84" transform="rotate(-39.55 89.769 130.256)"/>
            <rect class="cls-4" x="84.78" y="118.94" width="4.66" height="10.65" rx="1.84" transform="rotate(-39.55 87.104 124.257)"/>
            <rect class="cls-4" x="82.78" y="112.29" width="4.66" height="10.65" rx="1.84" transform="rotate(-39.55 85.114 117.605)"/>
            <rect class="cls-4" x="82.11" y="106.3" width="4.66" height="10.65" rx="1.84" transform="rotate(-39.55 84.44 111.615)"/>
            <rect class="cls-4" x="81.45" y="100.31" width="4.66" height="10.65" rx="1.84" transform="rotate(-39.55 83.782 105.63)"/>
            <rect class="cls-4" x="82.11" y="96.32" width="4.66" height="10.65" rx="1.84" transform="rotate(-39.55 84.445 101.644)"/>
          </g>
          <g id="chain_left">
            <rect class="cls-4" x="132.9" y="131.58" width="4.66" height="10.65" rx="1.84" transform="rotate(-135 135.234 136.907)"/>
            <rect class="cls-4" x="137.56" y="124.93" width="4.66" height="10.65" rx="1.84" transform="rotate(-140.45 139.892 130.251)"/>
            <rect class="cls-4" x="140.22" y="118.94" width="4.66" height="10.65" rx="1.84" transform="rotate(-140.45 142.555 124.263)"/>
            <rect class="cls-4" x="142.22" y="112.29" width="4.66" height="10.65" rx="1.84" transform="rotate(-140.45 144.55 117.611)"/>
            <rect class="cls-4" x="142.88" y="106.3" width="4.66" height="10.65" rx="1.84" transform="rotate(-140.4 145.409 111.35)"/>
            <rect class="cls-4" x="143.55" y="100.31" width="4.66" height="10.65" rx="1.84" transform="rotate(-140.45 145.879 105.632)"/>
            <rect class="cls-4" x="142.88" y="96.32" width="4.66" height="10.65" rx="1.84" transform="rotate(-140.45 145.215 101.636)"/>
          </g>
        </g>
      </g>
      <g id="drum">
        <ellipse id="drum_top" cx="120.38" cy="209.11" rx="49.91" ry="19.96" fill="url(#radial-gradient-2)"/>
        <path id="drum_sides" d="M70.47 243.05c0 11 22.34 20 49.91 20s49.91-8.94 49.91-20v-34.61c0 26.62-99.82 26.62-99.82 0z" fill="url(#radial-gradient-3)"/>
        <path id="drum_cap_bottom" class="cls-7" d="M170 215.76c0 10.85-22.34 19-49.9 19s-49.91-8.12-49.91-19"/>
        <path id="drum_cap_top" class="cls-7" d="M170 238.39c0 10.84-22.34 19-49.9 19s-49.91-8.13-49.91-19"/>
        <g id="drumlines">
          <rect id="drumline6" class="cls-8" x="98.75" y="226.08" width="6.73" height="39.26" rx="3.37"/>
          <rect id="drumline5" class="cls-8" x="134.02" y="226.08" width="6.73" height="39.26" rx="3.37"/>
          <rect id="drumline4" class="cls-8" x="77.13" y="218.09" width="6.06" height="39.26" rx="3.03"/>
          <rect id="drumline3" class="cls-8" x="156.32" y="218.09" width="6.06" height="39.26" rx="3.03"/>
          <rect id="drumline2" class="cls-8" x="66.42" y="208.78" width="4.85" height="39.26" rx="2.42"/>
          <rect id="drumline1" class="cls-8" x="167.57" y="208.78" width="4.85" height="39.26" rx="2.42"/>
        </g>
      </g>
      <g id="right_side">
        <rect id="upperarm_right" x="161.12" y="114.35" width="52.88" height="122.34" rx="25.51" transform="rotate(156.47 187.558 175.511)" fill="url(#linear-gradient-3)"/>
        <path id="lowerarm_right" d="M219.62 234l2.81-3.09c9.54-10.51 9.54-27.54 0-38L191 158.26c-9.55-10.51-25-10.51-34.58 0l-2.81 3.09c-9.55 10.5-9.55 27.53 0 38L185 234a22.93 22.93 0 0 0 34.62 0z" fill="url(#linear-gradient-4)"/>
        <path id="drumstick_right" class="cls-11 a_hands" d="M126.31 198.2a2.18 2.18 0 0 0 3.29 0l74.4-84.06c.61-.67 3.13-1.44 4.31-3.16 1.32-1.91-.72-4.63-2.66-3.52s-2.3 4.53-3 5.25l-76.42 81.87a2.74 2.74 0 0 0 .08 3.62z"/>
        <g id="hand_right" class="a_hands">
          <path id="thumb" class="cls-8" d="M189.71 158.11l-12-13.2a7.62 7.62 0 0 0-11.51 0 9.26 9.26 0 0 0-2.3 5.06 7.53 7.53 0 0 0-5.37 1c.81-8.78 7.08-10.5 14-10.5 7.2 0 17.07 11.59 18.45 19.44a9.25 9.25 0 0 0-1.27-1.8z"/>
          <path id="fingers" d="M141.44 172.81a8 8 0 0 1 4.47-2.53l14 15.37a.3.3 0 0 0 .47 0 .38.38 0 0 0 0-.51L146 169.4a9.61 9.61 0 0 1 2.39-7.2 7.88 7.88 0 0 1 5.67-2.66l14.59 16.05a.32.32 0 0 0 .47 0 .4.4 0 0 0 0-.52l-14.81-16.3a9.41 9.41 0 0 1 2.4-5.72 7.81 7.81 0 0 1 7.1-2.56l13.66 15a.3.3 0 0 0 .47 0 .38.38 0 0 0 0-.51l-13.81-15.19a9.37 9.37 0 0 1 2.22-4.46 7.79 7.79 0 0 1 11.74 0l12.22 13.45a9.78 9.78 0 0 1 0 12.9 8.19 8.19 0 0 1-3.12 2.15 9.81 9.81 0 0 1-.87 11.76 7.89 7.89 0 0 1-5.89 2.67 9.59 9.59 0 0 1-2.43 6.48 7.74 7.74 0 0 1-10.69 1 9.26 9.26 0 0 1-1.95 3.43 7.77 7.77 0 0 1-11.74 0l-12.22-13.44a9.79 9.79 0 0 1 .04-12.92z" fill="url(#radial-gradient-4)"/>
        </g>
      </g>
      <g id="head" class="a_head">
        <path id="ear_left" d="M94.14 13.52c-12.51 2.79-18.57 8-21.46 13-5.08 8.57-11.08 17.14-19.62 22.35-71.47 43.57 3.41 121.64 27.88 16.33z" fill="url(#linear-gradient-5)"/>
        <path id="ear_right" d="M143.22 18.64c11.65 5.31 16.5 11.7 18.32 17.1 3.2 9.48 7.3 19.1 14.58 26 60.94 57.39-28.45 118.32-30.66 10.23z" fill="url(#linear-gradient-6)"/>
        <path id="head_main" d="M150.29 58.75a17.78 17.78 0 0 1-4.71-14l1.25-11.93A29.75 29.75 0 0 0 120.34.16a29.74 29.74 0 0 0-32.66 26.49l-1.26 12.08A17.77 17.77 0 0 1 79 51.39l-.19.14a23.32 23.32 0 0 0-3.69 34.81L94.22 100a23.31 23.31 0 0 0 30.52 3.25l21.84-9.46a23.33 23.33 0 0 0 3.71-35.04z" fill="url(#linear-gradient-7)"/>
        <path id="mouth" d="M144.21 71.57c-1.16 11.15-16.21 24.73-32.84 23S82.82 76.43 84 65.28s15-12.82 31.6-11.08 29.77 6.22 28.61 17.37z" fill="#1e1e38"/>
        <path id="tongue" d="M121.24 73.49c11.1 9.22 10.86 5.18 17.72 9.91 7.15 4.92 1.56 10.71 8.65 16.55a7.91 7.91 0 0 0 8.75 1.22 11.5 11.5 0 0 0 6.53-8.6c3.77-21-26.38-24.15-26.38-24.15l-15.27 5.07" fill="url(#linear-gradient-8)"/>
        <g id="teeth">
          <path id="tooth5" class="cls-18" d="M90 70.94c.29-1.25 4.83-.18 4.53 1.07s-1.85 3.32-3.11 3-1.77-2.82-1.42-4.07z"/>
          <path id="tooth4" class="cls-18" d="M135.56 75.7c0-1.29-4.69-1.18-4.66.11s1.13 3.63 2.42 3.6 2.27-2.41 2.24-3.71z"/>
          <path id="tooth3" class="cls-18" d="M118.49 93.64c-.13 1.28-4.77.8-4.63-.48s1.41-3.54 2.69-3.4 2.07 2.6 1.94 3.88z"/>
          <path id="tooth2" class="cls-18" d="M113.79 93.82c-.13 1.28-4.77.79-4.63-.49s1.41-3.53 2.69-3.39 2.07 2.6 1.94 3.88z"/>
          <path id="tooth1" class="cls-18" d="M109.22 92.67c-.13 1.28-4.76.8-4.63-.48s1.42-3.53 2.7-3.4 2.07 2.6 1.93 3.88z"/>
        </g>
        <path class="cls-19" d="M155.05 98.79a20.52 20.52 0 0 0 .22-5.07 19.28 19.28 0 0 0-1.15-4.91 23.2 23.2 0 0 0-5.74-8.22 43.84 43.84 0 0 0-8.18-5.92 65.74 65.74 0 0 0-9.14-4.41v-.07a44.54 44.54 0 0 1 9.45 3.91 36.91 36.91 0 0 1 8.22 6.11 23.46 23.46 0 0 1 5.68 8.49 19.52 19.52 0 0 1 1 5 20.65 20.65 0 0 1-.35 5.09z" id="tongue_line"/>
        <path id="eyebrow_left" class="cls-20 a_eyebrows" d="M97.67 22.23c7.4.93 9.15 3.14 9.23 4.93a2.24 2.24 0 0 1-3 2.15 47.31 47.31 0 0 1-8.64-4.24 1.76 1.76 0 0 0-1.68-.07c-1.25.64-1.26.55-1.34 0-.24-1.82 1.42-2.49 2.76-2.74a8.72 8.72 0 0 1 2.67-.03z"/>
        <path id="eyebrow_right" class="cls-20 a_eyebrows" d="M137.92 26.43c-7.43-.62-9.6 1.18-10 2.92a2.25 2.25 0 0 0 2.46 2.72 48.25 48.25 0 0 0 9.33-2.37 1.78 1.78 0 0 1 1.69.3c1.09.89 1.12.8 1.31.26.62-1.73-.87-2.73-2.16-3.25a8.41 8.41 0 0 0-2.63-.58z"/>
        <path id="snout" d="M127.1 27.19c-4 13.93 6.72 21.73 13.81 25.25a12.19 12.19 0 0 1 6.72 13.45c-3.7 16.44-35.43 8.35-34 .48h-.11c-.21 7.88-32 9.32-33.13-6.77a12.14 12.14 0 0 1 9.22-12.46c7.74-2 19.83-7.41 18.72-22.29a10.67 10.67 0 0 1 5.87-10.49c3.77-1.78 7-.58 9.46 1.39a10.79 10.79 0 0 1 3.44 11.44z" fill="url(#radial-gradient-5)"/>
        <path id="nose" d="M125.13 58.87c.3-2.92-4.19-5.79-10-6.4s-10.88 1.27-11.13 4.19c-.19 1.81 1.58 5.69 4.25 3.53l.61 1.4c-.46 1.55 1.87 3.13 5 3.46s5.71-.75 5.57-2.36l.89-1.24c2.08 2.66 4.62-.77 4.81-2.58z" fill="url(#radial-gradient-6)"/>
        <g id="whisker_dots">
          <circle id="dot" class="cls-19" cx="93.39" cy="64.93" r=".67"/>
          <circle id="dot-2" data-name="dot" class="cls-19" cx="91.43" cy="58.03" r=".67"/>
          <circle id="dot-3" data-name="dot" class="cls-19" cx="97.41" cy="61.67" r=".67"/>
        </g>
        <g id="whisker_dots-2" data-name="whisker_dots">
          <circle id="dot-4" data-name="dot" class="cls-19" cx="133.43" cy="69.1" r=".67"/>
          <circle id="dot-5" data-name="dot" class="cls-19" cx="136.77" cy="62.76" r=".67"/>
          <circle id="dot-6" data-name="dot" class="cls-19" cx="130.17" cy="65.08" r=".67"/>
        </g>
        <path class="cls-19" d="M104.48 38.7c-.49-.34-1-.69-1.4-1.05l-1.39-.95a9.63 9.63 0 0 0-2.83-1.23c-1.86-.37-3.67.49-5.81 1.4A21.81 21.81 0 0 1 89.63 38a14.08 14.08 0 0 1-3.65.39 9.5 9.5 0 0 1-6.7-2.39 14.11 14.11 0 0 0 6.56.34 22.54 22.54 0 0 0 3.16-.73c1-.33 2-.74 3.05-1.19a19.93 19.93 0 0 1 3.45-1.18 6.94 6.94 0 0 1 4 .25 10.16 10.16 0 0 1 4.98 5.21z" id="eyelash_left"/>
        <path class="cls-19" d="M128.25 41.18a10.13 10.13 0 0 1 6-4.06 7 7 0 0 1 4 .58 20.37 20.37 0 0 1 3.13 1.86 32 32 0 0 0 2.74 1.79 22.79 22.79 0 0 0 2.9 1.39 14.17 14.17 0 0 0 6.49 1 9.54 9.54 0 0 1-7.06 1 14.55 14.55 0 0 1-3.49-1.14 21.34 21.34 0 0 1-3.1-1.85c-1.91-1.33-3.5-2.54-5.4-2.57a9.8 9.8 0 0 0-3 .62l-1.56.65c-.58.25-1.1.55-1.65.73z" id="eyelash_right"/>
      </g>
      <g id="left_side">
        <rect id="upperarm_left" x="14.78" y="114.35" width="52.88" height="122.34" rx="25.51" transform="rotate(23.53 41.22 175.545)" fill="url(#linear-gradient-9)"/>
        <path id="lowerarm_left" d="M6.88 230l-2.31-3.55c-7.86-12.08-5.33-28.88 5.65-37.53l36.13-28.44c11-8.65 26.26-5.86 34.12 6.22l2.31 3.55c7.86 12.08 5.33 28.88-5.65 37.53L41 236.2c-11 8.65-26.26 5.86-34.12-6.2z" fill="url(#linear-gradient-10)"/>
        <path id="drumstick_left" class="cls-11 a_hands" d="M104.25 211.5a2.19 2.19 0 0 1-3.25-.59l-60.93-96.32c-.5-.77-2.87-2-3.79-3.89-1-2.13 1.41-4.44 3.15-3s1.6 4.89 2.13 5.71l63.23 94.52a2.74 2.74 0 0 1-.54 3.57z"/>
        <g id="hand_left" class="a_hands">
          <path id="thumb-2" data-name="thumb" class="cls-8" d="M47.66 160.54l13.8-10.86a7.68 7.68 0 0 1 11.36 2.08 9.61 9.61 0 0 1 1.51 5.4 7.72 7.72 0 0 1 5.15 2c.5-8.81-5.42-11.63-12.24-12.88-7.1-1.29-18.56 8.37-21.09 15.87a8.56 8.56 0 0 1 1.51-1.61z"/>
          <path id="fingers-2" data-name="fingers" d="M93.09 183.73a8.23 8.23 0 0 0-4-3.29L73 193.08a.32.32 0 0 1-.47-.08.4.4 0 0 1 .08-.51l16.45-13a9.84 9.84 0 0 0-1.28-7.49 8.22 8.22 0 0 0-5.2-3.64l-16.79 13.21a.31.31 0 0 1-.46-.09.39.39 0 0 1 .08-.51l17-13.41a9.74 9.74 0 0 0-1.52-6.08 8.07 8.07 0 0 0-6.62-3.8l-15.68 12.37a.31.31 0 0 1-.46-.08.38.38 0 0 1 .07-.51L74.08 157a9.63 9.63 0 0 0-1.52-4.8A7.83 7.83 0 0 0 61 150.05l-14.08 11.07A9.74 9.74 0 0 0 45 173.85a8.58 8.58 0 0 0 2.76 2.68 9.81 9.81 0 0 0-.88 11.76 8.14 8.14 0 0 0 5.41 3.71 9.76 9.76 0 0 0 1.43 6.83 7.84 7.84 0 0 0 10.41 2.87 9.43 9.43 0 0 0 1.41 3.74 7.83 7.83 0 0 0 11.58 2.11l14.06-11.07a9.72 9.72 0 0 0 1.91-12.75z" fill="url(#radial-gradient-7)"/>
        </g>
      </g>
    </g>
  </g>
</svg>
