<svg xmlns="http://www.w3.org/2000/svg" xmlns:xlink="http://www.w3.org/1999/xlink" viewBox="0 0 1074 482.69"><defs><style>.cls-1,.cls-23,.cls-24{fill:none;}.cls-2{fill:#00a650;}.cls-3{fill:#57b947;}.cls-4{fill:#008340;}.cls-5{fill:#009e4d;}.cls-6{fill:#006018;}.cls-7{fill:#0c501c;}.cls-8{fill:#a2cf54;}.cls-9{fill:#a3c93b;}.cls-10{fill:#0e7521;}.cls-11{fill:#008047;}.cls-12{fill:#c4d99d;}.cls-13{clip-path:url(#clip-path);}.cls-14{fill:#a5d2a2;}.cls-15,.cls-16,.cls-17,.cls-18,.cls-22{fill:#083f2a;}.cls-15{opacity:0.51;}.cls-16{opacity:0.3;}.cls-17{opacity:0.48;}.cls-18{opacity:0.32;}.cls-19{fill:#9bbb97;}.cls-20{fill:url(#linear-gradient);}.cls-21{opacity:0.64;}.cls-23,.cls-24{stroke:#083f2a;stroke-miterlimit:10;stroke-width:7px;}.cls-24{stroke-linecap:round;}.cls-25{fill:#7fa27a;}.cls-26{fill:url(#linear-gradient-2);}</style><clipPath id="clip-path"><rect id="enviro3" class="cls-1" width="1074" height="482.69"/></clipPath><linearGradient id="linear-gradient" x1="-9.5" y1="292.88" x2="1284.5" y2="292.88" gradientUnits="userSpaceOnUse"><stop offset="0.15" stop-color="#338366"/><stop offset="0.3" stop-color="#35775f"/><stop offset="0.71" stop-color="#3b5b4d"/><stop offset="0.95" stop-color="#3d5046"/></linearGradient><linearGradient id="linear-gradient-2" x1="-362.5" y1="403.88" x2="1087.5" y2="403.88" xlink:href="#linear-gradient"/><symbol id="Grass_7" data-name="Grass 7" viewBox="0 0 108.82 75.4"><path class="cls-5" d="M22.53,12.37s6.53,1,6.85,6.21C30.36,17.27,30.36,10.74,22.53,12.37Z"/><path class="cls-6" d="M34.06,18s6.29,2.42,8.23,5.32C38.9,22.56,35.52,20.38,34.06,18Z"/><path class="cls-7" d="M72.72,53.78s-4.27-4-7-1.85C67.6,53.08,70.58,54.85,72.72,53.78Z"/><path class="cls-6" d="M19.53,6.28s-.84,4.67-3.59,6.83C16.4,9.67,17.23,7.91,19.53,6.28Z"/><path class="cls-6" d="M14.13,43.4S8.9,42.23,6.5,38.58C10.29,39.27,12.31,40.35,14.13,43.4Z"/><path class="cls-7" d="M11.65,58.45s3.64-4.57,1.3-7.16C12,53.28,10.42,56.39,11.65,58.45Z"/><path class="cls-6" d="M37.54,48.78s1.37,6.6,0,9.79C36.3,55.34,36.29,51.31,37.54,48.78Z"/><path class="cls-8" d="M8.37,47.61S5,53.26,0,51.55C.83,53,6.86,55.48,8.37,47.61Z"/><path class="cls-8" d="M48.07,68.52s-6.61-.23-7.53-5.38C39.72,64.55,40.47,71,48.07,68.52Z"/><path class="cls-8" d="M25.36,36.85S21.94,42.5,17,40.79C17.82,42.19,23.85,44.71,25.36,36.85Z"/><path class="cls-8" d="M88,21.68s-2.51,5.93-1.57,10.77C88.22,30.06,88.88,25.65,88,21.68Z"/><path class="cls-9" d="M20,67.07s1.39-5.68-1.82-7C18.12,62.26,18,65.72,20,67.07Z"/><path class="cls-8" d="M63.14,53s-3.42,5.65-8.37,3.94C55.6,58.29,61.63,60.81,63.14,53Z"/><path class="cls-8" d="M62.82,67.21s-1.5,7.73-5.38,8.19C57.21,71.55,60.39,68.65,62.82,67.21Z"/><path class="cls-9" d="M35.14,5.58s-2.42,5.32.48,7.25C36.1,10.66,36.83,7.27,35.14,5.58Z"/><path class="cls-9" d="M92.44,49.62s1.39-5.68-1.82-7C90.55,44.8,90.46,48.27,92.44,49.62Z"/><path class="cls-8" d="M81.28,53.77S79.78,61.5,75.9,62C75.67,58.12,78.85,55.21,81.28,53.77Z"/><path class="cls-8" d="M100.19,49.71s4,5.08,8.63,6.63C107.62,53.6,104.09,50.87,100.19,49.71Z"/><path class="cls-8" d="M78.66,34.47s4,5.08,8.64,6.63C86.09,38.36,82.56,35.63,78.66,34.47Z"/><path class="cls-5" d="M67.72,38.88s-6.6-.22-7.52-5.38C59.38,34.91,60.12,41.4,67.72,38.88Z"/><path class="cls-5" d="M31,43.77a11.31,11.31,0,0,0-1,7.87C31.77,49.25,31.89,47.74,31,43.77Z"/><path class="cls-5" d="M15.91,46.17s1.71,5.59,5.17,5.12C20,49.34,18.3,46.32,15.91,46.17Z"/><path class="cls-10" d="M69,16.86s-3.17,5.95-6.29,7.51C63.87,21.1,66.44,18,69,16.86Z"/><path class="cls-10" d="M53,10s1.31,6.6-.11,9.79C51.7,16.56,51.74,12.53,53,10Z"/><path class="cls-10" d="M48.56,6.59S43.3,10.79,39.81,11C42.15,8.44,45.74,6.62,48.56,6.59Z"/><path class="cls-11" d="M58,13.29,59.67,16l3.08,2A6.13,6.13,0,0,0,58,13.29Z"/><path class="cls-11" d="M53.05,0l1.46,3.63,2.66,2.9S57.17,1,53.05,0Z"/><path class="cls-10" d="M84.1,42.31s-1.56,4.75-4.68,6.31C80.56,45.35,81.52,43.46,84.1,42.31Z"/><path class="cls-12" d="M59.52,64.69s-6.22,2.21-9-2.25C50.3,64.05,53.37,69.81,59.52,64.69Z"/><path class="cls-10" d="M23.58,27.41s-3.18,5.95-6.3,7.51C18.42,31.65,21,28.56,23.58,27.41Z"/><path class="cls-11" d="M35.94,61.34S32.53,67,27.58,65.28C28.4,66.68,34.43,69.2,35.94,61.34Z"/><path class="cls-11" d="M81.84,67.83s-6.22,2.21-9-2.25C72.62,67.2,75.69,73,81.84,67.83Z"/><path class="cls-10" d="M66.38,60.28A12,12,0,0,1,68.08,67C65.91,64.25,66,63.07,66.38,60.28Z"/><path class="cls-10" d="M55.17,34.58s-3.17,6-6.29,7.51C50,38.82,52.59,35.72,55.17,34.58Z"/><path class="cls-10" d="M92.69,54.32s-3.17,6-6.29,7.51C87.54,58.56,90.11,55.46,92.69,54.32Z"/><path class="cls-11" d="M49.63,55l-3.15,2.31-2.15,3.3S49.72,59.19,49.63,55Z"/><path class="cls-11" d="M9.94,22.58s-3.42,5.65-8.37,3.93C2.4,27.92,8.43,30.44,9.94,22.58Z"/><path class="cls-11" d="M50,45.84l1.45,3.63,2.66,2.9S54.08,46.81,50,45.84Z"/><path class="cls-10" d="M53.44,30.1s-4.85-.86-7.68-2.91C49.19,26.69,51.23,28.33,53.44,30.1Z"/><path class="cls-12" d="M72.41,2.12s6.28,2.42,8.22,5.32C77.24,6.71,73.86,4.54,72.41,2.12Z"/><path class="cls-12" d="M57.67,30.16s1.16-6.54-2-8C55.51,24.34,55.75,28.72,57.67,30.16Z"/><path class="cls-12" d="M61.7,5.08l1.45,3.63,2.66,2.9S65.81,6.05,61.7,5.08Z"/><path class="cls-12" d="M28.51,31s2.23-6.22,7.42-5.53C34.83,24.25,28.43,23,28.51,31Z"/><path class="cls-12" d="M41.26,45.6s6.29,2.42,8.23,5.32C46.1,50.19,42.71,48,41.26,45.6Z"/><path class="cls-12" d="M40.39,30.05l1.45,3.63,2.66,2.9S44.5,31,40.39,30.05Z"/><path class="cls-12" d="M68.53,23.47s.85,6.55-4.08,8.29C66,32.35,72.25,30.56,68.53,23.47Z"/><path class="cls-12" d="M57.66,48.16s9.26-1.36,9.84-4.8C65.32,43.81,58.51,45.92,57.66,48.16Z"/><path class="cls-12" d="M23.72,54S30,56.42,32,59.33C28.56,58.6,25.17,56.42,23.72,54Z"/><path class="cls-12" d="M15.62,22.73s-.6,6.71-2.86,9.37C12.53,28.64,13.69,24.79,15.62,22.73Z"/><path class="cls-10" d="M36.66,32.6s-6.9,1.51-6.83,5C31.9,36.75,36.24,35,36.66,32.6Z"/><path class="cls-12" d="M78.19,29.49,75.1,31.88,73,35.24S78.39,33.71,78.19,29.49Z"/><path class="cls-5" d="M74.87,39.47s.3,6.73-1.58,9.67C72.6,45.75,73.24,41.77,74.87,39.47Z"/><path class="cls-5" d="M96.88,29.4s-1.49,7.73-5.38,8.19C91.28,33.74,94.45,30.84,96.88,29.4Z"/><path class="cls-5" d="M84.21,13.58s6.53,1,6.86,6.21C92.05,18.48,92.05,12,84.21,13.58Z"/><path class="cls-5" d="M20.34,18.69S24.59,20,26.53,22.9C23.14,22.18,21.79,21.11,20.34,18.69Z"/><path class="cls-5" d="M42.05,14,43.5,17.6l2.66,2.9S46.16,14.94,42.05,14Z"/><path class="cls-7" d="M108.61,28.56s-6.52,1-8.41-3.85C99.66,26.25,101.63,32.47,108.61,28.56Z"/><path class="cls-5" d="M43.19,37.68s-3.42,5.65-8.36,3.94C35.65,43,41.68,45.55,43.19,37.68Z"/><path class="cls-6" d="M79.56,25.87a22.67,22.67,0,0,1-4.79-7.08C78.34,20.22,78.39,22.51,79.56,25.87Z"/><path class="cls-7" d="M78,12.83s-4.28-4-7-1.85C72.85,12.13,75.83,13.89,78,12.83Z"/></symbol><symbol id="Grass_4" data-name="Grass 4" viewBox="0 0 44.77 23.83"><path class="cls-2" d="M30.51,17.44l1.52.93S31.68,3.63,32.62,0A49.46,49.46,0,0,0,30.51,17.44Z"/><path class="cls-2" d="M33.79,17.2,35,16.38s-.23-11.58.23-12.75C35.19,3.63,33.44,12.29,33.79,17.2Z"/><path class="cls-2" d="M23.52,22.54l-1.32-.82S22.46,10.13,21.94,9C21.94,9,23.91,17.63,23.52,22.54Z"/><path class="cls-3" d="M37.65,17.67l.82-.82.12-9.59S37.3,14.86,37.65,17.67Z"/><path class="cls-4" d="M28.76,17.67s0-9.59-1.06-11.94c0,0,0,9-.35,10.77Z"/><path class="cls-4" d="M44.77,21.55s0-9.59-1.06-11.93c0,0,0,9-.35,10.76Z"/><path class="cls-4" d="M35.54,19.19s1.06-6.9,3.87-8.66c0,0-3,6.09-2.7,9.6Z"/><path class="cls-4" d="M35.42,19.56s1.06-6.91,3.87-8.66c0,0-3,6.08-2.7,9.59Z"/><path class="cls-3" d="M33.67,17.34S33.79,9,31.33,7C31.33,7,33,15,32.5,19Z"/><path class="cls-2" d="M28.52,19.9s-.35-9.48,1.17-13.35c0,0-.58,12.76,0,15Z"/><path class="cls-3" d="M26.41,16s.12-6.55-.58-9.12c0,0-.12,9.94-.82,12.75Z"/><path class="cls-2" d="M27.24,19.78s-.59-6.44-3.75-9.25c0,0,3.28,8.31,2.81,11Z"/><path class="cls-2" d="M43.12,18.08s-.58-6.44-3.74-9.25c0,0,3.28,8.31,2.81,11Z"/><path class="cls-2" d="M39.06,19.08a7.29,7.29,0,0,1,1.4-4.92s-.82,5.74-.35,7.61Z"/><path class="cls-4" d="M38.33,20.54s0-7.52,2.07-10.31c0,0-1.58,9.58-1.09,13.22Z"/><path class="cls-3" d="M25.11,18.26S23.85,7.77,23.2,6.77c0,0,.83,10.93.31,13Z"/><path class="cls-3" d="M34.33,19.81S35.18,11,36.4,8.41c0,0-.49,7.16-.49,9.1Z"/><path class="cls-3" d="M40.52,20.29s.85-8.85,2.06-11.39c0,0-.49,7.15-.49,9.09Z"/><path class="cls-3" d="M29.6,17.75S30.94,7.44,30,4c0,0,1.94,10.19,1,15.53Z"/><path class="cls-2" d="M3.16,18l-1.52.76s.35-12-.59-15A33.66,33.66,0,0,1,3.16,18Z"/><path class="cls-2" d="M11.51,17.58l1.17-1S12.45,1.76,12.92.26C12.92.26,11.16,11.31,11.51,17.58Z"/><path class="cls-2" d="M10.16,22.92l1.31-.82s-.26-11.58.27-12.76C11.74,9.34,9.76,18,10.16,22.92Z"/><path class="cls-3" d="M15.37,18.05l.82-.82.12-9.6S15,15.24,15.37,18.05Z"/><path class="cls-4" d="M4.91,18.05S4.91,8.46,6,6.12c0,0,0,9,.35,10.76Z"/><path class="cls-4" d="M22.49,21.93s0-9.59-1-11.93c0,0,0,9-.35,10.76Z"/><path class="cls-4" d="M13.27,19.57s1.05-6.9,3.86-8.66c0,0-3,6.09-2.69,9.6Z"/><path class="cls-3" d="M0,17.72S-.11,9.41,2.34,7.42c0,0-1.64,8-1.17,11.94Z"/><path class="cls-2" d="M5.15,20.28S5.5,10.79,4,6.93c0,0,.58,12.76,0,15Z"/><path class="cls-3" d="M7.26,16.35s-.12-6.55.59-9.13c0,0,.11,10,.81,12.76Z"/><path class="cls-2" d="M20.85,18.46S20.26,12,17.1,9.21c0,0,3.28,8.31,2.81,11Z"/><path class="cls-2" d="M16.78,19.46a7.29,7.29,0,0,1,1.4-4.92s-.81,5.73-.35,7.61Z"/><path class="cls-4" d="M16.06,20.92s0-7.52,2.06-10.31c0,0-1.58,9.58-1.09,13.22Z"/><path class="cls-3" d="M8.56,18.64S9.82,8.15,10.48,7.15c0,0-.84,10.93-.32,13Z"/><path class="cls-3" d="M12.06,20.19s.85-8.86,2.06-11.4c0,0-.49,7.16-.49,9.09Z"/><path class="cls-3" d="M18.24,20.68s.85-8.86,2.07-11.41c0,0-.49,7.16-.49,9.1Z"/><path class="cls-3" d="M4.07,18.13S2.73,7.82,3.7,4.42c0,0-1.94,10.19-1,15.53Z"/><path class="cls-4" d="M10.12,19.94s-1-6.91-3.86-8.66c0,0,3.05,6.08,2.69,9.59Z"/><path class="cls-2" d="M16.83,20.16s-.58-6.44-3.74-9.25c0,0,3.28,8.31,2.81,11Z"/></symbol></defs><title>enviro2</title><g id="enviro_jungle"><g id="enviro3-2" data-name="enviro3"><g class="cls-13"><rect id="enviro3-3" data-name="enviro3" class="cls-14" width="1074" height="482.69"/><path id="tree_trunk" class="cls-15" d="M218.5-27.31c57,135,25,269,25,269l60,7C321.5,180.69,218.5-27.31,218.5-27.31Z"/><path id="tree_trunk-2" data-name="tree_trunk" class="cls-15" d="M865.5-27.31c57,135,25,269,25,269l60,7C968.5,180.69,865.5-27.31,865.5-27.31Z"/><path id="tree_trunk-3" data-name="tree_trunk" class="cls-16" d="M405.5-27.31c92.92,135,40.75,269,40.75,269l97.81,7C573.4,180.69,405.5-27.31,405.5-27.31Z"/><path id="tree_trunk-4" data-name="tree_trunk" class="cls-16" d="M-22.5-27.31c73.94,135,32.43,269,32.43,269l77.83,7C111.11,180.69-22.5-27.31-22.5-27.31Z"/><path id="tree_trunk-5" data-name="tree_trunk" class="cls-17" d="M760.61-29.31c-57,135-25,269-25,269l-60,7C657.61,178.69,760.61-29.31,760.61-29.31Z"/><path id="tree_trunk-6" data-name="tree_trunk" class="cls-15" d="M201.61-27.31c-57,135-25,269-25,269l-60,7C98.61,180.69,201.61-27.31,201.61-27.31Z"/><path id="tree_trunk-7" data-name="tree_trunk" class="cls-18" d="M1110.61-27.31c-57,135-25,269-25,269l-60,7C1007.61,180.69,1110.61-27.31,1110.61-27.31Z"/><path id="hills_back" class="cls-19" d="M1239.51,234c-155.1-60.1-239.39-41.42-360.77.81s-172-23.55-301.2-25.17S465.16,212.07,355,229.94,185.87,192.17,97.09,202.73C37.47,209.82-3.5,232.38-3.5,232.38V373.69h1252Z"/><path class="cls-20" d="M-3.27,224.49c1.78-19.54,11.57,0,11.57,0,8.9-36.91,9.79,9.77,18.69-6.52s8.9,18.46,16.91,6.52,5.34,10.85,13.35,2.17,5.34,16.28,11.57,14.11,0,27.14,7.12,19.54,4.45,11.94,11.57,8.69,13.34,42.33,18.68,21.71,6.23-36.91,12.46-31.48,4.45,27.13,6.23,5.42-7.12-27.14,2.67-21.71,1.78,7.6,8.9,5.43,35.6,34.74,36.49,23.88,4.45-35.82,9.79-27.14,15.13,36.91,17.8,25,18.69-16.28,18.69,1.09,16.91,28.22,23.14,17.37a21.82,21.82,0,0,1,17.8-10.86,57.26,57.26,0,0,0,5.34,27.14c.89-15.2-5.34-41.25-5.34-41.25,14.24,2.17,14.24,21.71,14.24,21.71,4.45-20.63,20.47,0,20.47,0a98.63,98.63,0,0,0,8.9-36.91c13.34,2.17,16.9,11.94,16.9,11.94,0-21.71,17.8-17.37,17.8-17.37V231h0c16.91,4.34,19.58,22.8,19.58,22.8l13.35-10.86,6.23,16.29c12.46-7.6,17.8,2.17,17.8,2.17l-1.78,17.37h0l25.81-19.54h0c11.57,35.82,10.68,35.82,10.68,35.82l21.36-17.37,13.35,30.4h0c21.36,9.77,16.91-16.29,16.91-16.29l19.58,3.26h0a318.06,318.06,0,0,1-2.67-38c16.91,9.77,27.59,32.57,27.59,32.57l9.78-13,10.68,13c16.91-9.77,4.45-21.71,4.45-21.71,19.58,0,20.47,16.28,20.47,16.28,6.23-19.54,11.57-15.19,11.57-15.19,9.79-5.43,9.79-11.95,9.79-11.95.89-20.62,7.12-26.05,7.12-26.05L617,233.17h0c8-16.28,15.13,3.26,15.13,3.26,3.56-21.71,3.56-22.8,3.56-22.8h0C649.07,220.14,650,231,650,231l13.35-29.31,7.12,33.65c8-15.2,29.37-14.11,29.37-14.11-1.78,26.05-1.78,25-1.78,25h0c18.69-5.43,19.58-5.43,19.58-5.43l-1.78,13,10.68,1.08-5.34,11.94c21.36-9.77,16,18.46,16,18.46,24-17.37,20.46,33.65,20.46,33.65,31.15-46.68,36.49-59.7,36.49-59.7,15.13,10.85,9.79,27.13,9.79,27.13,17.8-22.79,5.34-31.48,5.34-31.48l18.69,7.6c6.23-11.94,17.8-17.37,17.8-17.37v22.8c16.91-9.77,32-5.43,32-5.43,0,18.46,1.78,34.74,1.78,34.74,9.79-17.37,10.68-38,10.68-38,18.69,10.85,18.69,32.56,18.69,32.56,0-21.71,5.34-23.88,5.34-23.88l11.57,9.77,20.47-9.77V241.86c11.57,23.88,17.79,17.37,17.79,17.37.89-18.46-3.55-19.55-3.55-19.55,14.23,0,16,18.46,16,18.46,3.56-20.63,5.34-20.63,5.34-20.63,10.68,8.69,9.79,21.72,9.79,21.72,8-19.55,19.58-9.77,19.58-9.77l6.23,13,16.91-9.77v21.71c16.91,1.09,20.47,16.29,20.47,16.29,19.58-10.86,19.58,3.25,19.58,3.25,16-18.45,18.69,15.2,18.69,15.2,7.12-26.05,22.25-5.43,22.25-5.43-6.23-35.82,9.79-10.85,9.79-10.85,18.69,5.43,11.57-13,11.57-13,3.56-26.05,23.14,1.09,23.14,1.09,15.13,14.11,22.24,3.25,22.24,3.25,0-11.94,10.68,0,10.68,0,3.56-25,14.24-1.08,14.24-1.08,15.13-23.88,16-8.69,16-8.69,0-26.05,13.35-26.05,13.35-26.05,1.78-22.8,16.91-9.77,16.91-9.77,11.57-20.63,17.8,0,17.8,0,2.67-33.65,13.35-19.54,13.35-19.54v165H-9.5Z"/><use width="108.82" height="75.4" transform="translate(294.5 258.69) scale(1 0.99)" xlink:href="#Grass_7"/><use width="108.82" height="75.4" transform="translate(101.5 292.69) scale(1.8 1.09)" xlink:href="#Grass_7"/><use width="108.82" height="75.4" transform="translate(-27.5 244.69) scale(1 0.99)" xlink:href="#Grass_7"/><use width="108.82" height="75.4" transform="translate(589.5 241.69) scale(1.39 1.38)" xlink:href="#Grass_7"/><use width="108.82" height="75.4" transform="translate(440.75 286.69) scale(1.39 1.38)" xlink:href="#Grass_7"/><use width="108.82" height="75.4" transform="translate(932.75 278.69) scale(1.39 1.38)" xlink:href="#Grass_7"/><use width="108.82" height="75.4" transform="translate(755.08 276.69) scale(1.39 1.38)" xlink:href="#Grass_7"/><g id="leaves_back" class="cls-21"><g id="leaves"><path class="cls-22" d="M826.51,98.26l-1-1.06-5.75,8.23-.69-.71a93.16,93.16,0,0,1-8.34-9.52l17-26.61-2.08-1.8L807.58,90.85a90.91,90.91,0,0,1-7-12.3l30.26-47.28-3.16-2.72-30.76,41a88.69,88.69,0,0,1-2.64-9.32c-.36-1.61-.67-3.18-1-4.73l22.49-35.14-1-1.06L792.58,51.07a140.1,140.1,0,0,1-1.47-15.74c-.45-12.18,4.92-23.94,14.62-30.62,7.13-4.9,14.92-6.1,22.52-5.24,25.46,2.9,43.14,28.15,39.24,54.76,0,.15,0,.29-.07.44L852.68,33.82l-1,1.06,15.18,23.41a128.1,128.1,0,0,1-3.77,15.46L839.82,43.19l-3.13,2.74,23.45,36.16a127.39,127.39,0,0,1-6.64,14.34l-11.41-15L840,83.23l11.18,17.24A123,123,0,0,1,843,112.63l-.57-.8-9-7.26,7.18,11.07a76.65,76.65,0,0,1-8,8.54A61.06,61.06,0,0,0,821,106.81Z"/><path class="cls-22" d="M884.69,95.53l1.17-.2.2,8.34.78-.14a70.14,70.14,0,0,0,9.83-2.3L897.05,75l2.19-.19,1.45,25A67.46,67.46,0,0,0,910.85,95l.67-46.59,3.33-.28,2.47,42.6a67.47,67.47,0,0,0,5.91-5c1-.9,1.86-1.81,2.74-2.71l.5-34.63,1.17-.2.78,32.25a107.39,107.39,0,0,0,8-9.84,29.71,29.71,0,0,0,3.78-27.74,28.31,28.31,0,0,0-12.79-14.57C909,17.79,885.92,26.06,876.72,45.85l-.15.33,19.15-6.77.22,1.22L875.36,48.9A105.68,105.68,0,0,0,871,61.12L900.2,52l.89,3.38-31.8,12.77a104.79,104.79,0,0,0-1.91,12.89l14.33-4.48.58,2.23-15.16,6.09a102.94,102.94,0,0,0,.1,12.18l.74-.26,9.27-.45-9.74,3.91a66.93,66.93,0,0,0,1.59,9.66,46,46,0,0,1,15.48-6Z"/><path class="cls-22" d="M988.71,81.63h-1.07l1.09,7.49H988a63.16,63.16,0,0,1-9.13-.39l-4.35-23.35-2,.2,2.52,22.59a61.53,61.53,0,0,1-9.8-2.6L957.56,44.1l-3,.31,4.3,38.45a60.33,60.33,0,0,1-6-3.43c-1-.65-1.93-1.3-2.86-2l-5.73-30.83-1.08,0,4.23,28.92a96.47,96.47,0,0,1-8.62-7.44A26.7,26.7,0,0,1,931.14,44a26.39,26.39,0,0,1,9.2-15.17c14.81-12.52,36.67-9,47.9,7.08l.19.27-18.14-2.81v1.13l19.64,3.91a92.23,92.23,0,0,1,5.73,10.18l-27.43-3.21L968,48.56l30.33,6A95,95,0,0,1,1002,65.77l-13.48-1.58-.18,2.09,14.47,2.88a93.34,93.34,0,0,1,1.76,10.9l-.69-.11-8.35,1.16,9.29,1.84a60.35,60.35,0,0,1,.06,8.9,41.14,41.14,0,0,0-14.73-2.73Z"/><path class="cls-22" d="M924.72,95.3l-1.08-.2,2.44,7.77-.72-.14a74.4,74.4,0,0,1-9.3-2.19l-8.55-24.4-2-.19,6.58,23.27a86.92,86.92,0,0,1-10.37-4.55L886.56,51.33l-3-.29,11.2,39.62q-3.4-2.16-6.71-4.66c-1.12-.84-2.19-1.68-3.25-2.53L873.53,51.26l-1.09-.2,9.43,30c-3.91-3.29-7.31-6.48-10-9.2-7.47-7.44-12.18-17.24-12-25.82a16.52,16.52,0,0,1,6.59-13.48c12.72-9.7,35.44-1.87,49.66,16.58l.23.31L897.51,43l.19,1.14L918.24,52c2.85,3.88,5.37,7.69,7.61,11.4l-28.29-8.65.28,3.14,31.73,12.06c2.26,4.22,4.15,8.25,5.71,12l-13.9-4.25.19,2.07L936.7,85.5c1.63,4.26,2.84,8.08,3.73,11.34l-.72-.25-8.23-.48,9.71,3.7a65.92,65.92,0,0,1,1.65,9,54.42,54.42,0,0,0-15.37-5.65Z"/></g><g id="leaves-2" data-name="leaves"><path class="cls-22" d="M646.18,90.56l-.9-1.18-6.74,7.43c-.2-.26-.4-.54-.6-.79a92.86,92.86,0,0,1-7.06-10.52l20.3-24.21-1.83-2-21,21.55A92.36,92.36,0,0,1,623,67.69l36.06-43-.16-3.11-38.37,36.7a90.46,90.46,0,0,1-1.42-9.59c-.16-1.64-.26-3.24-.35-4.82l26.8-32-.9-1.18-26.07,28.7a139.82,139.82,0,0,1,.55-15.79c1.12-12.14,7.94-23.12,18.42-28.5,7.69-3.95,15.58-4.15,23-2.32,24.88,6.14,39.19,33.43,31.92,59.33,0,.15-.09.29-.13.43L680.38,30l-1.16.93,12.06,25.15a127.94,127.94,0,0,1-5.71,14.85L666.43,37.64,663,40,681.6,78.82a126.68,126.68,0,0,1-8.41,13.38l-9.4-16.35-2.29,1.53,8.89,18.53a121.16,121.16,0,0,1-9.68,11l-.46-.87-8-8.35,5.7,11.9a75.77,75.77,0,0,1-9,7.44,61,61,0,0,0-9.26-18.7Z"/><path class="cls-22" d="M751.26,99.48l-.43-.58-3.28,3.61c-.1-.12-.19-.26-.29-.38A47,47,0,0,1,743.83,97l9.87-11.78-.89-1L742.6,94.72A43.56,43.56,0,0,1,740,88.36l17.53-20.92-1.35-1.51L738.79,83.77a42.2,42.2,0,0,1-.7-4.66c-.07-.79-.12-1.57-.16-2.34l13-15.54-.43-.58-12.68,14a68.57,68.57,0,0,1,.27-7.68,17.23,17.23,0,0,1,9-13.86A15.63,15.63,0,0,1,758.25,52c12.1,3,19,16.25,15.51,28.84a1.66,1.66,0,0,1-.06.21l-5.81-11-.56.45,5.86,12.23a62.74,62.74,0,0,1-2.77,7.22l-9.31-16.18-1.68,1.13,9.06,18.89a63.49,63.49,0,0,1-4.09,6.5l-4.57-8-1.11.75,4.32,9a60.59,60.59,0,0,1-4.71,5.35l-.22-.42L754.22,103l2.77,5.78a36.92,36.92,0,0,1-4.39,3.62,29.69,29.69,0,0,0-4.5-9.09Z"/><path class="cls-22" d="M694.64,84.82l1.18,0-.86,8.3.78,0a70.28,70.28,0,0,0,10-1l3.73-26,2.2.09-1.76,25a68.77,68.77,0,0,0,10.69-3.48l6.62-46.13,3.34.15-3,42.57a68.83,68.83,0,0,0,6.5-4.17c1.06-.77,2.07-1.55,3.07-2.33l4.92-34.28,1.18,0L739.93,75.5a109.23,109.23,0,0,0,9.17-8.74,29.7,29.7,0,0,0,7.29-27,28.31,28.31,0,0,0-10.82-16.09c-16.89-12.81-40.83-7.56-52.48,10.89a3.21,3.21,0,0,0-.19.31l19.86-4.27.06,1.24-21.47,5.57A104.05,104.05,0,0,0,685.49,49l30.09-5.3.45,3.46-33.16,8.6a104.72,104.72,0,0,0-3.55,12.53l14.78-2.6.3,2.28L678.58,72a103.48,103.48,0,0,0-1.45,12.1l.76-.16,9.25.73L677,87.32a66.66,66.66,0,0,0,.33,9.79,46,46,0,0,1,16.12-4Z"/><path class="cls-22" d="M790.92,88.83l-1-.44-2.17,7.25-.65-.3a63.47,63.47,0,0,1-8.11-4.2l5.91-23L783,67.48,775.8,89a61.16,61.16,0,0,1-7.8-6.49l10.5-40.86-2.86-1L763.32,77.36a60.3,60.3,0,0,1-4-5.67c-.63-1-1.21-2-1.77-3l7.8-30.38-1-.43-8.36,28a93.71,93.71,0,0,1-4.68-10.38,26.67,26.67,0,0,1,3.28-25.09,26.24,26.24,0,0,1,14.73-9.87c18.71-5.11,37.06,7.28,40.45,26.62,0,.11,0,.22.05.32L794.57,37.32l-.49,1,16.16,11.82a92.07,92.07,0,0,1,.9,11.65L787.62,47.33,786,50.09l25,18.26A96.94,96.94,0,0,1,809.62,80l-11.56-7.11-1,1.81,11.9,8.72a95.48,95.48,0,0,1-3,10.62l-.59-.39-8.05-2.47,7.64,5.59a61.67,61.67,0,0,1-3.69,8.09A41.39,41.39,0,0,0,789,96.21Z"/></g><g id="leaves-3" data-name="leaves"><path class="cls-22" d="M441.15,90.56l-.9-1.18-6.74,7.43c-.2-.26-.4-.54-.6-.79a92.86,92.86,0,0,1-7.06-10.52l20.3-24.21-1.83-2-21,21.55A91.15,91.15,0,0,1,418,67.69l36.05-43-.16-3.11-38.37,36.7a90.46,90.46,0,0,1-1.42-9.59c-.16-1.64-.26-3.24-.35-4.82l26.8-32-.9-1.18-26.07,28.7a139.82,139.82,0,0,1,.55-15.79C415.21,11.48,422,.5,432.51-4.88c7.69-3.95,15.58-4.15,23-2.32,24.88,6.14,39.19,33.43,31.92,59.33,0,.15-.09.29-.13.43L475.35,30l-1.16.93,12.06,25.15a127.94,127.94,0,0,1-5.71,14.85L461.4,37.64,457.94,40l18.63,38.86a126.68,126.68,0,0,1-8.41,13.38l-9.4-16.35-2.29,1.53,8.89,18.53a121.16,121.16,0,0,1-9.68,11l-.46-.87-8-8.35,5.7,11.9a75.77,75.77,0,0,1-9,7.44,61,61,0,0,0-9.26-18.7Z"/><path class="cls-22" d="M546.24,99.48l-.44-.58-3.28,3.61c-.1-.12-.19-.26-.29-.38A47,47,0,0,1,538.8,97l9.87-11.78-.89-1L537.57,94.72A43.56,43.56,0,0,1,535,88.36l17.53-20.92-1.35-1.51L533.76,83.77a42.2,42.2,0,0,1-.7-4.66c-.07-.79-.12-1.57-.16-2.34l13-15.54-.43-.58-12.68,14a68.57,68.57,0,0,1,.27-7.68,17.23,17.23,0,0,1,9-13.86A15.63,15.63,0,0,1,553.22,52c12.1,3,19,16.25,15.52,28.84,0,.07,0,.14-.07.21l-5.81-11-.56.45,5.86,12.23a62.74,62.74,0,0,1-2.77,7.22l-9.31-16.18-1.68,1.13,9.06,18.89a63.49,63.49,0,0,1-4.09,6.5l-4.57-8-1.11.75,4.32,9a59,59,0,0,1-4.71,5.35l-.22-.42L549.19,103l2.77,5.78a36.92,36.92,0,0,1-4.39,3.62,29.69,29.69,0,0,0-4.5-9.09Z"/><path class="cls-22" d="M489.61,84.82l1.18,0-.86,8.3.78,0a70.28,70.28,0,0,0,10.05-1l3.73-26,2.2.09-1.76,25a68.77,68.77,0,0,0,10.69-3.48l6.62-46.13,3.34.15-3,42.57a68.83,68.83,0,0,0,6.5-4.17c1.06-.77,2.07-1.55,3.07-2.33l4.92-34.28,1.18,0L534.9,75.5a109.23,109.23,0,0,0,9.17-8.74,29.7,29.7,0,0,0,7.29-27,28.31,28.31,0,0,0-10.82-16.09c-16.89-12.81-40.83-7.56-52.48,10.89a3.21,3.21,0,0,0-.19.31l19.86-4.27.06,1.24-21.47,5.57A104.05,104.05,0,0,0,480.46,49l30.09-5.3.45,3.46-33.16,8.6a104.72,104.72,0,0,0-3.55,12.53l14.78-2.6.3,2.28L473.55,72a103.48,103.48,0,0,0-1.45,12.1l.76-.16,9.25.73L472,87.32a66.66,66.66,0,0,0,.33,9.79,46,46,0,0,1,16.12-4Z"/><path class="cls-22" d="M585.89,88.83l-1-.44-2.16,7.25-.66-.3a63.47,63.47,0,0,1-8.11-4.2l5.91-23L578,67.48,570.77,89a61.16,61.16,0,0,1-7.8-6.49l10.5-40.86-2.86-1L558.29,77.36a60.3,60.3,0,0,1-4-5.67c-.63-1-1.21-2-1.77-3l7.8-30.38-1-.43-8.36,28a93.71,93.71,0,0,1-4.68-10.38,26.67,26.67,0,0,1,3.28-25.09,26.24,26.24,0,0,1,14.73-9.87c18.71-5.11,37.06,7.28,40.45,26.62,0,.11,0,.22,0,.32L589.54,37.32l-.49,1,16.16,11.82a92.07,92.07,0,0,1,.9,11.65L582.59,47.33,581,50.09l25,18.26A96.94,96.94,0,0,1,604.59,80L593,72.93l-1,1.81,11.9,8.72a95.48,95.48,0,0,1-3,10.62l-.59-.39-8-2.47,7.64,5.59a61.67,61.67,0,0,1-3.69,8.09A41.39,41.39,0,0,0,584,96.21Z"/></g><g id="leaves-4" data-name="leaves"><path class="cls-22" d="M207.21,98.26l1-1.06,5.74,8.23.69-.71A94.49,94.49,0,0,0,223,95.2L206,68.59l2.08-1.8,18.07,24.06a91.93,91.93,0,0,0,7-12.3L202.88,31.27,206,28.55l30.76,41a88.69,88.69,0,0,0,2.64-9.32c.36-1.61.67-3.18,1-4.73L217.9,20.32l1-1.06,22.19,31.81a142.74,142.74,0,0,0,1.48-15.74c.44-12.18-4.93-23.94-14.63-30.62-7.12-4.9-14.92-6.1-22.52-5.24C180,2.37,162.32,27.62,166.22,54.23c0,.15.05.29.07.44L181,33.82l1,1.06L166.88,58.29a130,130,0,0,0,3.77,15.46l23.24-30.56L197,45.93,173.58,82.09a125.66,125.66,0,0,0,6.63,14.34l11.42-15,2.06,1.81-11.18,17.24a121.24,121.24,0,0,0,8.2,12.16l.56-.8,9-7.26-7.18,11.07a76.13,76.13,0,0,0,8,8.54,61.06,61.06,0,0,1,11.57-17.37Z"/><path class="cls-22" d="M149,95.53l-1.17-.2-.2,8.34-.78-.14a70.14,70.14,0,0,1-9.83-2.3L136.66,75l-2.19-.19-1.45,25A68.39,68.39,0,0,1,122.86,95l-.67-46.59-3.32-.28-2.47,42.6a67.59,67.59,0,0,1-5.92-5c-1-.9-1.86-1.81-2.74-2.71l-.5-34.63-1.17-.2-.78,32.25a109.1,109.1,0,0,1-8-9.84,29.71,29.71,0,0,1-3.78-27.74,28.29,28.29,0,0,1,12.8-14.57C124.72,17.79,147.8,26.06,157,45.85l.15.33L138,39.41l-.22,1.22,20.58,8.27a103.84,103.84,0,0,1,4.33,12.22L133.52,52l-.89,3.38,31.79,12.77a104.79,104.79,0,0,1,1.91,12.89L152,76.57l-.59,2.23,15.17,6.09a104.94,104.94,0,0,1-.11,12.18l-.74-.26-9.27-.45,9.74,3.91a68,68,0,0,1-1.58,9.66,46.13,46.13,0,0,0-15.49-6Z"/><path class="cls-22" d="M45,81.63h1.08L45,89.13h.72a63.16,63.16,0,0,0,9.13-.39l4.34-23.35,2,.2L58.63,88.18a61.93,61.93,0,0,0,9.81-2.6L76.15,44.1l3,.31-4.3,38.45a59.24,59.24,0,0,0,6-3.43c1-.65,1.94-1.3,2.86-2l5.73-30.83,1.08,0L86.34,75.58A95.07,95.07,0,0,0,95,68.14,26.67,26.67,0,0,0,102.57,44a26.29,26.29,0,0,0-9.2-15.17c-14.8-12.52-36.67-9-47.9,7.08l-.18.27,18.13-2.81v1.13L43.79,38.42A92.23,92.23,0,0,0,38.06,48.6l27.43-3.21.28,3.17-30.34,6a94.89,94.89,0,0,0-3.67,11.18l13.47-1.58.18,2.09L30.94,69.16a95.51,95.51,0,0,0-1.76,10.9l.7-.11,8.34,1.16L28.93,83a62.16,62.16,0,0,0-.06,8.9,41.15,41.15,0,0,1,14.74-2.73Z"/><path class="cls-22" d="M109,95.3l1.08-.2-2.44,7.77.73-.14a74.25,74.25,0,0,0,9.29-2.19l8.55-24.4,2-.19-6.58,23.27A86.35,86.35,0,0,0,132,94.67l15.19-43.34,3-.29-11.2,39.62q3.41-2.16,6.72-4.66c1.11-.84,2.19-1.68,3.24-2.53l11.29-32.21,1.08-.2-9.43,30c3.91-3.29,7.31-6.48,10-9.2,7.47-7.44,12.18-17.24,12-25.82a16.57,16.57,0,0,0-6.59-13.48c-12.73-9.7-35.44-1.87-49.67,16.58l-.23.31L136.21,43l-.2,1.14L115.48,52c-2.86,3.88-5.38,7.69-7.61,11.4l28.29-8.65-.29,3.14L104.14,69.93c-2.26,4.22-4.14,8.25-5.71,12l13.9-4.25-.19,2.07L97,85.5c-1.63,4.26-2.84,8.08-3.73,11.34l.73-.25,8.22-.48-9.71,3.7a65.92,65.92,0,0,0-1.65,9,54.36,54.36,0,0,1,15.38-5.65Z"/></g><g id="leaves-5" data-name="leaves"><path class="cls-22" d="M387.54,90.56l.89-1.18,6.75,7.43.59-.79a92.86,92.86,0,0,0,7.06-10.52L382.54,61.29l1.83-2,21,21.55a91.2,91.2,0,0,0,5.37-13.1l-36.06-43,.16-3.11,38.37,36.7a93.13,93.13,0,0,0,1.43-9.59c.15-1.64.26-3.24.34-4.82l-26.79-32,.89-1.18,26.07,28.7a142.44,142.44,0,0,0-.54-15.79c-1.12-12.14-8-23.12-18.43-28.5-7.69-3.95-15.58-4.15-23-2.32C348.29-1.06,334,26.23,341.26,52.13l.12.43L353.33,30l1.16.93L342.43,56.07a127.94,127.94,0,0,0,5.72,14.85l19.13-33.28L370.74,40,352.11,78.82a126.69,126.69,0,0,0,8.42,13.38l9.4-16.35,2.28,1.53-8.89,18.53a121.14,121.14,0,0,0,9.69,11l.46-.87,8-8.35-5.71,11.9a75.77,75.77,0,0,0,9,7.44,61,61,0,0,1,9.26-18.7Z"/><path class="cls-22" d="M282.45,99.48l.43-.58,3.28,3.61c.1-.12.2-.26.29-.38A45.58,45.58,0,0,0,289.88,97L280,85.24l.89-1,10.2,10.47a43.56,43.56,0,0,0,2.61-6.36L276.2,67.44l1.35-1.51,17.38,17.84a44.7,44.7,0,0,0,.69-4.66c.07-.79.13-1.57.17-2.34l-13-15.54.44-.58,12.67,14a68.57,68.57,0,0,0-.27-7.68,17.25,17.25,0,0,0-9-13.86A15.66,15.66,0,0,0,275.46,52c-12.09,3-19,16.25-15.51,28.84L260,81l5.81-11,.56.45-5.86,12.23a61,61,0,0,0,2.78,7.22l9.3-16.18,1.68,1.13-9,18.89a61.8,61.8,0,0,0,4.09,6.5l4.57-8,1.11.75-4.32,9a60.62,60.62,0,0,0,4.7,5.35l.23-.42L279.5,103l-2.78,5.78a36.92,36.92,0,0,0,4.39,3.62,29.7,29.7,0,0,1,4.51-9.09Z"/><path class="cls-22" d="M339.08,84.82l-1.19,0,.87,8.3L338,93a70.43,70.43,0,0,1-10.05-1l-3.73-26-2.19.09,1.76,25a68.54,68.54,0,0,1-10.7-3.48l-6.62-46.13-3.33.15,3,42.57a67.72,67.72,0,0,1-6.51-4.17c-1.06-.77-2.07-1.55-3.06-2.33l-4.93-34.28-1.18,0,3.35,32.08a109.23,109.23,0,0,1-9.17-8.74,29.73,29.73,0,0,1-7.29-27,28.27,28.27,0,0,1,10.83-16.09C305,10.83,329,16.08,340.63,34.53l.18.31L321,30.57l-.07,1.24,21.47,5.57A104.05,104.05,0,0,1,348.22,49l-30.09-5.3-.45,3.46,33.17,8.6a104.59,104.59,0,0,1,3.54,12.53l-14.78-2.6-.3,2.28L355.13,72a103.69,103.69,0,0,1,1.46,12.1l-.77-.16-9.25.73,10.16,2.63a67.34,67.34,0,0,1-.34,9.79,46,46,0,0,0-16.12-4Z"/><path class="cls-22" d="M604.14,93.06l-.94-.72-4,7.33-.63-.48a70.72,70.72,0,0,1-7.69-6.55l11.68-23.49L600.69,68,588,89.56a69,69,0,0,1-6.83-8.94l20.74-41.73L599,37.12,577.33,73.86a67.62,67.62,0,0,1-3-7.12c-.44-1.24-.83-2.46-1.2-3.66l15.41-31-.95-.72L572.16,59.66a107.44,107.44,0,0,1-2.59-12.4,29.73,29.73,0,0,1,9.35-26.39A28.26,28.26,0,0,1,597,13.78c21.17-1,37.89,17,37,38.76,0,.12,0,.24,0,.36L620,38.11l-.76,1,14.51,16.77A104.75,104.75,0,0,1,632,68.73L610.29,47.27,608,49.87l22.42,25.91a108.87,108.87,0,0,1-4.2,12.33L615.48,77.57l-1.54,1.71,10.69,12.36A103,103,0,0,1,619,102.42l-.53-.56-8-4.66,6.86,7.94a66.55,66.55,0,0,1-5.83,7.86,46.1,46.1,0,0,0-11-12.41Z"/><path class="cls-22" d="M430.74,93.06l.94-.72,4,7.33.63-.48A70.72,70.72,0,0,0,444,92.64L432.33,69.15,434.19,68l12.75,21.58a69.87,69.87,0,0,0,6.82-8.94L433,38.89l2.83-1.77,21.7,36.74a67.62,67.62,0,0,0,3-7.12c.44-1.24.83-2.46,1.21-3.66l-15.42-31,.95-.72,15.46,28.31a109.36,109.36,0,0,0,2.58-12.4A29.73,29.73,0,0,0,456,20.87a28.26,28.26,0,0,0-18-7.09c-21.18-1-37.9,17-37,38.76,0,.12,0,.24,0,.36l13.93-14.79.75,1L401.09,55.87a104.75,104.75,0,0,0,1.75,12.86L424.6,47.27l2.33,2.6L404.52,75.78a105,105,0,0,0,4.2,12.33L419.4,77.57l1.54,1.71L410.25,91.64a104.94,104.94,0,0,0,5.68,10.78l.53-.56,8-4.66-6.86,7.94a66.55,66.55,0,0,0,5.83,7.86,46.13,46.13,0,0,1,11-12.41Z"/><path class="cls-22" d="M242.79,88.83l1-.44,2.17,7.25.65-.3a63.47,63.47,0,0,0,8.11-4.2l-5.91-23,1.89-.65L257.91,89a60.48,60.48,0,0,0,7.8-6.49l-10.5-40.86,2.86-1,12.32,36.68a60.39,60.39,0,0,0,4-5.67c.62-1,1.2-2,1.77-3l-7.81-30.38,1-.43,8.37,28a97.58,97.58,0,0,0,4.68-10.38,26.7,26.7,0,0,0-3.28-25.09,26.29,26.29,0,0,0-14.74-9.87c-18.7-5.11-37.06,7.28-40.45,26.62,0,.11,0,.22-.05.32l15.26-10.19.48,1L223.47,50.16a92.07,92.07,0,0,0-.9,11.65l23.52-14.48,1.59,2.76-25,18.26A94.89,94.89,0,0,0,224.1,80l11.55-7.11,1,1.81-11.91,8.72a93.24,93.24,0,0,0,3,10.62l.58-.39,8.06-2.47-7.65,5.59a62.35,62.35,0,0,0,3.7,8.09,41.35,41.35,0,0,1,12.21-8.69Z"/></g></g><g id="leaves_front"><g id="leaves-6" data-name="leaves"><path class="cls-22" d="M170.42,79.86l1.25-1.28,6.94,10,.83-.86a112.62,112.62,0,0,0,10.09-11.51L169,44l2.51-2.17L193.29,70.9A109.42,109.42,0,0,0,201.75,56L165.18-1.1,169-4.39l37.18,49.51a107.49,107.49,0,0,0,3.19-11.27c.43-1.94.81-3.84,1.16-5.72L183.34-14.33l1.26-1.28,26.81,38.43a167.35,167.35,0,0,0,1.78-19c.54-14.72-5.95-28.94-17.67-37-8.61-5.92-18-7.37-27.21-6.33-30.77,3.51-52.14,34-47.42,66.18,0,.18.06.35.08.53L138.78,2,140,3.27,121.69,31.55a153.8,153.8,0,0,0,4.55,18.68L154.32,13.3l3.79,3.32L129.77,60.31a154.46,154.46,0,0,0,8,17.33L151.58,59.5l2.5,2.19L140.57,82.53a146.9,146.9,0,0,0,9.9,14.69l.69-1L162,87.48l-8.68,13.38A94,94,0,0,0,163,111.18a74.25,74.25,0,0,1,14-21Z"/><path class="cls-22" d="M100.1,76.56l-1.41-.25L98.44,86.4l-.94-.17a84.33,84.33,0,0,1-11.88-2.78l-.46-31.7-2.65-.22L80.76,81.77a83.58,83.58,0,0,1-12.28-5.84l-.81-56.3-4-.34-3,51.48a81.1,81.1,0,0,1-7.15-6c-1.15-1.09-2.24-2.18-3.31-3.27L49.6,19.66l-1.41-.25-.94,39a131.41,131.41,0,0,1-9.64-11.89A35.93,35.93,0,0,1,33.05,13,34.19,34.19,0,0,1,48.51-4.64c22.22-12.75,50.11-2.75,61.22,21.16l.18.4L86.76,8.73l-.26,1.48,24.87,10A124.47,124.47,0,0,1,116.6,35L81.36,24l-1.07,4.08,38.42,15.43A128.81,128.81,0,0,1,121,59.05L103.7,53.64l-.7,2.7,18.32,7.36a126.18,126.18,0,0,1-.12,14.72l-.89-.31-11.21-.55,11.77,4.72A82,82,0,0,1,119,94a55.55,55.55,0,0,0-18.71-7.23Z"/><path class="cls-22" d="M-25.61,59.75l1.3,0-1.32,9h.86a75.11,75.11,0,0,0,11-.48l5.25-28.22,2.4.25L-9.14,67.67A74.65,74.65,0,0,0,2.71,64.54L12,14.4l3.64.38L10.48,61.25a74.21,74.21,0,0,0,7.29-4.15c1.2-.78,2.34-1.57,3.46-2.36l6.93-37.27,1.3,0-5.11,35a117.37,117.37,0,0,0,10.42-9A32.28,32.28,0,0,0,44,14.29,31.74,31.74,0,0,0,32.84-4C15-19.17-11.47-14.95-25,4.52c-.08.11-.15.22-.22.33l21.91-3.4V2.82L-27.07,7.54A111.3,111.3,0,0,0-34,19.85L-.85,16l.33,3.83-36.66,7.29A116.06,116.06,0,0,0-41.62,40.6l16.29-1.91.22,2.52L-42.6,44.69a115.5,115.5,0,0,0-2.13,13.17l.84-.13,10.09,1.4L-45,61.36a74.24,74.24,0,0,0-.07,10.75,49.85,49.85,0,0,1,17.81-3.3Z"/><path class="cls-22" d="M51.72,76.28,53,76l-3,9.38.87-.16a90,90,0,0,0,11.24-2.65L72.52,53.12l2.38-.22L67,81a104.7,104.7,0,0,0,12.54-5.49L97.84,23.14l3.61-.34L87.92,70.67Q92,68.06,96,65.05c1.35-1,2.65-2,3.92-3.06l13.64-38.93,1.31-.24L103.51,59.06c4.72-4,8.83-7.83,12.13-11.12,9-9,14.72-20.84,14.48-31.21C130,9.12,126.75,4,122.16.45c-15.38-11.73-42.83-2.27-60,20l-.28.37,22.75-7.75-.23,1.38L59.56,23.92c-3.45,4.69-6.5,9.3-9.2,13.78L84.55,27.25l-.35,3.8L45.86,45.62c-2.73,5.1-5,10-6.9,14.5L55.76,55l-.23,2.5L37.24,64.44c-2,5.14-3.43,9.76-4.5,13.7l.87-.3,10-.58L31.81,81.73a80.29,80.29,0,0,0-2,10.85,65.46,65.46,0,0,1,18.59-6.84Z"/></g><g id="leaves-7" data-name="leaves"><path class="cls-22" d="M388.34,70.56l1.08-1.44,8.16,9,.71-1a113.18,113.18,0,0,0,8.54-12.7L382.3,35.17l2.21-2.47,25.37,26a110.17,110.17,0,0,0,6.49-15.82l-43.57-52,.19-3.75,46.36,44.34a108.81,108.81,0,0,0,1.73-11.58c.18-2,.31-3.91.42-5.82L389.12-24.52l1.08-1.43L421.71,8.74A169.3,169.3,0,0,0,421-10.34c-1.35-14.67-9.6-27.94-22.26-34.45-9.3-4.77-18.83-5-27.8-2.8-30.07,7.42-47.35,40.4-38.57,71.7,0,.18.11.34.16.52L347-2.64l1.41,1.12L333.83,28.87a156.45,156.45,0,0,0,6.91,18L363.87,6.6l4.18,2.81-22.52,47A153.67,153.67,0,0,0,355.7,72.53l11.36-19.76,2.76,1.85L359.08,77a147.43,147.43,0,0,0,11.7,13.3l.56-1L381,79.18l-6.9,14.38a93.75,93.75,0,0,0,10.91,9A73.93,73.93,0,0,1,396.21,80Z"/><path class="cls-22" d="M261.34,81.33l.53-.7,4,4.37.35-.47a54.65,54.65,0,0,0,4.15-6.18L258.41,64.13l1.07-1.21,12.34,12.66A53.72,53.72,0,0,0,275,67.89L253.79,42.61l1.63-1.82,21,21.56a52.68,52.68,0,0,0,.84-5.63c.09-1,.15-1.9.2-2.83L261.72,35.1l.53-.69,15.32,16.86a83.54,83.54,0,0,0-.33-9.27,20.84,20.84,0,0,0-10.82-16.75,18.9,18.9,0,0,0-13.52-1.36c-14.62,3.6-23,19.64-18.75,34.86,0,.08,0,.16.08.25l7-13.26.68.54-7.09,14.78a76,76,0,0,0,3.36,8.73l11.24-19.56,2,1.37L240.53,74.43a74.63,74.63,0,0,0,4.94,7.86L251,72.68l1.34.9-5.22,10.89a70.84,70.84,0,0,0,5.69,6.47l.27-.51,4.7-4.91-3.35,7a45.29,45.29,0,0,0,5.3,4.38,36.23,36.23,0,0,1,5.44-11Z"/><path class="cls-22" d="M329.78,63.62l-1.44-.07,1.05,10-.95,0a84.93,84.93,0,0,1-12.14-1.23l-4.51-31.38-2.65.11,2.12,30.22A83.34,83.34,0,0,1,298.34,67l-8-55.74-4,.18,3.62,51.44a81.51,81.51,0,0,1-7.85-5c-1.29-.94-2.51-1.88-3.71-2.82l-5.95-41.43L271,13.58,275,52.35A132.31,132.31,0,0,1,264,41.79a35.91,35.91,0,0,1-8.81-32.67,34.13,34.13,0,0,1,13.08-19.44c20.41-15.48,49.34-9.13,63.42,13.16l.23.37-24-5.15-.08,1.5,25.95,6.72a125.15,125.15,0,0,1,7.08,14l-36.37-6.41L303.92,18,344,28.43a129.57,129.57,0,0,1,4.29,15.15l-17.87-3.15-.35,2.76,19.11,5a126.07,126.07,0,0,1,1.76,14.62l-.92-.2-11.18.89,12.27,3.18a81.21,81.21,0,0,1-.4,11.82,55.77,55.77,0,0,0-19.49-4.77Z"/><path class="cls-22" d="M213.42,68.46l1.19-.53,2.61,8.76.79-.36a76.35,76.35,0,0,0,9.8-5.08l-7.14-27.8,2.28-.79,8.74,26a73.58,73.58,0,0,0,9.43-7.84l-12.7-49.39,3.46-1.19,14.89,44.32a72.79,72.79,0,0,0,4.87-6.84c.75-1.21,1.46-2.4,2.14-3.6l-9.44-36.7,1.19-.53,10.11,33.84a115.28,115.28,0,0,0,5.65-12.54,32.24,32.24,0,0,0-4-30.32A31.75,31.75,0,0,0,239.52-14c-22.6-6.18-44.78,8.79-48.88,32.17l-.06.39L209,6.21l.59,1.23L190.07,21.73A112.81,112.81,0,0,0,189,35.81l28.42-17.5,1.92,3.33L189.15,43.71a114.56,114.56,0,0,0,1.68,14.13l14-8.6,1.26,2.2L191.66,62a116,116,0,0,0,3.62,12.84l.71-.48,9.74-3-9.24,6.76A74.7,74.7,0,0,0,201,87.88a49.88,49.88,0,0,1,14.76-10.5Z"/></g><g id="leaves-8" data-name="leaves"><path class="cls-22" d="M636.12,70.56l1.08-1.44,8.15,9c.24-.31.48-.65.72-1a111.75,111.75,0,0,0,8.53-12.7L630.08,35.17l2.21-2.47,25.37,26a111.33,111.33,0,0,0,6.49-15.82l-43.58-52,.2-3.75,46.36,44.34a108.81,108.81,0,0,0,1.73-11.58c.18-2,.31-3.91.42-5.82L636.89-24.52,638-25.95,669.48,8.74a169.52,169.52,0,0,0-.66-19.08c-1.35-14.67-9.6-27.94-22.26-34.45-9.3-4.77-18.83-5-27.8-2.8-30.07,7.42-47.36,40.4-38.57,71.7l.15.52L594.78-2.64l1.41,1.12L581.61,28.87a152.84,152.84,0,0,0,6.91,18L611.64,6.6l4.19,2.81-22.52,47a150.46,150.46,0,0,0,10.17,16.17l11.36-19.76,2.76,1.85L606.86,77a145.89,145.89,0,0,0,11.7,13.3l.55-1,9.67-10.1-6.89,14.38a92.74,92.74,0,0,0,10.91,9A73.93,73.93,0,0,1,644,80Z"/><path class="cls-22" d="M509.12,81.33l.53-.7,4,4.37c.12-.16.23-.32.35-.47a54.65,54.65,0,0,0,4.15-6.18L506.18,64.13l1.08-1.21,12.33,12.66a52.64,52.64,0,0,0,3.16-7.69L501.56,42.61l1.64-1.82,21,21.56a52.68,52.68,0,0,0,.84-5.63c.09-1,.15-1.9.2-2.83L509.5,35.1l.52-.69,15.32,16.86A81.38,81.38,0,0,0,525,42,20.84,20.84,0,0,0,514.2,25.25a18.9,18.9,0,0,0-13.52-1.36c-14.62,3.6-23,19.64-18.75,34.86,0,.08.05.16.07.25l7-13.26.69.54-7.09,14.78A74.15,74.15,0,0,0,486,69.79l11.24-19.56,2,1.37L488.31,74.43a73,73,0,0,0,4.94,7.86l5.52-9.61,1.35.9-5.23,10.89a74,74,0,0,0,5.69,6.47l.27-.51,4.7-4.91-3.35,7a45.78,45.78,0,0,0,5.31,4.38,36,36,0,0,1,5.44-11Z"/><path class="cls-22" d="M577.55,63.62l-1.43-.07,1,10-.95,0a84.93,84.93,0,0,1-12.14-1.23l-4.51-31.38-2.66.11L559,71.26A83.34,83.34,0,0,1,546.12,67l-8-55.74-4,.18,3.62,51.44a81.65,81.65,0,0,1-7.86-5c-1.28-.94-2.5-1.88-3.7-2.82L520.2,13.64l-1.43-.06,4.05,38.77a132.31,132.31,0,0,1-11.08-10.56,35.91,35.91,0,0,1-8.81-32.67A34.13,34.13,0,0,1,516-10.32c20.4-15.48,49.34-9.13,63.42,13.16l.23.37-24-5.15-.08,1.5,25.95,6.72a126.88,126.88,0,0,1,7.08,14l-36.37-6.41L551.7,18l40.08,10.39a129.57,129.57,0,0,1,4.29,15.15L578.2,40.43l-.36,2.76,19.12,5a128.29,128.29,0,0,1,1.76,14.62l-.93-.2-11.18.89,12.28,3.18a81.9,81.9,0,0,1-.41,11.82A55.67,55.67,0,0,0,579,73.69Z"/><path class="cls-22" d="M461.2,68.46l1.18-.53L465,76.69l.79-.36a77,77,0,0,0,9.8-5.08l-7.14-27.8,2.28-.79,8.74,26a73.49,73.49,0,0,0,9.42-7.84L476.2,11.46l3.46-1.19,14.89,44.32a70.92,70.92,0,0,0,4.86-6.84c.76-1.21,1.46-2.4,2.14-3.6l-9.43-36.7,1.19-.53,10.1,33.84a115.53,115.53,0,0,0,5.66-12.54,32.24,32.24,0,0,0-4-30.32A31.69,31.69,0,0,0,487.3-14c-22.61-6.18-44.79,8.79-48.88,32.17,0,.13,0,.26-.06.39L456.79,6.21l.59,1.23L437.85,21.73a110.94,110.94,0,0,0-1.09,14.08l28.42-17.5,1.92,3.33L436.93,43.71a116.59,116.59,0,0,0,1.67,14.13l14-8.6,1.26,2.2L439.44,62a116,116,0,0,0,3.62,12.84l.71-.48,9.73-3-9.23,6.76a74.7,74.7,0,0,0,4.46,9.77,49.88,49.88,0,0,1,14.76-10.5Z"/></g><g id="leaves-9" data-name="leaves"><path class="cls-22" d="M918.83,79.86l-1.25-1.28-6.94,10c-.28-.29-.56-.59-.84-.86a111.32,111.32,0,0,1-10.08-11.51L920.3,44l-2.51-2.17L896,70.9A109.42,109.42,0,0,1,887.5,56L924.07-1.1l-3.81-3.29L883.08,45.12a107.49,107.49,0,0,1-3.19-11.27c-.44-1.94-.81-3.84-1.16-5.72l27.18-42.46-1.26-1.28L877.84,22.82a169.93,169.93,0,0,1-1.79-19c-.53-14.72,6-28.94,17.68-37,8.61-5.92,18-7.37,27.21-6.33,30.77,3.51,52.13,34,47.42,66.18,0,.18-.06.35-.08.53L950.47,2l-1.25,1.29,18.34,28.28A153.8,153.8,0,0,1,963,50.23L934.93,13.3l-3.79,3.32,28.33,43.69a152.72,152.72,0,0,1-8,17.33L937.66,59.5l-2.5,2.19,13.52,20.84a145.15,145.15,0,0,1-9.91,14.69l-.68-1-10.88-8.77,8.68,13.38a94,94,0,0,1-9.67,10.32,74.25,74.25,0,0,0-14-21Z"/><path class="cls-22" d="M989.15,76.56l1.41-.25.24,10.09.94-.17a84.47,84.47,0,0,0,11.89-2.78l.45-31.7,2.65-.22,1.76,30.24a83,83,0,0,0,12.27-5.84l.82-56.3,4-.34,3,51.48a81,81,0,0,0,7.14-6c1.16-1.09,2.25-2.18,3.32-3.27l.6-41.84,1.42-.25.94,39a132.89,132.89,0,0,0,9.63-11.89A35.91,35.91,0,0,0,1056.19,13a34.11,34.11,0,0,0-15.46-17.6c-22.21-12.75-50.1-2.75-61.21,21.16-.07.13-.12.26-.18.4l23.14-8.19.27,1.48-24.87,10A124.57,124.57,0,0,0,972.64,35l35.25-11,1.07,4.08L970.54,43.48a126.85,126.85,0,0,0-2.31,15.57l17.31-5.41.71,2.7L967.92,63.7a126,126,0,0,0,.13,14.72l.89-.31,11.2-.55-11.76,4.72A82,82,0,0,0,970.29,94,55.55,55.55,0,0,1,989,86.73Z"/><path class="cls-22" d="M1114.86,59.75l-1.3,0,1.32,9H1114a75.25,75.25,0,0,1-11-.48l-5.24-28.22-2.4.25,3.05,27.29a74.65,74.65,0,0,1-11.85-3.13l-9.32-50.14-3.64.38,5.19,46.47a74.21,74.21,0,0,1-7.29-4.15c-1.2-.78-2.35-1.57-3.47-2.36l-6.92-37.27-1.3,0,5.11,35a117.37,117.37,0,0,1-10.42-9,32.22,32.22,0,0,1-9.19-29.17A31.78,31.78,0,0,1,1056.4-4c17.9-15.14,44.32-10.92,57.89,8.55l.22.33-21.91-3.4V2.82l23.73,4.72a111.3,111.3,0,0,1,6.93,12.31L1090.1,16l-.34,3.83,36.66,7.29a114.33,114.33,0,0,1,4.45,13.52l-16.29-1.91-.22,2.52,17.49,3.48A115.5,115.5,0,0,1,1134,57.86l-.84-.13-10.09,1.4,11.23,2.23a74.24,74.24,0,0,1,.07,10.75,49.85,49.85,0,0,0-17.81-3.3Z"/><path class="cls-22" d="M1000.86,94.75l-1.3,0,1.32,9H1000a75.25,75.25,0,0,1-11-.48l-5.24-28.22-2.4.25,3,27.29a74.65,74.65,0,0,1-11.85-3.13L963.22,49.4l-3.64.38,5.19,46.47a74.21,74.21,0,0,1-7.29-4.15c-1.2-.78-2.35-1.57-3.47-2.36l-6.92-37.27-1.3,0,5.11,35a117.37,117.37,0,0,1-10.42-9,32.22,32.22,0,0,1-9.19-29.17A31.78,31.78,0,0,1,942.4,31c17.9-15.14,44.32-10.92,57.89,8.55.08.11.15.22.22.33l-21.91-3.4v1.37l23.73,4.72a111.3,111.3,0,0,1,6.93,12.31L976.1,51l-.34,3.83,36.66,7.29a114.33,114.33,0,0,1,4.45,13.52l-16.29-1.91-.22,2.52,17.49,3.48A115.5,115.5,0,0,1,1020,92.86l-.84-.13-10.09,1.4,11.23,2.23a74.24,74.24,0,0,1,.07,10.75,49.85,49.85,0,0,0-17.81-3.3Z"/><path class="cls-22" d="M1075.5,112.47l-2.43.12,1.62,16.95-1.62.07a140.59,140.59,0,0,1-20.64-.26l-7.17-52.85-4.52.61,3.15,51.22a130,130,0,0,1-21.92-5.22l-12.75-93.89-6.85.92,5.36,87.22a120.08,120.08,0,0,1-13.29-7.4c-2.17-1.39-4.24-2.81-6.26-4.24l-9.47-69.78-2.44.11,6.28,65.54a192.28,192.28,0,0,1-18.68-16.34C950.28,71.7,944.4,51.13,949.39,30.86,953.06,16,961.53,4.51,972-4.3c35-29.53,84.09-23.11,107.69,12.78.14.2.25.4.38.6L1039.27,4l-.15,2.57,44,7.52A188.58,188.58,0,0,1,1095,36.83l-61.76-5.4-1,7.23,68,11.61a204.3,204.3,0,0,1,7,25.2L1077,72.81l-.65,4.77,32.45,5.54a209.94,209.94,0,0,1,2.76,24.69l-1.57-.2-19,3.21,20.83,3.56a142.08,142.08,0,0,1-.88,20.23c-11.34-4.3-23.2-5.36-33.07-5.17Z"/></g><g id="leaves-10" data-name="leaves"><path class="cls-22" d="M700.91,70.56l-1.08-1.44-8.16,9c-.24-.31-.48-.65-.71-1a113.18,113.18,0,0,1-8.54-12.7L707,35.17l-2.21-2.47-25.37,26a110.17,110.17,0,0,1-6.49-15.82l43.57-52-.19-3.75L669.89,31.52a106.29,106.29,0,0,1-1.72-11.58c-.19-2-.31-3.91-.42-5.82l32.38-38.64-1.08-1.43L667.54,8.74a169.3,169.3,0,0,1,.67-19.08c1.35-14.67,9.6-27.94,22.26-34.45,9.3-4.77,18.83-5,27.8-2.8,30.07,7.42,47.35,40.4,38.57,71.7-.05.18-.11.34-.16.52L742.24-2.64l-1.4,1.12,14.58,30.39a156.45,156.45,0,0,1-6.91,18L725.38,6.6,721.2,9.41l22.52,47a153.67,153.67,0,0,1-10.17,16.17L722.19,52.77l-2.76,1.85L730.17,77a147.43,147.43,0,0,1-11.7,13.3l-.56-1-9.67-10.1,6.9,14.38a93.75,93.75,0,0,1-10.91,9A74.16,74.16,0,0,0,693,80Z"/><path class="cls-22" d="M827.91,81.33l-.53-.7-4,4.37-.34-.47a53.35,53.35,0,0,1-4.15-6.18l11.92-14.22-1.07-1.21L817.43,75.58a53.72,53.72,0,0,1-3.15-7.69l21.18-25.28-1.63-1.82-21,21.56a52.68,52.68,0,0,1-.84-5.63c-.09-1-.15-1.9-.21-2.83L827.53,35.1l-.53-.69L811.68,51.27A83.54,83.54,0,0,1,812,42a20.82,20.82,0,0,1,10.82-16.75,18.87,18.87,0,0,1,13.51-1.36c14.62,3.6,23,19.64,18.76,34.86,0,.08-.05.16-.08.25l-7-13.26-.68.54,7.09,14.78a77.84,77.84,0,0,1-3.36,8.73L839.8,50.23l-2,1.37,11,22.83a74.63,74.63,0,0,1-5,7.86l-5.52-9.61-1.34.9,5.22,10.89a70.84,70.84,0,0,1-5.69,6.47l-.27-.51-4.7-4.91,3.35,7a46.33,46.33,0,0,1-5.3,4.38,36.23,36.23,0,0,0-5.44-11Z"/><path class="cls-22" d="M759.47,63.62l1.43-.07-1,10,.95,0A84.93,84.93,0,0,0,773,72.31l4.51-31.38,2.65.11L778,71.26A83.46,83.46,0,0,0,790.91,67l8-55.74,4,.18-3.62,51.44a82.76,82.76,0,0,0,7.85-5c1.28-.94,2.51-1.88,3.71-2.82l6-41.43,1.43-.06-4,38.77a132.31,132.31,0,0,0,11.08-10.56A35.93,35.93,0,0,0,834.1,9.12,34.23,34.23,0,0,0,821-10.32C800.61-25.8,771.68-19.45,757.6,2.84l-.23.37,24-5.15.07,1.5L755.5,6.28a125.15,125.15,0,0,0-7.08,14l36.36-6.41.54,4.18L745.24,28.43A127.51,127.51,0,0,0,741,43.58l17.87-3.15.35,2.76-19.11,5a123.92,123.92,0,0,0-1.76,14.62l.92-.2,11.18.89-12.27,3.18a81.21,81.21,0,0,0,.4,11.82A55.72,55.72,0,0,1,758,73.69Z"/><path class="cls-22" d="M439.14,73.57l1.14-.87,4.84,8.86.75-.58a85.74,85.74,0,0,0,9.3-7.91L441.06,44.68l2.25-1.41,15.4,26.07A82.65,82.65,0,0,0,467,58.54L441.9,8.11,445.31,6l26.23,44.4a81.8,81.8,0,0,0,3.61-8.61c.52-1.49,1-3,1.45-4.42L458-.14,459.11-1l18.68,34.21a130.23,130.23,0,0,0,3.13-15,35.92,35.92,0,0,0-11.3-31.89,34.2,34.2,0,0,0-21.81-8.57C422.22-23.4,402-1.74,403.08,24.61l0,.43L419.93,7.17l.92,1.19L403.31,28.63a126,126,0,0,0,2.11,15.53l26.3-25.92,2.82,3.14L407.45,52.69a130.26,130.26,0,0,0,5.07,14.9l12.92-12.74,1.86,2.07L414.38,71.86a125.81,125.81,0,0,0,6.86,13l.65-.69,9.7-5.62-8.29,9.59a80.08,80.08,0,0,0,7,9.5,55.57,55.57,0,0,1,13.33-15Z"/><path class="cls-22" d="M648.7,73.57l-1.15-.87-4.83,8.86c-.25-.19-.51-.4-.76-.58a85.63,85.63,0,0,1-9.29-7.91l14.11-28.39-2.25-1.41L629.12,69.34a82.57,82.57,0,0,1-8.24-10.8L645.94,8.11,642.52,6l-26.23,44.4a81.74,81.74,0,0,1-3.6-8.61c-.53-1.49-1-3-1.45-4.42L629.87-.14,628.72-1,610,33.21a132.15,132.15,0,0,1-3.12-15,35.92,35.92,0,0,1,11.3-31.89A34.17,34.17,0,0,1,640-22.24c25.59-1.16,45.8,20.5,44.74,46.85l0,.43L667.9,7.17,667,8.36l17.54,20.27a126,126,0,0,1-2.12,15.53L656.12,18.24l-2.82,3.14,27.09,31.31a128.31,128.31,0,0,1-5.08,14.9L662.4,54.85l-1.87,2.07,12.93,14.94a127.78,127.78,0,0,1-6.86,13L666,84.2l-9.71-5.62,8.3,9.59a80.69,80.69,0,0,1-7,9.5,55.54,55.54,0,0,0-13.32-15Z"/><path class="cls-22" d="M875.83,68.46l-1.19-.53L872,76.69l-.79-.36a77.14,77.14,0,0,1-9.81-5.08l7.15-27.8-2.28-.79-8.74,26a73.58,73.58,0,0,1-9.43-7.84l12.69-49.39-3.45-1.19L842.48,54.59a72.79,72.79,0,0,1-4.87-6.84c-.75-1.21-1.46-2.4-2.14-3.6l9.43-36.7-1.18-.53L833.61,40.76A115.28,115.28,0,0,1,828,28.22a32.21,32.21,0,0,1,4-30.32A31.75,31.75,0,0,1,849.73-14c22.6-6.18,44.78,8.79,48.88,32.17l.06.39L880.23,6.21l-.58,1.23,19.52,14.29a111,111,0,0,1,1.1,14.08l-28.43-17.5-1.91,3.33,30.16,22.07a114.62,114.62,0,0,1-1.67,14.13l-14-8.6-1.26,2.2L897.58,62A111.79,111.79,0,0,1,894,74.81l-.71-.48-9.73-3,9.24,6.76a73.75,73.75,0,0,1-4.47,9.77,49.75,49.75,0,0,0-14.76-10.5Z"/></g></g><path class="cls-23" d="M717.5,87.69C668,203.19,577,124.19,553.22,65"/><path class="cls-23" d="M951.5,75.69C902.66,173.09,811.32,103.34,787.22,53"/><path class="cls-23" d="M192,62.19c-78,155-151.22,25.24-175-34"/><path class="cls-23" d="M207,59.19c-78,155-151.22,25.24-175-34"/><path class="cls-23" d="M715,78.19c-75.71,110.13-170,26.45-185-31"/><path class="cls-24" d="M22,14.19c23,133,28,147,58,116s44,56,44,56"/><path class="cls-23" d="M995,81.19c47,122,66-53,66-53"/><path class="cls-23" d="M263,49.19c40,178,79,6,79,6"/><path id="hills_front" class="cls-25" d="M1074,337.19c-138-74-213-51-321,1s-153-29-268-31-100,3-198,25-150.5-46.5-229.5-33.5c-53,8.73-89.5,36.5-89.5,36.5v174H1082Z"/><path class="cls-26" d="M-355.52,335.49c2-19.54,13,0,13,0,10-36.91,11,9.77,20.95-6.52s10,18.46,18.94,6.52,6,10.85,15,2.17,6,16.28,13,14.11,0,27.14,8,19.54,5,11.94,13,8.69,15,42.33,20.94,21.71,7-36.91,14-31.48,5,27.13,7,5.42-8-27.14,3-21.71,2,7.6,10,5.43,39.89,34.74,40.89,23.88,5-35.82,11-27.14,17,36.91,19.94,25,20.94-16.28,20.94,1.09,18.95,28.22,25.93,17.37,20-10.86,20-10.86a52.25,52.25,0,0,0,6,27.14c1-15.2-6-41.25-6-41.25,15.95,2.17,15.95,21.71,15.95,21.71,5-20.63,22.94,0,22.94,0,10-19.54,10-36.91,10-36.91,15,2.17,19,11.94,19,11.94,0-21.71,19.94-17.37,19.94-17.37V342h0c18.95,4.34,21.94,22.8,21.94,22.8l15-10.86,7,16.29c14-7.6,20,2.17,20,2.17l-2,17.37h0l28.92-19.54h0c13,35.82,12,35.82,12,35.82l23.93-17.37,15,30.4h0C193,428.85,188,402.79,188,402.79l21.94,3.26h0a284.5,284.5,0,0,1-3-38c18.95,9.77,30.91,32.57,30.91,32.57l11-13,12,13c19-9.77,5-21.71,5-21.71,21.94,0,22.93,16.28,22.93,16.28,7-19.54,13-15.19,13-15.19,11-5.43,11-11.95,11-11.95,1-20.62,8-26.05,8-26.05l18.94,2.17h0c9-16.28,17,3.26,17,3.26,4-21.71,4-22.8,4-22.8h0c14.95,6.51,15.95,17.37,15.95,17.37l15-29.31,8,33.65c9-15.2,32.91-14.11,32.91-14.11-2,26-2,25-2,25h0c20.95-5.43,21.94-5.43,21.94-5.43l-2,13,12,1.08-6,11.94c23.94-9.77,17.95,18.46,17.95,18.46,26.93-17.37,22.94,33.65,22.94,33.65C532,383.25,538,370.23,538,370.23c17,10.85,11,27.13,11,27.13,19.94-22.79,6-31.48,6-31.48l20.94,7.6c7-11.94,20-17.37,20-17.37v22.8c18.94-9.77,35.9-5.43,35.9-5.43a322.26,322.26,0,0,0,2,34.74c11-17.37,12-38,12-38,20.94,10.85,20.94,32.56,20.94,32.56,0-21.71,6-23.88,6-23.88l13,9.77,22.94-9.77V352.86c13,23.88,19.94,17.37,19.94,17.37,1-18.46-4-19.55-4-19.55,16,0,18,18.46,18,18.46,4-20.63,6-20.63,6-20.63a26.14,26.14,0,0,1,11,21.72c9-19.55,21.93-9.77,21.93-9.77l7,13,18.94-9.77v21.71c19,1.09,22.94,16.29,22.94,16.29,21.94-10.86,21.94,3.25,21.94,3.25,18-18.45,20.94,15.2,20.94,15.2,8-26.05,24.93-5.43,24.93-5.43-7-35.82,11-10.85,11-10.85,20.94,5.43,13-13,13-13,4-26.05,25.93,1.09,25.93,1.09,17,14.11,24.93,3.25,24.93,3.25,0-11.94,12,0,12,0,4-25,16-1.08,16-1.08,17-23.88,18-8.69,18-8.69,0-26.05,15-26.05,15-26.05,2-22.8,18.95-9.77,18.95-9.77,13-20.63,19.94,0,19.94,0,3-33.65,15-19.54,15-19.54v165h-1450Z"/><g id="grass"><use width="44.77" height="23.83" transform="translate(-32.5 382.42) scale(5.87 5.89)" xlink:href="#Grass_4"/><use width="44.77" height="23.83" transform="translate(210.5 382.42) scale(5.87 5.89)" xlink:href="#Grass_4"/><use width="44.77" height="23.83" transform="translate(460.5 382.42) scale(5.87 5.89)" xlink:href="#Grass_4"/><use width="44.77" height="23.83" transform="translate(724.5 382.42) scale(5.87 5.89)" xlink:href="#Grass_4"/><use width="44.77" height="23.83" transform="translate(913.5 382.42) scale(5.87 5.89)" xlink:href="#Grass_4"/></g></g></g></g></svg>