<svg xmlns="http://www.w3.org/2000/svg" xmlns:xlink="http://www.w3.org/1999/xlink" viewBox="0 0 769.86 324.23"><defs><style>.cls-1,.cls-13,.cls-2,.cls-25,.cls-27,.cls-30,.cls-35,.cls-37,.cls-38,.cls-40{fill:none;}.cls-2{stroke:#231f20;stroke-width:5.76px;}.cls-14,.cls-3,.cls-6{fill:#ff5050;}.cls-13,.cls-14,.cls-25,.cls-27,.cls-3,.cls-30,.cls-35,.cls-37,.cls-38,.cls-40{stroke-miterlimit:10;}.cls-13,.cls-14,.cls-27,.cls-3{stroke-width:0.67px;}.cls-3{stroke:url(#linear-gradient);}.cls-4{fill:#28bfbb;}.cls-5{fill:#0e666c;}.cls-7{fill:#f36f63;}.cls-8{fill:#d6d922;}.cls-9{fill:#0d86a3;}.cls-10{fill:#fff;}.cls-11{fill:#070707;}.cls-12{fill:#3a3a3a;}.cls-13{stroke:#3a3a3a;}.cls-14{stroke:url(#linear-gradient-2);}.cls-15{fill:#f69852;}.cls-16{clip-path:url(#clip-path);}.cls-17{fill:url(#_10_lpi_80_);}.cls-18{fill:url(#_10_lpi_80_3);}.cls-19{fill:url(#_10_lpi_80_5);}.cls-20{fill:url(#_10_lpi_80_7);}.cls-21{fill:url(#_10_lpi_80_9);}.cls-22{fill:url(#_10_lpi_80_11);}.cls-23{fill:#7f5e9a;}.cls-24{fill:#ff1d1d;}.cls-25,.cls-38,.cls-40{stroke:#000;}.cls-25{stroke-width:0.44px;}.cls-26{fill:#26aaa3;}.cls-27{stroke:#26aaa3;}.cls-28{fill:#565656;}.cls-29,.cls-31{fill:#311259;}.cls-30{stroke:#7f5e9a;stroke-width:2.66px;}.cls-31{opacity:0.81;}.cls-32{fill:#efefef;}.cls-33{fill:#008260;}.cls-34{fill:#1e1e1e;}.cls-35{stroke:#1e1e1e;stroke-width:0.16px;}.cls-36{fill:#ddd;}.cls-37{stroke:#fff;stroke-width:0.9px;}.cls-38{stroke-width:0.61px;}.cls-39{fill:#0c0c0c;}.cls-40{stroke-width:0.17px;}.cls-41{fill:url(#linear-gradient-3);}.cls-42{fill:#160104;}</style><linearGradient id="linear-gradient" x1="-2693.56" y1="109.66" x2="-2774.03" y2="109.66" gradientTransform="matrix(-1, 0, 0, 1, -2004.17, 0)" gradientUnits="userSpaceOnUse"><stop offset="0" stop-color="#ff5050"/><stop offset="1" stop-color="#fcee21"/></linearGradient><linearGradient id="linear-gradient-2" x1="-2595.92" y1="217.05" x2="-2721.64" y2="217.05" xlink:href="#linear-gradient"/><clipPath id="clip-path"><path id="tail" class="cls-1" d="M176.09,317c83.13-110-35.23-154.92-6.85-172.67,3.45-2.16,6.24-5.28,6.3-9.28.12-8.18-7.69-12.79-16.2-12.33a21.53,21.53,0,0,0-14.68,7.19c-19.54,21.49,16,42.58,23.7,51.76,54.39,69.32-.62,122.37-.62,122.37Z"/></clipPath><pattern id="_10_lpi_80_" data-name="10 lpi 80%" width="72" height="72" patternTransform="matrix(0.71, -0.4, 0.66, 1.02, 122.99, 275.49)" patternUnits="userSpaceOnUse" viewBox="0 0 72 72"><rect class="cls-1" width="72" height="72"/><line class="cls-2" x1="71.75" y1="68.4" x2="144.25" y2="68.4"/><line class="cls-2" x1="71.75" y1="54" x2="144.25" y2="54"/><line class="cls-2" x1="71.75" y1="39.6" x2="144.25" y2="39.6"/><line class="cls-2" x1="71.75" y1="25.2" x2="144.25" y2="25.2"/><line class="cls-2" x1="71.75" y1="10.8" x2="144.25" y2="10.8"/><line class="cls-2" x1="71.75" y1="61.2" x2="144.25" y2="61.2"/><line class="cls-2" x1="71.75" y1="46.8" x2="144.25" y2="46.8"/><line class="cls-2" x1="71.75" y1="32.4" x2="144.25" y2="32.4"/><line class="cls-2" x1="71.75" y1="18" x2="144.25" y2="18"/><line class="cls-2" x1="71.75" y1="3.6" x2="144.25" y2="3.6"/><line class="cls-2" x1="-0.25" y1="68.4" x2="72.25" y2="68.4"/><line class="cls-2" x1="-0.25" y1="54" x2="72.25" y2="54"/><line class="cls-2" x1="-0.25" y1="39.6" x2="72.25" y2="39.6"/><line class="cls-2" x1="-0.25" y1="25.2" x2="72.25" y2="25.2"/><line class="cls-2" x1="-0.25" y1="10.8" x2="72.25" y2="10.8"/><line class="cls-2" x1="-0.25" y1="61.2" x2="72.25" y2="61.2"/><line class="cls-2" x1="-0.25" y1="46.8" x2="72.25" y2="46.8"/><line class="cls-2" x1="-0.25" y1="32.4" x2="72.25" y2="32.4"/><line class="cls-2" x1="-0.25" y1="18" x2="72.25" y2="18"/><line class="cls-2" x1="-0.25" y1="3.6" x2="72.25" y2="3.6"/><line class="cls-2" x1="-72.25" y1="68.4" x2="0.25" y2="68.4"/><line class="cls-2" x1="-72.25" y1="54" x2="0.25" y2="54"/><line class="cls-2" x1="-72.25" y1="39.6" x2="0.25" y2="39.6"/><line class="cls-2" x1="-72.25" y1="25.2" x2="0.25" y2="25.2"/><line class="cls-2" x1="-72.25" y1="10.8" x2="0.25" y2="10.8"/><line class="cls-2" x1="-72.25" y1="61.2" x2="0.25" y2="61.2"/><line class="cls-2" x1="-72.25" y1="46.8" x2="0.25" y2="46.8"/><line class="cls-2" x1="-72.25" y1="32.4" x2="0.25" y2="32.4"/><line class="cls-2" x1="-72.25" y1="18" x2="0.25" y2="18"/><line class="cls-2" x1="-72.25" y1="3.6" x2="0.25" y2="3.6"/></pattern><pattern id="_10_lpi_80_3" data-name="10 lpi 80%" width="72" height="72" patternTransform="matrix(0.84, -0.36, 0.52, 1.1, 107.67, 286.74)" patternUnits="userSpaceOnUse" viewBox="0 0 72 72"><rect class="cls-1" width="72" height="72"/><line class="cls-2" x1="71.75" y1="68.4" x2="144.25" y2="68.4"/><line class="cls-2" x1="71.75" y1="54" x2="144.25" y2="54"/><line class="cls-2" x1="71.75" y1="39.6" x2="144.25" y2="39.6"/><line class="cls-2" x1="71.75" y1="25.2" x2="144.25" y2="25.2"/><line class="cls-2" x1="71.75" y1="10.8" x2="144.25" y2="10.8"/><line class="cls-2" x1="71.75" y1="61.2" x2="144.25" y2="61.2"/><line class="cls-2" x1="71.75" y1="46.8" x2="144.25" y2="46.8"/><line class="cls-2" x1="71.75" y1="32.4" x2="144.25" y2="32.4"/><line class="cls-2" x1="71.75" y1="18" x2="144.25" y2="18"/><line class="cls-2" x1="71.75" y1="3.6" x2="144.25" y2="3.6"/><line class="cls-2" x1="-0.25" y1="68.4" x2="72.25" y2="68.4"/><line class="cls-2" x1="-0.25" y1="54" x2="72.25" y2="54"/><line class="cls-2" x1="-0.25" y1="39.6" x2="72.25" y2="39.6"/><line class="cls-2" x1="-0.25" y1="25.2" x2="72.25" y2="25.2"/><line class="cls-2" x1="-0.25" y1="10.8" x2="72.25" y2="10.8"/><line class="cls-2" x1="-0.25" y1="61.2" x2="72.25" y2="61.2"/><line class="cls-2" x1="-0.25" y1="46.8" x2="72.25" y2="46.8"/><line class="cls-2" x1="-0.25" y1="32.4" x2="72.25" y2="32.4"/><line class="cls-2" x1="-0.25" y1="18" x2="72.25" y2="18"/><line class="cls-2" x1="-0.25" y1="3.6" x2="72.25" y2="3.6"/><line class="cls-2" x1="-72.25" y1="68.4" x2="0.25" y2="68.4"/><line class="cls-2" x1="-72.25" y1="54" x2="0.25" y2="54"/><line class="cls-2" x1="-72.25" y1="39.6" x2="0.25" y2="39.6"/><line class="cls-2" x1="-72.25" y1="25.2" x2="0.25" y2="25.2"/><line class="cls-2" x1="-72.25" y1="10.8" x2="0.25" y2="10.8"/><line class="cls-2" x1="-72.25" y1="61.2" x2="0.25" y2="61.2"/><line class="cls-2" x1="-72.25" y1="46.8" x2="0.25" y2="46.8"/><line class="cls-2" x1="-72.25" y1="32.4" x2="0.25" y2="32.4"/><line class="cls-2" x1="-72.25" y1="18" x2="0.25" y2="18"/><line class="cls-2" x1="-72.25" y1="3.6" x2="0.25" y2="3.6"/></pattern><pattern id="_10_lpi_80_5" data-name="10 lpi 80%" width="72" height="72" patternTransform="matrix(1.03, -0.46, 0.5, 1.1, -15.2, 450.59)" patternUnits="userSpaceOnUse" viewBox="0 0 72 72"><rect class="cls-1" width="72" height="72"/><line class="cls-2" x1="71.75" y1="68.4" x2="144.25" y2="68.4"/><line class="cls-2" x1="71.75" y1="54" x2="144.25" y2="54"/><line class="cls-2" x1="71.75" y1="39.6" x2="144.25" y2="39.6"/><line class="cls-2" x1="71.75" y1="25.2" x2="144.25" y2="25.2"/><line class="cls-2" x1="71.75" y1="10.8" x2="144.25" y2="10.8"/><line class="cls-2" x1="71.75" y1="61.2" x2="144.25" y2="61.2"/><line class="cls-2" x1="71.75" y1="46.8" x2="144.25" y2="46.8"/><line class="cls-2" x1="71.75" y1="32.4" x2="144.25" y2="32.4"/><line class="cls-2" x1="71.75" y1="18" x2="144.25" y2="18"/><line class="cls-2" x1="71.75" y1="3.6" x2="144.25" y2="3.6"/><line class="cls-2" x1="-0.25" y1="68.4" x2="72.25" y2="68.4"/><line class="cls-2" x1="-0.25" y1="54" x2="72.25" y2="54"/><line class="cls-2" x1="-0.25" y1="39.6" x2="72.25" y2="39.6"/><line class="cls-2" x1="-0.25" y1="25.2" x2="72.25" y2="25.2"/><line class="cls-2" x1="-0.25" y1="10.8" x2="72.25" y2="10.8"/><line class="cls-2" x1="-0.25" y1="61.2" x2="72.25" y2="61.2"/><line class="cls-2" x1="-0.25" y1="46.8" x2="72.25" y2="46.8"/><line class="cls-2" x1="-0.25" y1="32.4" x2="72.25" y2="32.4"/><line class="cls-2" x1="-0.25" y1="18" x2="72.25" y2="18"/><line class="cls-2" x1="-0.25" y1="3.6" x2="72.25" y2="3.6"/><line class="cls-2" x1="-72.25" y1="68.4" x2="0.25" y2="68.4"/><line class="cls-2" x1="-72.25" y1="54" x2="0.25" y2="54"/><line class="cls-2" x1="-72.25" y1="39.6" x2="0.25" y2="39.6"/><line class="cls-2" x1="-72.25" y1="25.2" x2="0.25" y2="25.2"/><line class="cls-2" x1="-72.25" y1="10.8" x2="0.25" y2="10.8"/><line class="cls-2" x1="-72.25" y1="61.2" x2="0.25" y2="61.2"/><line class="cls-2" x1="-72.25" y1="46.8" x2="0.25" y2="46.8"/><line class="cls-2" x1="-72.25" y1="32.4" x2="0.25" y2="32.4"/><line class="cls-2" x1="-72.25" y1="18" x2="0.25" y2="18"/><line class="cls-2" x1="-72.25" y1="3.6" x2="0.25" y2="3.6"/></pattern><pattern id="_10_lpi_80_7" data-name="10 lpi 80%" width="72" height="72" patternTransform="matrix(1.11, 0.16, -0.16, 1.2, -194.94, 103.87)" patternUnits="userSpaceOnUse" viewBox="0 0 72 72"><rect class="cls-1" width="72" height="72"/><line class="cls-2" x1="71.75" y1="68.4" x2="144.25" y2="68.4"/><line class="cls-2" x1="71.75" y1="54" x2="144.25" y2="54"/><line class="cls-2" x1="71.75" y1="39.6" x2="144.25" y2="39.6"/><line class="cls-2" x1="71.75" y1="25.2" x2="144.25" y2="25.2"/><line class="cls-2" x1="71.75" y1="10.8" x2="144.25" y2="10.8"/><line class="cls-2" x1="71.75" y1="61.2" x2="144.25" y2="61.2"/><line class="cls-2" x1="71.75" y1="46.8" x2="144.25" y2="46.8"/><line class="cls-2" x1="71.75" y1="32.4" x2="144.25" y2="32.4"/><line class="cls-2" x1="71.75" y1="18" x2="144.25" y2="18"/><line class="cls-2" x1="71.75" y1="3.6" x2="144.25" y2="3.6"/><line class="cls-2" x1="-0.25" y1="68.4" x2="72.25" y2="68.4"/><line class="cls-2" x1="-0.25" y1="54" x2="72.25" y2="54"/><line class="cls-2" x1="-0.25" y1="39.6" x2="72.25" y2="39.6"/><line class="cls-2" x1="-0.25" y1="25.2" x2="72.25" y2="25.2"/><line class="cls-2" x1="-0.25" y1="10.8" x2="72.25" y2="10.8"/><line class="cls-2" x1="-0.25" y1="61.2" x2="72.25" y2="61.2"/><line class="cls-2" x1="-0.25" y1="46.8" x2="72.25" y2="46.8"/><line class="cls-2" x1="-0.25" y1="32.4" x2="72.25" y2="32.4"/><line class="cls-2" x1="-0.25" y1="18" x2="72.25" y2="18"/><line class="cls-2" x1="-0.25" y1="3.6" x2="72.25" y2="3.6"/><line class="cls-2" x1="-72.25" y1="68.4" x2="0.25" y2="68.4"/><line class="cls-2" x1="-72.25" y1="54" x2="0.25" y2="54"/><line class="cls-2" x1="-72.25" y1="39.6" x2="0.25" y2="39.6"/><line class="cls-2" x1="-72.25" y1="25.2" x2="0.25" y2="25.2"/><line class="cls-2" x1="-72.25" y1="10.8" x2="0.25" y2="10.8"/><line class="cls-2" x1="-72.25" y1="61.2" x2="0.25" y2="61.2"/><line class="cls-2" x1="-72.25" y1="46.8" x2="0.25" y2="46.8"/><line class="cls-2" x1="-72.25" y1="32.4" x2="0.25" y2="32.4"/><line class="cls-2" x1="-72.25" y1="18" x2="0.25" y2="18"/><line class="cls-2" x1="-72.25" y1="3.6" x2="0.25" y2="3.6"/></pattern><pattern id="_10_lpi_80_9" data-name="10 lpi 80%" width="72" height="72" patternTransform="matrix(1.11, 0.16, -0.16, 1.2, -210.24, 138.47)" patternUnits="userSpaceOnUse" viewBox="0 0 72 72"><rect class="cls-1" width="72" height="72"/><line class="cls-2" x1="71.75" y1="68.4" x2="144.25" y2="68.4"/><line class="cls-2" x1="71.75" y1="54" x2="144.25" y2="54"/><line class="cls-2" x1="71.75" y1="39.6" x2="144.25" y2="39.6"/><line class="cls-2" x1="71.75" y1="25.2" x2="144.25" y2="25.2"/><line class="cls-2" x1="71.75" y1="10.8" x2="144.25" y2="10.8"/><line class="cls-2" x1="71.75" y1="61.2" x2="144.25" y2="61.2"/><line class="cls-2" x1="71.75" y1="46.8" x2="144.25" y2="46.8"/><line class="cls-2" x1="71.75" y1="32.4" x2="144.25" y2="32.4"/><line class="cls-2" x1="71.75" y1="18" x2="144.25" y2="18"/><line class="cls-2" x1="71.75" y1="3.6" x2="144.25" y2="3.6"/><line class="cls-2" x1="-0.25" y1="68.4" x2="72.25" y2="68.4"/><line class="cls-2" x1="-0.25" y1="54" x2="72.25" y2="54"/><line class="cls-2" x1="-0.25" y1="39.6" x2="72.25" y2="39.6"/><line class="cls-2" x1="-0.25" y1="25.2" x2="72.25" y2="25.2"/><line class="cls-2" x1="-0.25" y1="10.8" x2="72.25" y2="10.8"/><line class="cls-2" x1="-0.25" y1="61.2" x2="72.25" y2="61.2"/><line class="cls-2" x1="-0.25" y1="46.8" x2="72.25" y2="46.8"/><line class="cls-2" x1="-0.25" y1="32.4" x2="72.25" y2="32.4"/><line class="cls-2" x1="-0.25" y1="18" x2="72.25" y2="18"/><line class="cls-2" x1="-0.25" y1="3.6" x2="72.25" y2="3.6"/><line class="cls-2" x1="-72.25" y1="68.4" x2="0.25" y2="68.4"/><line class="cls-2" x1="-72.25" y1="54" x2="0.25" y2="54"/><line class="cls-2" x1="-72.25" y1="39.6" x2="0.25" y2="39.6"/><line class="cls-2" x1="-72.25" y1="25.2" x2="0.25" y2="25.2"/><line class="cls-2" x1="-72.25" y1="10.8" x2="0.25" y2="10.8"/><line class="cls-2" x1="-72.25" y1="61.2" x2="0.25" y2="61.2"/><line class="cls-2" x1="-72.25" y1="46.8" x2="0.25" y2="46.8"/><line class="cls-2" x1="-72.25" y1="32.4" x2="0.25" y2="32.4"/><line class="cls-2" x1="-72.25" y1="18" x2="0.25" y2="18"/><line class="cls-2" x1="-72.25" y1="3.6" x2="0.25" y2="3.6"/></pattern><pattern id="_10_lpi_80_11" data-name="10 lpi 80%" width="72" height="72" patternTransform="matrix(0.74, -0.43, 0.65, 1.02, 36.75, 209.07)" patternUnits="userSpaceOnUse" viewBox="0 0 72 72"><rect class="cls-1" width="72" height="72"/><line class="cls-2" x1="71.75" y1="68.4" x2="144.25" y2="68.4"/><line class="cls-2" x1="71.75" y1="54" x2="144.25" y2="54"/><line class="cls-2" x1="71.75" y1="39.6" x2="144.25" y2="39.6"/><line class="cls-2" x1="71.75" y1="25.2" x2="144.25" y2="25.2"/><line class="cls-2" x1="71.75" y1="10.8" x2="144.25" y2="10.8"/><line class="cls-2" x1="71.75" y1="61.2" x2="144.25" y2="61.2"/><line class="cls-2" x1="71.75" y1="46.8" x2="144.25" y2="46.8"/><line class="cls-2" x1="71.75" y1="32.4" x2="144.25" y2="32.4"/><line class="cls-2" x1="71.75" y1="18" x2="144.25" y2="18"/><line class="cls-2" x1="71.75" y1="3.6" x2="144.25" y2="3.6"/><line class="cls-2" x1="-0.25" y1="68.4" x2="72.25" y2="68.4"/><line class="cls-2" x1="-0.25" y1="54" x2="72.25" y2="54"/><line class="cls-2" x1="-0.25" y1="39.6" x2="72.25" y2="39.6"/><line class="cls-2" x1="-0.25" y1="25.2" x2="72.25" y2="25.2"/><line class="cls-2" x1="-0.25" y1="10.8" x2="72.25" y2="10.8"/><line class="cls-2" x1="-0.25" y1="61.2" x2="72.25" y2="61.2"/><line class="cls-2" x1="-0.25" y1="46.8" x2="72.25" y2="46.8"/><line class="cls-2" x1="-0.25" y1="32.4" x2="72.25" y2="32.4"/><line class="cls-2" x1="-0.25" y1="18" x2="72.25" y2="18"/><line class="cls-2" x1="-0.25" y1="3.6" x2="72.25" y2="3.6"/><line class="cls-2" x1="-72.25" y1="68.4" x2="0.25" y2="68.4"/><line class="cls-2" x1="-72.25" y1="54" x2="0.25" y2="54"/><line class="cls-2" x1="-72.25" y1="39.6" x2="0.25" y2="39.6"/><line class="cls-2" x1="-72.25" y1="25.2" x2="0.25" y2="25.2"/><line class="cls-2" x1="-72.25" y1="10.8" x2="0.25" y2="10.8"/><line class="cls-2" x1="-72.25" y1="61.2" x2="0.25" y2="61.2"/><line class="cls-2" x1="-72.25" y1="46.8" x2="0.25" y2="46.8"/><line class="cls-2" x1="-72.25" y1="32.4" x2="0.25" y2="32.4"/><line class="cls-2" x1="-72.25" y1="18" x2="0.25" y2="18"/><line class="cls-2" x1="-72.25" y1="3.6" x2="0.25" y2="3.6"/></pattern><linearGradient id="linear-gradient-3" x1="345.81" y1="75.25" x2="311.58" y2="75.25" gradientUnits="userSpaceOnUse"><stop offset="0" stop-color="#0e666c"/><stop offset="0.3" stop-color="#0f6369"/><stop offset="0.52" stop-color="#115b60"/><stop offset="0.7" stop-color="#154d51"/><stop offset="0.86" stop-color="#1b383b"/><stop offset="1" stop-color="#222223"/><stop offset="1"/></linearGradient></defs><title>Asset 10</title><g id="Layer_2" data-name="Layer 2"><g id="group"><g id="wing_left"><path id="wing_left-2" data-name="wing_left" class="cls-3" d="M696.32,118.66c-5.26-28.16,45.32-45.46,56-74.07S758.94,18,758.94,18c18.76,12.89-2.76,57.81-8.15,68.32a.33.33,0,0,0,.54.37c9.47-10.51,11.28-16.93,17.26-31.09C773.79,67.33,756,94,749.56,103a.33.33,0,0,0,.51.42c17.73-17.74,16.52-28.6,16.52-21.28-.33,17-12.64,27.29-12.64,27.29,15.3,4.66,1.33,16,1.33,16,11.31,19.3-4,27.28-4,27.28,11.31,10.65-6,14.64-6,14.64,6,25.95-15.31,21.3-15.31,21.3C726.66,207.29,708,200,708,200,675.42,172,696.32,118.66,696.32,118.66Z"/><path id="wing_cap_left" class="cls-4" d="M710,89.5s10-5.76,12.64-2.66c3.55,4.21-8,16.64-8,16.64s12.33,1.73,12.64,6c.27,3.78-10,7.32-10,7.32s7.2,5.52,6.65,8.65c-.43,2.49-6.65,4-6.65,4s2.5,8.25.66,11.31c-2.29,3.85-11.93,1.51-11.93,1.51s.78,7.3-1.38,8.47c-4,2.2-14.09-8.47-14.09-8.47,3.45-20.8,6.17-24.13,6.17-24.13C692.06,102.81,710,89.5,710,89.5Z"/></g><g id="body"><path id="body_main" class="cls-5" d="M619.45,264.67c18.7,15.89,88.3,12.05,101.94-8.38,8.23-12.34-3.83-44.51-5.11-59.34-1.85-21.52-25.27-37.47-46.57-35.64l-20.17,1.74a38.91,38.91,0,0,0-35.2,42.28C615.62,220.16,608.17,255.07,619.45,264.67Z"/><path id="body_ruffle1" class="cls-4" d="M754.82,323.41c-6.22-13-17.17-38.26-22.85-41.19-49.35,50.69-126.06,14.65-126.06,14.65l-12.72,26.54Z"/><path id="body_ruffle2" class="cls-6" d="M610.62,277,595,308.85c-1.7,1.76.54,4.41,3,3.5l7.8-3c2.46-.94,5.08,1.22,4.21,3.47h0c-.76,1.94,1.68,3.72,3.66,2.68l9.25-4.85a11.72,11.72,0,0,1,13.92,2.48l3.65,4.12a2.75,2.75,0,0,0,3.12.65l13-5.89a11.83,11.83,0,0,1,12,1.49l11,8.79a2.75,2.75,0,0,0,3.34,0l10.88-8.85a11.64,11.64,0,0,1,13.58-.42L718,320.16a2.63,2.63,0,0,0,3.62-.6l5.38-8.28c2.68-4.14,8.54-5.71,13.55-3.62l8.46,3.53c2.36,1,4.53-1.42,3-3.28-3.32-3.92-18.15-40.28-24.89-43.69C681.66,309.69,610.62,277,610.62,277Z"/><path id="body_ruffle1-2" data-name="body_ruffle1" class="cls-4" d="M615.2,257.53l-14.61,29.83c-1.59,1.64.5,4.13,2.76,3.27l7.31-2.78c2.3-.88,4.75,1.15,3.94,3.25h0c-.71,1.82,1.57,3.48,3.43,2.51l8.67-4.55a11,11,0,0,1,13,2.33l3.42,3.86a2.55,2.55,0,0,0,2.92.6l12.19-5.51a11.06,11.06,0,0,1,11.27,1.4L679.87,300a2.55,2.55,0,0,0,3.13,0l10.19-8.29a10.93,10.93,0,0,1,12.72-.4l9.91,6.65a2.47,2.47,0,0,0,3.39-.56l5-7.76c2.52-3.88,8-5.35,12.7-3.39l7.93,3.31c2.21.92,4.24-1.33,2.77-3.07-3.1-3.68-17-37.74-23.3-40.93C681.75,288.14,615.2,257.53,615.2,257.53Z"/></g><g id="head"><path id="head_ruffle" class="cls-4" d="M630.37,169.62l-14,13.49a1.48,1.48,0,0,0,1.66,2.37l4.57-2.18a1.81,1.81,0,0,1,2.39,2.34h0a1.45,1.45,0,0,0,2.09,1.8l5.43-3.5a5.91,5.91,0,0,1,8,1.51l2.07,2.8a1.38,1.38,0,0,0,1.8.39l7.62-4.27a5.88,5.88,0,0,1,7,.85l6.29,5.91a1.39,1.39,0,0,0,1.94,0l6.42-6.29a5.93,5.93,0,0,1,7.88-.5l6.05,4.75a1.41,1.41,0,0,0,2.11-.47l3.22-5.81a6.06,6.06,0,0,1,7.91-2.71l4.86,2.31a1.51,1.51,0,0,0,1.76-2.31c-1.87-2.67-9.89-6.3-11.64-10.88Z"/><path id="head_main" class="cls-6" d="M634.67,163.13l-8.84,10.3a1.17,1.17,0,0,0,1.36,1.83l3.7-1.65a1.45,1.45,0,0,1,2,1.81h0a1.18,1.18,0,0,0,1.71,1.4l4.39-2.66a5,5,0,0,1,6.54,1.2l1.69,2.16a1.16,1.16,0,0,0,1.46.31l6.17-3.24a5,5,0,0,1,5.65.69l5.14,4.58a1.18,1.18,0,0,0,1.58,0l5.18-4.79a5,5,0,0,1,6.39-.34l4.94,3.68a1.18,1.18,0,0,0,1.71-.35l2.58-4.45a5,5,0,0,1,6.4-2l4,1.81a1.17,1.17,0,0,0,1.41-1.77c-5.44-7.29-13.81-24.12-.23-48-27.76-45.92-67.42-17.2-65.14,1a13.37,13.37,0,0,1-2.76,10.4c-3.26,3.86-9.4,6.36-20.71-.82a.61.61,0,0,0-.85.82c6,10.47,17.49,12.12,24.13,12.12a.59.59,0,0,1,.12,1.16,26.88,26.88,0,0,1-17.15-1.34.61.61,0,0,0-.68,1c6.89,6.77,13.63,7.61,17.12,7.49a.58.58,0,0,1,.28,1.1c-4.37,2.22-9.52,1.87-12.14,1.48a.6.6,0,0,0-.5,1c4.45,4.43,10,3.9,12.85,3.21A.58.58,0,0,1,634.67,163.13Z"/><path id="mouth" class="cls-7" d="M695.06,137.75c-2.67,6,6.38,8.81,6.38,8.81a16.31,16.31,0,0,1-16.37-6.81h0C684.41,137.08,695.06,137.75,695.06,137.75Z"/><path id="face" class="cls-8" d="M692.11,115.75c29.81,14.16,27.15,29,24.95,34.34a1.2,1.2,0,0,1-2.13.16c-9.52-15.8-15.42-11.79-15.42-11.79a19.33,19.33,0,0,1-13.73-.17c1.84,7.85,11,8.26,15.16,8a.6.6,0,0,1,.38,1.08c-14.23,10.34-31.68,1.06-39.83-4.51a23.44,23.44,0,0,1-8.77-10.76c-7.53-19.32,21.79-23.25,30.82-14a7.59,7.59,0,0,0,3,2C692.24,121.93,692.11,115.75,692.11,115.75Z"/><ellipse id="cere" class="cls-9" cx="692.12" cy="118.66" rx="2.53" ry="3.61" transform="translate(73.85 451.61) rotate(-38.03)"/><ellipse id="nostril" cx="706.08" cy="133.56" rx="0.67" ry="1" transform="translate(487.84 818.22) rotate(-83.03)"/><g id="eye"><ellipse id="eye_main" cx="670.08" cy="129.16" rx="5.99" ry="7.32" transform="matrix(0.12, -0.99, 0.99, 0.12, 460.58, 778.62)"/><g id="eye_highlights"><circle id="eye_highlight2" class="cls-10" cx="666.94" cy="127.44" r="2"/><circle id="eye_highlight1" class="cls-10" cx="672.85" cy="131.18" r="1"/></g></g></g><g id="microphone"><path id="microphone_head" class="cls-11" d="M700.23,175.29h0c3-2.94,4.76-6,1.74-8.95l-1.74-1.71a7.87,7.87,0,0,0-10.93,0h0a7.4,7.4,0,0,0,0,10.66l1.75,1.7C694.06,179.94,697.21,178.23,700.23,175.29Z"/><path id="microphone_body" class="cls-11" d="M728.64,203h0c1.55-1.52,2.49-3.12,1-4.71L704.3,171.63c-2.13-2.28-3.15.2-5.39,2.38h0c-2.23,2.18-4.77,3.18-2.44,5.25L723.81,204C725.44,205.43,727.08,204.52,728.64,203Z"/><path id="microphone_head_line" class="cls-12" d="M690.69,176.65c-1.31-1.28.21-4.57,3.23-7.51h0c3-2.95,6.39-4.43,7.7-3.15l-.9-.88c-1.31-1.28-4.69.2-7.71,3.15h0c-3,2.94-4.53,6.23-3.22,7.51Z"/><path id="microphone_body_line" class="cls-12" d="M696.51,179.34c-1.06-1,.31-3.14,2.48-5.26h0c2.17-2.12,4.33-3.45,5.39-2.41l-.73-.71c-1.06-1-3.22.29-5.39,2.41h0c-2.17,2.12-3.54,4.23-2.48,5.26Z"/><path id="microphone_body_line2" class="cls-13" d="M700.27,182.5c-.95-.93,0-3.3,2-5.3h0c2.05-2,4.48-2.87,5.43-1.95"/></g><g id="wing_right"><path id="wing_main_right" class="cls-14" d="M711.82,200.84c3.7,6.49-13.83,17.75-18,20.07a.52.52,0,0,0,0,1c3.73,2.44,14.55-1.61,14.89-1.95,3,6.33-15.24,20.21-19.76,24.48a1.15,1.15,0,0,0,0,1.64c1.31,1.35,3.48,4.83,1.82,6.49-2,2-7.18,2.26-11.44,2.52a1,1,0,0,0-.92,1c0,4.06-2.61,8.81-4.53,11.07a6.05,6.05,0,0,1-4.4,1.91c-5.66.49-15.18-2.3-17.25-2.45a1.14,1.14,0,0,0-1.07.57c-1,1.84-4.18,7.11-6.31,7.36-2.74.32-8.27-5.4-10.07-7.35a1.14,1.14,0,0,0-1.34-.25c-2.32,1.16-9.26,4.43-11.88,3.61-3.76-1.18-9.32-11-10.89-13.85a1.15,1.15,0,0,0-1.28-.57c-1.91.47-6.42,1.43-7.79.44s-1.87-6.13-2-7.59a1.17,1.17,0,0,0-.3-.69c-22.71-24.57,15.58-54.94,15.58-54.94,2.66,8.65,69.87,35.94,98.82-33.6,9.36,4.48-17.64,37.6-17.64,37.6s9-5.66,20-18.64c5.38,4.67-9.91,20.09-17.41,27.09a.48.48,0,0,0,.58.77S705,206.29,711.82,200.84Z"/><path id="wing_cap_right" class="cls-4" d="M602.08,206.55c-2.52,10.72,6.13,7.39,6.13,7.39,2,14,14.64,4,14.64,4,9,9,14.64-.67,14.64-.67,14,5.32,7.32-5.32,7.32-5.32,15.67,2.5,15.54-6.4,6.74-6.43a49.89,49.89,0,0,1-6.92-.32c-24.77-3.57-29.76-12.55-29.76-12.55C605.55,196.64,602.08,206.55,602.08,206.55Z"/></g><path id="tail-2" data-name="tail" class="cls-15" d="M176.09,317c83.13-110-35.23-154.92-6.85-172.67,3.45-2.16,6.24-5.28,6.3-9.28.12-8.18-7.69-12.79-16.2-12.33a21.53,21.53,0,0,0-14.68,7.19c-19.54,21.49,16,42.58,23.7,51.76,54.39,69.32-.62,122.37-.62,122.37Z"/><g class="cls-16"><g id="stripes"><polygon class="cls-17" points="180.19 175.21 167.38 182.77 171.95 189.28 186.47 183.09 180.19 175.21"/><polygon class="cls-18" points="196.64 199.72 180.03 205.08 183.33 213.57 201.11 208.3 196.64 199.72"/><polygon class="cls-19" points="207.28 227.67 187.24 234.86 190.32 243.47 211.74 236.26 207.28 227.67"/><polygon class="cls-20" points="206.95 263.63 186.14 259.12 184.2 268.06 206.18 273.28 206.95 263.63"/><polygon class="cls-21" points="191.65 298.23 170.84 293.73 168.9 302.66 190.88 307.88 191.65 298.23"/><path class="cls-22" d="M165.24,153.29l-19.49,8.52,7.7,7.51s.3-.37,15.3-8.07C167.53,160.05,165.24,153.29,165.24,153.29Z"/></g></g><path id="body-2" data-name="body" class="cls-23" d="M154.53,177.55c-2.86,105.53,20.08,122.81,20.08,122.81,10,11.54,5,18.06-1.73,21.62-5.79,3.08-12.4,2.17-19,1.95-48-1.67-72.68-1.06-72.68-1.06-45.74,0-33.38-21.71-33.38-21.71,3.09-4.14,3-5.93,2.57-6.69a10.86,10.86,0,0,1-1.61-3.83c-1.15-6.73,1-15.09,3.33-21.53a55.9,55.9,0,0,0,2.11-31c-4.85-22.08-15.67-44.88-15.67-44.88C39.41,191.36,96.9,126.89,154.53,177.55Z"/><path id="body_pocket" class="cls-8" d="M63,268c-2.19,10.61-.46,23.94.12,27.77a2,2,0,0,0,1.17,1.53c31.52,13.91,72.54,10.32,86,8.62a2,2,0,0,0,1.34-3.18c-4.67-6-5.81-19.2-6.06-23.67a2,2,0,0,0-1.62-1.83c-57.65-11.84-74.76-11.44-79.24-10.83A2,2,0,0,0,63,268Z"/><path id="upperarm_left" class="cls-8" d="M22.76,227.16h0a16.89,16.89,0,0,1-.65-24.29L52.18,172a17.94,17.94,0,0,1,24.91-.64h0a16.89,16.89,0,0,1,.65,24.29L47.67,226.52A17.94,17.94,0,0,1,22.76,227.16Z"/><path id="lowerarm_left" class="cls-6" d="M9.58,196.67,15.13,191c5.17-5.31,14.19-5.13,20.15.4L48.91,204c6,5.53,6.59,14.31,1.42,19.61l-5.54,5.69c-5.18,5.3-14.2,5.13-20.16-.4L11,216.28C5.05,210.75,4.41,202,9.58,196.67Z"/><g id="hand_left"><path class="cls-15" d="M38.63,192.6a23,23,0,0,0-32,0h0a21.68,21.68,0,0,0,0,31.21l7,6.83a7.2,7.2,0,0,0,5.94,2.05l.5-.08a8.26,8.26,0,0,0,5.77-4.53,7.24,7.24,0,0,0,.47-5.43l-1-1c.27.13.54.25.83.36a7.43,7.43,0,0,0-.37-.81l1,1a7.85,7.85,0,0,0,5.59-.47,8.35,8.35,0,0,0,4-3.88,7.32,7.32,0,0,0,.48-5.46l-1.05-1a6.71,6.71,0,0,0,.83.36,7.43,7.43,0,0,0-.37-.81l1,1a7.83,7.83,0,0,0,4.3,0,8.15,8.15,0,0,0,6.07-7.81v-.09a6.67,6.67,0,0,0-2.05-4.53Z"/><path d="M35,216.94c1.94.35,3.25,7,3.25,7a.6.6,0,0,1-.8.78s-6.84-1.27-7.2-3.17C29.91,220,33.31,216.65,35,216.94Z"/><path d="M45.47,206.7c1.94.34,3.25,7,3.25,7a.6.6,0,0,1-.81.78s-6.83-1.27-7.19-3.16C40.42,209.72,43.82,206.4,45.47,206.7Z"/><path d="M24.46,227.19c1.94.35,3.24,7,3.24,7a.6.6,0,0,1-.8.78s-6.84-1.28-7.19-3.17C19.41,230.21,22.8,226.9,24.46,227.19Z"/></g><g id="headphones"><ellipse id="headphones_right" class="cls-4" cx="103.15" cy="197.05" rx="15.45" ry="15.07"/><path id="headphone_main" class="cls-5" d="M106.44,196.08a3.76,3.76,0,0,0,5.37,2.76c8.56-4,15.31-10.75,18.34-19.34,6.3-17.85-5.84-37-27.12-42.74s-43.65,4-49.95,21.88a29,29,0,0,0,.72,21.15,4.44,4.44,0,0,0,6.39,2.13h0a5.36,5.36,0,0,0,2.57-5.63,23.75,23.75,0,0,1,1-12.28c4.71-13.33,19.13-19,35-14.73s23.59,16.45,18.89,29.78a26,26,0,0,1-9.45,12.5,4.54,4.54,0,0,0-1.82,4.52Z"/><ellipse id="headphones_left" class="cls-4" cx="60.19" cy="181.98" rx="15.45" ry="15.07"/><ellipse id="headphones_left_inside" class="cls-5" cx="60.19" cy="181.98" rx="6.8" ry="6.63"/></g><path id="upperarm_right" class="cls-8" d="M155.15,270.47h0a17.49,17.49,0,0,1-18.9-15.84l-4.72-60.77a17.33,17.33,0,0,1,16.24-18.43h0a17.47,17.47,0,0,1,18.89,15.83L171.39,252A17.33,17.33,0,0,1,155.15,270.47Z"/><g id="head-2" data-name="head"><path id="head_main-2" data-name="head_main" class="cls-15" d="M101.62,122.42c20.18-10.75,30.82,4.45,32.09,6.42a.36.36,0,0,1,0,.41c-5.92,8.2-9.86,10-11.23,10.38a.37.37,0,0,0-.21.57l5.17,7.6a.38.38,0,0,1-.37.58l-4-.44a.38.38,0,0,0-.27.69l2.27,1.54a.38.38,0,0,1-.16.68l-1.25.23a12,12,0,0,0-6.72,3.67,146.88,146.88,0,0,0-16.61,21.45,12.81,12.81,0,0,1-5.77,5.05c-3.93,1.67-6.88,1.12-9-.06-2.47-1.38-4.39-3.93-4.27-6.71.7-16-14.52-27.39-14.54-27.38-26.14,4.65-5.91-36.9-1.06-37.76h0c22.9-5.19,33.93,10.59,35.44,13A.39.39,0,0,0,101.62,122.42Z"/><g id="hat"><path id="hat_main" class="cls-8" d="M120.81,127.51c.21-44.74-72.13-49-58.09-16C91.57,120.16,120.81,127.51,120.81,127.51Z"/><g id="cat_logo"><path class="cls-24" d="M91.66,107.36a4.8,4.8,0,0,1-6.25,1.8A6.52,6.52,0,0,1,83,106.64a8.88,8.88,0,0,1-1.16-3.17,5.5,5.5,0,0,1,7.1-6,5.25,5.25,0,0,1,1.57.83,4.71,4.71,0,0,1,1.12,1.29.1.1,0,0,1,0,.13.17.17,0,0,1-.1,0,5.93,5.93,0,0,0-5.46-.35A5.55,5.55,0,0,0,84,100.94a6.22,6.22,0,0,0-1.13,2.53,3.72,3.72,0,0,0,.67,2.84A4.4,4.4,0,0,0,86,107.77a7,7,0,0,0,5.54-.54.1.1,0,0,1,.13,0A.08.08,0,0,1,91.66,107.36Z"/></g><path id="hat_flap" class="cls-23" d="M97.13,121.23C65.62,78.3,29.6,92.67,48.71,118.81a8.15,8.15,0,0,0,8.34,3.06C77.53,117.34,97.13,121.23,97.13,121.23Z"/></g><g id="whiskers_left"><path d="M52.87,142.59c-1.42.8-2.87,1.55-4.27,2.38s-2.8,1.66-4.14,2.6a87.13,87.13,0,0,0-7.85,5.83,85,85,0,0,0-7.13,6.69,58.3,58.3,0,0,0-6.16,7.6,57.56,57.56,0,0,1,6-7.72,85.87,85.87,0,0,1,7-6.86,88.47,88.47,0,0,1,7.78-6c1.33-1,2.74-1.8,4.12-2.7s2.83-1.65,4.25-2.48a.37.37,0,0,1,.5.14.35.35,0,0,1-.13.5h0Z"/><path d="M50.45,140,46,141.39c-1.45.55-2.93,1-4.36,1.63s-2.88,1.15-4.27,1.84l-2.11,1-2.06,1.07a67.32,67.32,0,0,0-7.9,4.94,38.14,38.14,0,0,0-6.84,6.29,37.67,37.67,0,0,1,6.73-6.44A65.35,65.35,0,0,1,33,146.6l2.05-1.12,2.1-1c1.38-.72,2.83-1.3,4.26-1.94s2.9-1.14,4.35-1.72l4.43-1.52a.37.37,0,0,1,.24.71h0Z"/><path d="M50,138.21a102.91,102.91,0,0,0-10.39.15,99.57,99.57,0,0,0-10.33,1.19,100.68,100.68,0,0,0-10.17,2.22,77.84,77.84,0,0,0-9.87,3.32,80.71,80.71,0,0,1,9.82-3.5,103.93,103.93,0,0,1,10.15-2.41,100.25,100.25,0,0,1,10.36-1.38A104,104,0,0,1,50,137.47a.37.37,0,1,1,0,.74h0Z"/></g><g id="whiskers_right"><path d="M74.86,139.18c1.62.29,3.24.53,4.85.86s3.21.66,4.79,1.11a92.55,92.55,0,0,1,9.37,2.95,87.69,87.69,0,0,1,9,4,57.63,57.63,0,0,1,8.33,5.18,58.12,58.12,0,0,0-8.41-5,84.85,84.85,0,0,0-9-3.83,89.28,89.28,0,0,0-9.38-2.76c-1.57-.41-3.18-.68-4.78-1s-3.21-.5-4.82-.76h0a.36.36,0,0,1-.31-.42.37.37,0,0,1,.42-.31Z"/><path d="M76.09,135.89l4.68-.11c1.56,0,3.12,0,4.68.11s3.11.16,4.66.35l2.33.25,2.31.35a66.08,66.08,0,0,1,9.11,2.1,37.73,37.73,0,0,1,8.54,3.72,38.15,38.15,0,0,0-8.59-3.55,67.61,67.61,0,0,0-9.11-1.9l-2.31-.3-2.32-.2c-1.54-.17-3.1-.18-4.64-.26s-3.11,0-4.65,0l-4.65.2h0a.37.37,0,1,1,0-.74Z"/><path d="M75.65,134.13c3.27-1.23,6.56-2.39,9.93-3.29a101.87,101.87,0,0,1,10.19-2.27,100.47,100.47,0,0,1,10.37-1.25,80.52,80.52,0,0,1,10.42-.1,78.66,78.66,0,0,0-10.41.29,102.19,102.19,0,0,0-10.31,1.42,99.89,99.89,0,0,0-10.11,2.45c-3.33,1-6.58,2.17-9.8,3.44h0a.38.38,0,0,1-.27-.7Z"/></g><path id="glasses" class="cls-11" d="M70.84,121.07c-5.31-1.91-10.47.84-10.47.84-3-2.06-8.87-.24-12,1A3.77,3.77,0,0,0,46,126c-1.87,19.25,17.64,10.72,14.6-2.92a12.22,12.22,0,0,1,9.35-1s-4.06,16.62,11.37,17.45l5.22-.06a12.76,12.76,0,0,0,12.74-12.63V126a7.21,7.21,0,0,0-7.39-7.11l-16.06.19A6.71,6.71,0,0,0,70.84,121.07Z"/><path id="nose" class="cls-6" d="M65,130.27A46.86,46.86,0,0,0,55.26,132a6.49,6.49,0,0,0,4.5,4.1A13.83,13.83,0,0,0,65,130.27Z"/><path id="ear" class="cls-15" d="M101.12,122.3a.39.39,0,0,0,.5.12c20.18-10.75,30.82,4.45,32.09,6.42a.36.36,0,0,1,0,.41c-5.92,8.2-9.86,10-11.23,10.38a.37.37,0,0,0-.21.57Z"/><g id="inside_ear"><path d="M114.45,129.44a34.94,34.94,0,0,1,5.34-1.6,17.41,17.41,0,0,1,2.81-.35,6.68,6.68,0,0,1,1.46.14,2.19,2.19,0,0,1,.76.3,1,1,0,0,1,.55.88V129l-.16.11a10.83,10.83,0,0,1-2.31,1.27,10.44,10.44,0,0,1-2.52.74v-.51a2.86,2.86,0,0,1,1,.35.89.89,0,0,1,.23.27.59.59,0,0,1,0,.39,1,1,0,0,1-.39.47h0c-.8.28-1.59.59-2.4.86.74-.42,1.5-.79,2.25-1.19l0,0a.69.69,0,0,0,.21-.3c0-.08,0-.1-.11-.17a2.58,2.58,0,0,0-.85-.21l-1.4-.16,1.39-.35a14.21,14.21,0,0,0,2.34-.84,13.16,13.16,0,0,0,2.15-1.26l-.15.27s-.08-.14-.23-.2a1.66,1.66,0,0,0-.52-.21,6,6,0,0,0-1.29-.13,20.91,20.91,0,0,0-2.71.22c-.91.12-1.82.28-2.72.47S115.36,129.28,114.45,129.44Z"/></g><g id="whisker_dots"><ellipse id="whisker_dot1" cx="67.3" cy="137.06" rx="0.46" ry="0.45" transform="matrix(0.98, -0.18, 0.18, 0.98, -22.97, 13.91)"/><ellipse id="whisker_dot2" cx="74.13" cy="140.13" rx="0.46" ry="0.45" transform="translate(-23.4 15.15) rotate(-10.09)"/><ellipse id="whisker_dot3" cx="67.43" cy="141.32" rx="0.46" ry="0.45" transform="matrix(0.98, -0.18, 0.18, 0.98, -23.72, 14)"/></g><g id="whisker_dots-2" data-name="whisker_dots"><ellipse id="whisker_dot1-2" data-name="whisker_dot1" cx="53.92" cy="139.44" rx="0.46" ry="0.45" transform="translate(-23.6 11.6) rotate(-10.09)"/><ellipse id="whisker_dot2-2" data-name="whisker_dot2" cx="58.2" cy="142.35" rx="0.46" ry="0.45" transform="translate(-24.04 12.4) rotate(-10.09)"/></g><path id="mouth-2" data-name="mouth" class="cls-11" d="M81.11,170.57s3,11.93,12.16-1.87c3.3-5,5.13-11.58,2.34-16.81-2.68-5-9.59-8.58-20.31-4.78a11,11,0,0,1-7.37.09c-3.1-1.13-6.6-4-8.17-11.09,0,0,1.52,7.52,6.37,11.11C76.74,153.9,81.11,170.57,81.11,170.57Z"/><path id="tooth_right" class="cls-10" d="M58.26,146.56a70.81,70.81,0,0,0,5.5,4.75.35.35,0,0,0,.56-.31,6.69,6.69,0,0,1,.37-3.63C61.87,148,58.26,146.56,58.26,146.56Z"/><path id="tooth_left" class="cls-10" d="M75.58,147.37c2.72,2.56,3.61,3.39,4.53,4.1a.35.35,0,0,0,.56-.32,17.73,17.73,0,0,1,.17-4.71A13.41,13.41,0,0,0,75.58,147.37Z"/><path id="tongue" class="cls-24" d="M96.41,158.36c-4.57-1-7.24,1.9-8.83,7.08a8.2,8.2,0,0,1-5.85,5.94C85.56,182.33,98.29,165.37,96.41,158.36Z"/><path id="nose_line" class="cls-25" d="M60.24,128.23a8.92,8.92,0,0,1,6.8-.75"/></g><g id="microphone-2" data-name="microphone"><path id="microphone_head-2" data-name="microphone_head" class="cls-11" d="M79.93,184.61h0c-3-3-4.77-6-1.75-9l1.75-1.7a7.87,7.87,0,0,1,10.93,0h0a7.42,7.42,0,0,1,0,10.66l-1.75,1.7C86.09,189.25,83,187.55,79.93,184.61Z"/><path id="microphone_body-2" data-name="microphone_body" class="cls-11" d="M51.52,212.31h0c-1.56-1.52-2.49-3.11-1-4.7l25.34-26.67c2.13-2.27,3.15.21,5.38,2.39h0c2.23,2.17,4.78,3.17,2.45,5.25L56.34,213.29C54.72,214.74,53.08,213.83,51.52,212.31Z"/><path id="microphone_head_line-2" data-name="microphone_head_line" class="cls-12" d="M89.46,186c1.31-1.28-.2-4.58-3.22-7.52h0c-3-2.94-6.39-4.42-7.7-3.14l.9-.88c1.31-1.28,4.68.2,7.7,3.14h0c3,3,4.53,6.24,3.22,7.52Z"/><path id="microphone_body_line-2" data-name="microphone_body_line" class="cls-12" d="M83.65,188.66c1-1-.31-3.14-2.48-5.26h0C79,181.28,76.84,180,75.78,181l.73-.71c1.06-1,3.21.3,5.39,2.42h0c2.17,2.12,3.53,4.22,2.47,5.26Z"/><path id="microphone_body_line2-2" data-name="microphone_body_line2" class="cls-13" d="M79.89,191.81c.94-.92,0-3.29-2-5.29h0c-2.06-2-4.49-2.88-5.43-2"/></g><g id="hand_right"><path class="cls-15" d="M69.48,212.9c8.84,6.59,23.17,6.59,32,0h0c8.84-6.6,8.84-17.29,0-23.88l-7-5.23a8.58,8.58,0,0,0-5.94-1.56,4.26,4.26,0,0,0-.5.06,8.27,8.27,0,0,0-5.78,3.46,4.41,4.41,0,0,0-.46,4.16l1,.78a7.35,7.35,0,0,0-.83-.28,4.83,4.83,0,0,0,.37.62l-1-.78a10.07,10.07,0,0,0-5.59.36,7.71,7.71,0,0,0-4,3,4.41,4.41,0,0,0-.48,4.17l1,.78c-.27-.1-.55-.19-.83-.27a5.63,5.63,0,0,0,.37.62l-1-.78a10.19,10.19,0,0,0-4.3,0c-3.56.77-6.14,3.21-6.07,6v.07a4.69,4.69,0,0,0,2.05,3.46Z"/><path d="M73.15,194.27c-1.94-.26-3.25-5.36-3.25-5.36-.23-.38.29-.77.8-.6,0,0,6.84,1,7.19,2.42C78.2,192,74.8,194.5,73.15,194.27Z"/><path d="M62.64,202.11c-1.94-.26-3.25-5.36-3.25-5.36-.23-.38.3-.77.81-.6,0,0,6.83,1,7.19,2.42C67.69,199.8,64.29,202.34,62.64,202.11Z"/><path d="M83.65,186.43c-1.94-.26-3.24-5.36-3.24-5.36-.23-.38.29-.77.8-.6,0,0,6.84,1,7.19,2.42C88.7,184.12,85.31,186.66,83.65,186.43Z"/></g><path id="lowerarm_right" class="cls-6" d="M166.82,264.6h0c-6.34,7.19-17.84,7.7-25.68,1.13L91,223.7c-7.84-6.57,15.11-32.64,23-26.06l50.16,42C171.94,246.24,173.16,257.4,166.82,264.6Z"/><path id="body_main-2" data-name="body_main" d="M575.21,323.41H424.78c-10.09,0-18.28-9.09-18.28-20.3V240.89c0-47,25.95-57.1,76.72-85.17h33.55c45.45,22.16,76.72,38.13,76.72,85.17v62.22C593.49,314.32,585.31,323.41,575.21,323.41Z"/><path id="neck" class="cls-23" d="M532.86,166c-11.9,12.37-55,8.46-66.72,0-4.05-2.94,8.24-12.36,3.33-17.37,10.62-9.52,50.62-10.47,60.06,0C524.29,153.61,536.32,162.36,532.86,166Z"/><g id="necklace"><path id="bone" class="cls-26" d="M517,204.16H517v-.09h.26a4.06,4.06,0,1,0-4.05-4.06c0,.09,0,.18,0,.27H488c0-.09,0-.18,0-.27a4.06,4.06,0,1,0-4.33,4.05v.09a4.08,4.08,0,1,0,3.92,2.79h25.57a4,4,0,0,0-.21,1.26,4.06,4.06,0,1,0,4.06-4.06Z"/><g id="chain"><g id="chain_right"><rect class="cls-27" x="477.7" y="189.65" width="4.66" height="10.65" rx="1.84" transform="translate(2.73 396.54) rotate(-45)"/><rect class="cls-27" x="473.05" y="183" width="4.66" height="10.65" rx="1.84" transform="translate(-11.09 345.8) rotate(-39.55)"/><rect class="cls-27" x="470.38" y="177.01" width="4.66" height="10.65" rx="1.84" transform="translate(-7.89 342.73) rotate(-39.55)"/><rect class="cls-27" x="468.39" y="170.36" width="4.66" height="10.65" rx="1.84" transform="translate(-4.11 339.94) rotate(-39.55)"/><rect class="cls-27" x="467.72" y="164.37" width="4.66" height="10.65" rx="1.84" transform="translate(-0.44 338.15) rotate(-39.55)"/><rect class="cls-27" x="467.06" y="158.38" width="4.66" height="10.65" rx="1.84" transform="translate(3.22 336.35) rotate(-39.55)"/><rect class="cls-27" x="467.72" y="154.38" width="4.66" height="10.65" rx="1.84" transform="translate(5.91 335.86) rotate(-39.55)"/></g><g id="chain_left"><rect class="cls-27" x="518.51" y="189.65" width="4.66" height="10.65" rx="1.84" transform="translate(751.26 701.14) rotate(-135)"/><rect class="cls-27" x="523.17" y="183" width="4.66" height="10.65" rx="1.84" transform="matrix(-0.77, -0.64, 0.64, -0.77, 810.79, 668.14)"/><rect class="cls-27" x="525.83" y="177.01" width="4.66" height="10.65" rx="1.84" transform="translate(819.32 659.23) rotate(-140.45)"/><rect class="cls-27" x="527.83" y="170.36" width="4.66" height="10.65" rx="1.84" transform="translate(827.09 648.71) rotate(-140.45)"/><rect class="cls-27" x="528.49" y="164.37" width="4.66" height="10.65" rx="1.84" transform="translate(832.08 638.53) rotate(-140.45)"/><rect class="cls-27" x="529.16" y="158.38" width="4.66" height="10.65" rx="1.84" transform="translate(837.07 628.35) rotate(-140.45)"/><rect class="cls-27" x="528.49" y="154.38" width="4.66" height="10.65" rx="1.84" transform="translate(838.44 620.85) rotate(-140.45)"/></g></g></g><g id="drum"><ellipse id="drum_top" class="cls-28" cx="505.99" cy="267.18" rx="49.91" ry="19.96"/><path id="drum_sides" class="cls-29" d="M456.08,301.12c0,11,22.34,20,49.91,20s49.91-8.94,49.91-20V266.51c0,26.62-99.82,26.62-99.82,0Z"/><path id="drum_cap_bottom" class="cls-30" d="M555.56,273.83c0,10.85-22.34,19-49.91,19s-49.9-8.12-49.9-19"/><path id="drum_cap_top" class="cls-30" d="M555.56,296.46c0,10.84-22.34,19-49.91,19s-49.9-8.12-49.9-19"/><g id="drumlines"><rect id="drumline6" class="cls-23" x="484.36" y="284.15" width="6.73" height="39.26" rx="3.37"/><rect id="drumline5" class="cls-23" x="519.63" y="284.15" width="6.73" height="39.26" rx="3.37"/><rect id="drumline4" class="cls-23" x="462.74" y="276.16" width="6.06" height="39.26" rx="3.03"/><rect id="drumline3" class="cls-23" x="541.92" y="276.16" width="6.06" height="39.26" rx="3.03"/><rect id="drumline2" class="cls-23" x="452.03" y="266.85" width="4.85" height="39.26" rx="2.42"/><rect id="drumline1" class="cls-23" x="553.18" y="266.85" width="4.85" height="39.26" rx="2.42"/></g></g><g id="right_side"><rect id="upperarm_right-2" data-name="upperarm_right" class="cls-23" x="546.72" y="172.42" width="52.88" height="122.34" rx="25.51" transform="translate(1191.92 218.89) rotate(156.47)"/><path id="lowerarm_right-2" data-name="lowerarm_right" class="cls-29" d="M605.23,292l2.8-3.09c9.55-10.51,9.55-27.54,0-38l-31.41-34.56c-9.55-10.51-25-10.51-34.59,0l-2.8,3.09c-9.55,10.5-9.55,27.53,0,38L570.64,292A22.93,22.93,0,0,0,605.23,292Z"/><path id="drumstick_right" class="cls-4" d="M511.92,256.27h0a2.18,2.18,0,0,0,3.29,0l74.43-84.06c.61-.67,3.12-1.44,4.31-3.16,1.32-1.91-.72-4.63-2.66-3.52s-2.3,4.53-2.95,5.25l-76.42,81.87A2.74,2.74,0,0,0,511.92,256.27Z"/><g id="hand_right-2" data-name="hand_right"><path id="thumb" class="cls-26" d="M575.32,216.18l-12-13.2a7.62,7.62,0,0,0-11.51,0h0a9.26,9.26,0,0,0-2.3,5.06,7.53,7.53,0,0,0-5.37,1c.81-8.78,7.07-10.5,14-10.5,7.2,0,17.06,11.59,18.45,19.44A9.25,9.25,0,0,0,575.32,216.18Z"/><path id="fingers" class="cls-26" d="M527.05,230.88h0a8,8,0,0,1,4.46-2.53l14,15.37a.33.33,0,0,0,.48,0,.4.4,0,0,0,0-.52l-14.31-15.73a9.61,9.61,0,0,1,2.39-7.2,7.93,7.93,0,0,1,5.67-2.67l14.59,16.06a.32.32,0,0,0,.47,0,.4.4,0,0,0,0-.52L540,216.84a9.46,9.46,0,0,1,2.39-5.72,7.83,7.83,0,0,1,7.1-2.56l13.67,15a.32.32,0,0,0,.47,0,.4.4,0,0,0,0-.52l-13.81-15.18a9.37,9.37,0,0,1,2.22-4.46h0a7.79,7.79,0,0,1,11.74,0L576,216.88a9.78,9.78,0,0,1,0,12.9h0a8.19,8.19,0,0,1-3.12,2.15,9.82,9.82,0,0,1-.87,11.76h0a7.89,7.89,0,0,1-5.89,2.67,9.64,9.64,0,0,1-2.43,6.48h0a7.74,7.74,0,0,1-10.69,1,9.28,9.28,0,0,1-2,3.43h0a7.76,7.76,0,0,1-11.73,0l-12.22-13.44A9.79,9.79,0,0,1,527.05,230.88Z"/></g></g><g id="head-3" data-name="head"><path id="ear_left" class="cls-29" d="M479.74,71.59c-12.5,2.79-18.56,8-21.46,13-5.08,8.62-11.07,17.19-19.61,22.39-71.47,43.58,3.41,121.65,27.88,16.33Z"/><path id="ear_right" class="cls-29" d="M528.83,76.71c11.65,5.31,16.5,11.7,18.32,17.1,3.19,9.48,7.29,19.1,14.58,26,60.94,57.39-28.45,118.32-30.66,10.22Z"/><path id="head_main-3" data-name="head_main" class="cls-26" d="M535.9,116.82h0a17.79,17.79,0,0,1-4.71-14l1.24-11.92A29.73,29.73,0,0,0,506,58.23h0a29.74,29.74,0,0,0-32.66,26.49L472,96.8a17.77,17.77,0,0,1-7.39,12.66l-.19.14a23.32,23.32,0,0,0-3.69,34.81l19.07,13.66a23.31,23.31,0,0,0,30.52,3.25l21.84-9.46A23.33,23.33,0,0,0,535.9,116.82Z"/><path id="mouth-3" data-name="mouth" class="cls-31" d="M529.82,129.64c-1.16,11.14-16.21,24.73-32.84,23s-28.55-18.14-27.39-29.29,15-12.82,31.6-11.09S531,118.49,529.82,129.64Z"/><path id="tongue-2" data-name="tongue" class="cls-6" d="M506.85,131.56c11.1,9.22,10.85,5.18,17.72,9.91,7.15,4.92,1.56,10.71,8.64,16.55a7.93,7.93,0,0,0,8.76,1.22,11.52,11.52,0,0,0,6.53-8.6c3.77-21-26.38-24.15-26.38-24.15l-15.27,5.07"/><g id="teeth"><path id="tooth5" class="cls-32" d="M475.56,129c.29-1.25,4.82-.19,4.53,1.07s-1.86,3.32-3.11,3S475.26,130.26,475.56,129Z"/><path id="tooth4" class="cls-32" d="M521.17,133.76c0-1.28-4.69-1.17-4.66.12s1.13,3.63,2.42,3.6S521.2,135.05,521.17,133.76Z"/><path id="tooth3" class="cls-32" d="M504.1,151.71c-.13,1.28-4.77.79-4.63-.49s1.41-3.53,2.69-3.39S504.23,150.43,504.1,151.71Z"/><path id="tooth2" class="cls-32" d="M499.4,151.89c-.14,1.28-4.77.79-4.64-.49s1.42-3.53,2.7-3.4S499.53,150.61,499.4,151.89Z"/><path id="tooth1" class="cls-32" d="M494.83,150.74c-.13,1.28-4.76.8-4.63-.48s1.42-3.53,2.7-3.4S495,149.46,494.83,150.74Z"/></g><g id="tongue_line"><path d="M540.66,156.86a20.52,20.52,0,0,0,.22-5.07,19.28,19.28,0,0,0-1.15-4.91,23.24,23.24,0,0,0-5.74-8.22,43.84,43.84,0,0,0-8.18-5.92,65.74,65.74,0,0,0-9.14-4.41l0-.07a45.25,45.25,0,0,1,9.45,3.9,37.26,37.26,0,0,1,8.22,6.12,23.64,23.64,0,0,1,5.68,8.48,19.59,19.59,0,0,1,1,5,21.18,21.18,0,0,1-.35,5.09Z"/></g><path id="eyebrow_left" d="M483.28,80.3c7.4.93,9.15,3.14,9.23,4.93a2.24,2.24,0,0,1-3,2.15,47.31,47.31,0,0,1-8.64-4.24,1.76,1.76,0,0,0-1.71,0c-1.25.64-1.26.55-1.34,0-.25-1.82,1.41-2.49,2.78-2.74A8.72,8.72,0,0,1,483.28,80.3Z"/><path id="eyebrow_right" d="M523.53,84.5c-7.43-.62-9.6,1.18-10,2.92a2.24,2.24,0,0,0,2.46,2.71,47.6,47.6,0,0,0,9.33-2.36,1.76,1.76,0,0,1,1.68.3c1.09.88,1.13.8,1.32.26.61-1.73-.87-2.73-2.16-3.26A8.77,8.77,0,0,0,523.53,84.5Z"/><path id="snout" class="cls-4" d="M512.71,85.26c-4,13.93,6.72,21.73,13.81,25.25A12.19,12.19,0,0,1,533.24,124c-3.7,16.44-35.44,8.35-34,.48h-.11c-.21,7.88-32,9.32-33.13-6.77a12.15,12.15,0,0,1,9.22-12.47c7.74-2,19.83-7.4,18.72-22.28a10.67,10.67,0,0,1,5.87-10.49c3.77-1.78,7-.58,9.45,1.39A10.78,10.78,0,0,1,512.71,85.26Z"/><path id="nose-2" data-name="nose" d="M510.74,116.94c.3-2.92-4.19-5.79-10-6.4s-10.84,1.27-11.14,4.19c-.19,1.81,1.58,5.69,4.25,3.53l.61,1.4c-.47,1.55,1.87,3.13,5,3.46s5.71-.75,5.57-2.36l.89-1.25C508,122.18,510.55,118.75,510.74,116.94Z"/><g id="whisker_dots-3" data-name="whisker_dots"><circle id="dot" cx="478.99" cy="123" r="0.67"/><circle id="dot-2" data-name="dot" cx="477.04" cy="116.1" r="0.67"/><circle id="dot-3" data-name="dot" cx="483.01" cy="119.74" r="0.67"/></g><g id="whisker_dots-4" data-name="whisker_dots"><circle id="dot-4" data-name="dot" cx="519.04" cy="127.17" r="0.67"/><circle id="dot-5" data-name="dot" cx="522.37" cy="120.83" r="0.67"/><circle id="dot-6" data-name="dot" cx="515.78" cy="123.15" r="0.67"/></g><g id="eyelash_left"><path d="M490.09,96.77c-.49-.34-.95-.69-1.4-1l-1.39-1a9.56,9.56,0,0,0-2.84-1.23c-1.86-.37-3.67.49-5.81,1.4a21.34,21.34,0,0,1-3.41,1.17,14.13,14.13,0,0,1-3.65.39,9.5,9.5,0,0,1-6.7-2.41,14.11,14.11,0,0,0,6.56.34,22.89,22.89,0,0,0,3.12-.75c1-.33,2-.74,3.05-1.19a19.12,19.12,0,0,1,3.45-1.18,6.94,6.94,0,0,1,4,.25A10.2,10.2,0,0,1,490.09,96.77Z"/></g><g id="eyelash_right"><path d="M513.86,99.25a10.13,10.13,0,0,1,6-4.06,6.94,6.94,0,0,1,4,.58,19.45,19.45,0,0,1,3.13,1.86c.94.66,1.83,1.26,2.74,1.79a22.68,22.68,0,0,0,2.9,1.38,14.1,14.1,0,0,0,6.5,1,9.54,9.54,0,0,1-7.06,1,14.1,14.1,0,0,1-3.49-1.13,21.34,21.34,0,0,1-3.1-1.85c-1.91-1.34-3.5-2.55-5.4-2.57a9.8,9.8,0,0,0-3,.62l-1.56.64C514.93,98.77,514.41,99,513.86,99.25Z"/></g></g><g id="left_side"><rect id="upperarm_left-2" data-name="upperarm_left" class="cls-23" x="400.39" y="172.42" width="52.88" height="122.34" rx="25.51" transform="translate(128.77 -151) rotate(23.53)"/><path id="lowerarm_left-2" data-name="lowerarm_left" class="cls-29" d="M392.49,288.05l-2.31-3.55c-7.86-12.08-5.33-28.88,5.65-37.53L432,218.53c11-8.65,26.26-5.86,34.12,6.22l2.31,3.55c7.86,12.08,5.33,28.88-5.65,37.53l-36.13,28.44C415.62,302.92,400.35,300.13,392.49,288.05Z"/><path id="drumstick_left" class="cls-4" d="M489.86,269.57h0a2.2,2.2,0,0,1-3.25-.59l-60.93-96.32c-.5-.77-2.87-2-3.79-3.89-1-2.13,1.4-4.44,3.15-3s1.59,4.89,2.13,5.71L490.39,266A2.73,2.73,0,0,1,489.86,269.57Z"/><g id="hand_left-2" data-name="hand_left"><path id="thumb-2" data-name="thumb" class="cls-26" d="M433.27,218.61l13.79-10.86a7.68,7.68,0,0,1,11.36,2.07h0a9.51,9.51,0,0,1,1.51,5.41,7.73,7.73,0,0,1,5.16,2c.5-8.81-5.42-11.63-12.24-12.88-7.11-1.29-18.56,8.37-21.09,15.87A8.56,8.56,0,0,1,433.27,218.61Z"/><path id="fingers-2" data-name="fingers" class="cls-26" d="M478.7,241.8h0a8.35,8.35,0,0,0-4-3.3l-16.06,12.65a.32.32,0,0,1-.47-.08.39.39,0,0,1,.08-.51l16.45-12.95a9.89,9.89,0,0,0-1.28-7.54,8.21,8.21,0,0,0-5.2-3.64L451.4,239.64a.31.31,0,0,1-.46-.09A.39.39,0,0,1,451,239l17-13.41a9.74,9.74,0,0,0-1.52-6.08,8,8,0,0,0-6.62-3.8L444.2,228.12a.31.31,0,0,1-.46-.08.38.38,0,0,1,.07-.51L459.69,215a9.64,9.64,0,0,0-1.53-4.8h0a7.82,7.82,0,0,0-11.57-2.11l-14.06,11.07a9.74,9.74,0,0,0-1.92,12.73h0a8.58,8.58,0,0,0,2.76,2.68,9.83,9.83,0,0,0-.89,11.76h0a8.16,8.16,0,0,0,5.42,3.69,9.78,9.78,0,0,0,1.43,6.83h0a7.83,7.83,0,0,0,10.4,2.87,9.6,9.6,0,0,0,1.42,3.74h0a7.83,7.83,0,0,0,11.58,2.11l14-11.07A9.71,9.71,0,0,0,478.7,241.8Z"/></g></g><path id="body_main-3" data-name="body_main" class="cls-23" d="M265.24,141.48c38.49,13.15,94.16,9.2,112.91,108.47,2.65,14,3.76,72-10.48,72.4-38.71,1.06-91.28,1.06-163.17,0-13.43-.2-20.38-68.41-16.88-81.38C198.12,202,224,127.38,265.24,141.48Z"/><g id="hair"><g id="hair_strand1"><path class="cls-33" d="M280.65,73.32c-.73.11-1.47.19-2.2.34a17.81,17.81,0,0,0-2.14.58,17.1,17.1,0,0,0-4,1.89A16.21,16.21,0,0,0,268.92,79a14.14,14.14,0,0,0-2.45,3.74,14.25,14.25,0,0,1,2.33-3.84,16.14,16.14,0,0,1,3.32-3.07,17.49,17.49,0,0,1,4-2.08,18.3,18.3,0,0,1,2.18-.67c.74-.18,1.5-.29,2.24-.43Z"/></g><g id="hair_strand2"><path class="cls-33" d="M280.2,73.63a4.13,4.13,0,0,0-2.9.46,8.9,8.9,0,0,0-2.46,2,18,18,0,0,0-1.92,2.58c-.57.92-1.05,1.88-1.53,2.85.43-1,.87-2,1.4-2.93a18,18,0,0,1,1.81-2.71,9.2,9.2,0,0,1,2.48-2.16,4.54,4.54,0,0,1,3.33-.65Z"/></g><path id="hair_main" class="cls-5" d="M280,73c-15.68-23.8,13.22-39.45,13.22-39.45C344.68-48.81,449.54,31,348.15,158.66a54.21,54.21,0,0,1-4.68,5.23c-21.15,20.35.48,52.58.48,52.58,20.29,32.61-16.6,52.83-16.6,52.83,20.7-29.61,11.09-44.88,4.45-50.93a48.54,48.54,0,0,1-12.37-17.54c-6.66-16.5-5.8-32.84-4.19-42.88A61.8,61.8,0,0,0,311,124l-.19-.45a21.76,21.76,0,0,0-6.49-8.41C282.17,97.5,280,73,280,73Z"/><path id="scrunchie" class="cls-23" d="M302.13,18.22c-4.92-3.26-7.38,2.61-7.38,2.61-8,.65-4.3,6.52-4.3,6.52-3.07,7.17,3.07,6.52,3.07,6.52,1.85,4.57,8,0,8,0,4.3,3.26,6.76.65,6.76.65,5.54,5.87,8,.66,8,.66,6.15,2.6,7.38-2.61,7.38-2.61,5.53-.65,3.75-6.36,3.75-6.36.55-7.34-5-4.08-5-4.08-2.46-3.91-6.15-1.3-6.15-1.3-3.08-4.57-7.38-.65-7.38-.65C305.21,15,302.13,18.22,302.13,18.22Z"/></g><g id="guitar"><path id="guitar_main" class="cls-5" d="M281.76,203.26A30.58,30.58,0,0,1,263,216.47a25.73,25.73,0,0,1-7.1.67c-87.79-9-9.26,151.49,34.4,65.06l1.52-2.41c6.81-8.59,14.42-10.49,18.22-10.87a43,43,0,0,0,8.47-1.67c20.57-6.48,15.43-16.7,15.43-16.7-.66-4.12-8.3-.55-8.3-.55l-.46.11c-10.2,2.34-15.56-12.31-6.54-17.86l89.87-55.56s.6,0,.62,0c3.41-4.49,6.89-3.48,9.31-2.05a5.12,5.12,0,0,0,5.72-.27,181.13,181.13,0,0,0,14-12.29,4,4,0,0,1,3.71-1c11.57,2.74,11.94-13.57,4.7-12.7h0L405.43,158a3.49,3.49,0,0,0-2.49,2.39l-1.13,3.64h0l-84.29,51.76h0c-12,5.59-17.84-14.35-3.42-22.64,10.78-6.2,5.26-9.82-.52-9.85a32,32,0,0,0-19.69,6.92A55,55,0,0,0,281.76,203.26Z"/><g id="knobs"><polygon class="cls-34" points="418.19 154.84 415.19 155.56 414.92 154.28 417.91 153.56 418.19 154.84"/><ellipse class="cls-34" cx="416.28" cy="153.29" rx="2.47" ry="0.98" transform="translate(-24.53 103.56) rotate(-13.78)"/><polygon class="cls-34" points="424.83 153.27 421.83 153.99 421.56 152.72 424.55 152 424.83 153.27"/><ellipse class="cls-34" cx="422.92" cy="151.72" rx="2.47" ry="0.98" transform="translate(-23.97 105.1) rotate(-13.78)"/><polygon class="cls-34" points="431.47 151.71 428.47 152.43 428.2 151.15 431.2 150.43 431.47 151.71"/><ellipse class="cls-34" cx="429.56" cy="150.16" rx="2.47" ry="0.98" transform="translate(-23.4 106.63) rotate(-13.78)"/><polygon class="cls-34" points="438.11 150.14 435.11 150.86 434.84 149.59 437.84 148.87 438.11 150.14"/><ellipse class="cls-34" cx="436.2" cy="148.59" rx="2.47" ry="0.98" transform="translate(-22.84 108.17) rotate(-13.78)"/><polygon class="cls-34" points="444.75 148.57 441.75 149.29 441.48 148.02 444.48 147.3 444.75 148.57"/><ellipse class="cls-34" cx="442.84" cy="147.03" rx="2.47" ry="0.98" transform="translate(-22.27 109.71) rotate(-13.78)"/><polygon class="cls-34" points="411.54 156.4 408.55 157.12 408.27 155.85 411.27 155.13 411.54 156.4"/><ellipse class="cls-34" cx="409.64" cy="154.85" rx="2.47" ry="0.98" transform="translate(-25.09 102.02) rotate(-13.78)"/><ellipse class="cls-35" cx="410.97" cy="160.39" rx="1.54" ry="1.63"/><ellipse class="cls-35" cx="444.18" cy="152.56" rx="1.54" ry="1.63"/><ellipse class="cls-35" cx="437.54" cy="154.13" rx="1.54" ry="1.63"/><ellipse class="cls-35" cx="430.9" cy="155.69" rx="1.54" ry="1.63"/><ellipse class="cls-35" cx="424.26" cy="157.26" rx="1.54" ry="1.63"/><ellipse class="cls-35" cx="417.62" cy="158.82" rx="1.54" ry="1.63"/></g><path id="pattern" class="cls-26" d="M328.58,257.56c1.62-6.19-3.61-4.4-6.65-4.82-17.34-2.36-6.27-18.66-13.65-32.35-.95-1.78-4.92-13-14-3.44-2.54,3-3.79,7.67-10.55,10.61-14.56,6.31-28.91-2-28.91,9.78,0,17.4,15.38,20.87,18.45,32s-3.69,21.52,4.92,22.82c6.56,1,8.23-19.32,18.45-22.82C309.71,264.8,326.56,265.24,328.58,257.56Z"/><path id="fret_board" class="cls-28" d="M303.61,238.78l-4.78-8.71a2.9,2.9,0,0,1,1-3.83L402,163.19l7.44,13.56-102.18,63A2.56,2.56,0,0,1,303.61,238.78Z"/><g id="frets"><polygon class="cls-36" points="406.69 178.4 405.09 179.38 397.89 166.22 399.49 165.24 406.69 178.4"/><polygon class="cls-36" points="308.91 238.4 307.32 239.38 300.12 226.22 301.71 225.24 308.91 238.4"/><polygon class="cls-36" points="315.22 234.76 313.62 235.75 306.27 222.31 307.86 221.33 315.22 234.76"/><polygon class="cls-36" points="322.6 230.2 321 231.18 313.65 217.75 315.24 216.76 322.6 230.2"/><polygon class="cls-36" points="331.2 224.98 329.61 225.97 322.26 212.53 323.85 211.55 331.2 224.98"/><polygon class="cls-36" points="339.81 219.77 338.22 220.75 330.87 207.31 332.46 206.33 339.81 219.77"/><polygon class="cls-36" points="349.5 213.61 347.9 214.6 340.7 201.44 342.3 200.46 349.5 213.61"/><polygon class="cls-36" points="359.95 207.09 358.36 208.07 351.16 194.92 352.75 193.94 359.95 207.09"/><polygon class="cls-36" points="371.63 199.92 370.04 200.9 362.84 187.75 364.44 186.76 371.63 199.92"/><polygon class="cls-36" points="383.32 192.75 381.72 193.73 374.52 180.57 376.12 179.59 383.32 192.75"/><polygon class="cls-36" points="395 185.57 393.41 186.55 386.21 173.4 387.8 172.42 395 185.57"/></g><path id="middle_line1" class="cls-28" d="M297.56,245.84l-6.93-12.64a2.33,2.33,0,0,1,.77-3.08h0a1.43,1.43,0,0,1,2,.57L301,244.51a1.63,1.63,0,0,1-.54,2.15h0A2.06,2.06,0,0,1,297.56,245.84Z"/><path id="middle_line2" class="cls-28" d="M285.27,253l-6.94-12.64a2.35,2.35,0,0,1,.77-3.09h0a1.45,1.45,0,0,1,2,.57l7.58,13.83a1.61,1.61,0,0,1-.54,2.14h0A2,2,0,0,1,285.27,253Z"/><path id="middle_line3" class="cls-28" d="M273,260.19,266,247.55a2.33,2.33,0,0,1,.77-3.08h0a1.43,1.43,0,0,1,2,.56l7.58,13.83a1.63,1.63,0,0,1-.53,2.15h0A2.07,2.07,0,0,1,273,260.19Z"/><ellipse id="nub" class="cls-28" cx="222.81" cy="280.06" rx="1.56" ry="3.22" transform="translate(-100.62 126.86) rotate(-26.15)"/><g id="strings"><line class="cls-37" x1="408.78" y1="175.61" x2="272.67" y2="259.65"/><line class="cls-37" x1="407.23" y1="172.8" x2="271.12" y2="256.83"/><line class="cls-37" x1="424.85" y1="158.15" x2="269.58" y2="254.01"/><line class="cls-37" x1="417.6" y1="158.85" x2="268.03" y2="251.19"/><line class="cls-37" x1="410.7" y1="159.34" x2="266.48" y2="248.37"/></g><path id="strap" d="M236,148c-6.7,49.91,8.42,69,8.42,69l10.39.15c-13.31-31.78-6.06-69.23-4.52-76.23a1.12,1.12,0,0,0-.89-1.38,12.86,12.86,0,0,0-10.59,3.16A8.51,8.51,0,0,0,236,148Z"/></g><g id="neck-2" data-name="neck"><path id="neck_main" class="cls-26" d="M313.82,155.17s-15.38-15.65-1.73-46.5l-6.79-54.9S287.38,72.35,280,73a355,355,0,0,0-21.53,66.52c-1.23,24.78,25.22,37.17,25.22,37.17A50.19,50.19,0,0,0,313.82,155.17Z"/><path id="netting" class="cls-38" d="M287.77,175.06l-7.69-1.21,20.71-5.46-38.16-12.95,50.88-.45S282,159.4,259.4,140.5l43.7,26.1-35.66-2.48L292,173.47"/><path id="necklace-2" data-name="necklace" d="M262.65,123.33c16.12,18.8,43.29,9.59,43.29,9.59l.61-3.26s-27.17,9.21-43.29-9.59Z"/></g><g id="head-4" data-name="head"><path id="head_main-4" data-name="head_main" class="cls-4" d="M342.1,46.92c4.18-16.08,12.23-21,14.45-21.18a.53.53,0,0,1,.55.62c-.69,5.62-5,16.59-7.63,23A19,19,0,0,0,349.05,63a11.74,11.74,0,0,0,1.09,2.33,10.55,10.55,0,0,1,1.27,8.71l-.18.55A38.75,38.75,0,0,0,349,86.9c-.11,14.29,6,22.07,11.36,29a5.46,5.46,0,0,1,.23,6.29l-2.18,3.31c-.11,2-.18,3.36-.23,4.28a1.88,1.88,0,0,1-1.94,1.85c-12.67-.94-19.72-7.15-19.72-7.15.48,5.53,3.42,7.58,6.12,10a1,1,0,0,1-.35,1.75c-8.54,2.48-10.67-8-11.13-11.35a10.53,10.53,0,0,0-1-3.32,23.61,23.61,0,0,0-6.51-7.26,31.64,31.64,0,0,0-11.57-5.63c-20.2-5.35-20-25.43-17.67-38.08a30.76,30.76,0,0,1,14.2-20.9l.28-.17c-2.65-11.23,3.37-21,5.09-23.51a.43.43,0,0,1,.76.08c5.61,12.81,2.76,21.48,2.76,21.48C330.42,31.26,342.1,46.92,342.1,46.92Z"/><g id="nostril_left"><path d="M344.87,123.54c1.23-4.56-.87-6.25-1.84-5.22-1.23,1.31.68,1.45,1.23,2.61A6.9,6.9,0,0,1,344.87,123.54Z"/></g><g id="nostril_right"><path d="M358.63,125.3c-.32-4.71,1.82-6,2.51-4.83.87,1.5-.85,1.31-1.53,2.36A7.44,7.44,0,0,0,358.63,125.3Z"/></g><g id="eye_left"><ellipse id="eye_main-2" data-name="eye_main" class="cls-39" cx="318.12" cy="74.31" rx="4.3" ry="4.57"/><path id="lashes" d="M305.82,67.13c5.54,4.57,8,2,12.3,2s4.61,5.54,4.61,5.54c-2.29-5.53-5.58-4.31-7.45-2.95l0,0a8.67,8.67,0,0,1-8.08,1A22.52,22.52,0,0,1,303.36,71C316.89,75,305.82,67.13,305.82,67.13Z"/><ellipse id="eye_highlight" class="cls-10" cx="316.89" cy="73" rx="1.54" ry="1.63"/></g><g id="eye_right"><ellipse id="eye_main-3" data-name="eye_main" class="cls-39" cx="350.3" cy="79.52" rx="3.87" ry="4.57"/><path id="lashes-2" data-name="lashes" d="M361.37,72.35c-5,4.56-7.2,2-11.07,2s-4.15,5.54-4.15,5.54c2.06-5.53,5-4.31,6.71-2.95l0,0a7.12,7.12,0,0,0,7.27,1,20.11,20.11,0,0,0,3.41-1.68C351.4,80.17,361.37,72.35,361.37,72.35Z"/><ellipse id="eye_highlight-2" data-name="eye_highlight" class="cls-10" cx="351.4" cy="78.22" rx="1.38" ry="1.63"/></g><path id="teeth-2" data-name="teeth" class="cls-10" d="M357.37,131.32c-6.35,5.92-10.65,5.27-10.65,5.27-13.53-8.48-12.92-15.66-12.92-15.66C347.44,133.25,357.37,131.32,357.37,131.32Z"/><path id="teeth_line" class="cls-40" d="M337.51,126.23c9.23,8.64,15.35,7.83,17.24,7.26"/><path id="lips" d="M336.57,118c-3.38,1.63-1.71,2.61-1.54,2.93,11.08,10.92,21.07,10.14,23.37,9.13,1.84,1.31-.31,2.29-.31,2.29-3.69,1.3-9.84-1.31-9.84-1.31a33.39,33.39,0,0,1-14.45-10.11c3,10.22,11,16.54,17.83,14.35.62.65-.61,2-.61,2-7.94,4.49-16.83-10.31-17.49-15.22-1.25-.91.35-4.34,2.85-4Z"/><path id="eyebrow_right-2" data-name="eyebrow_right" d="M342.54,70.07c3.49-9.79,15.11-5.22,15.11-5.22"/><path id="eyebrow_left-2" data-name="eyebrow_left" d="M327.65,66.81c-5.53-9.79-24-5.22-24-5.22"/><path id="bangs" class="cls-41" d="M317.51,47.57c4.75,6.12,21,7.57,12.31,27a43.58,43.58,0,0,1-5.66,9.27c-4.72,6-16,22.2-11.57,36.79a39.1,39.1,0,0,0,1.14,3.82c-1.71-12.32,2.29-24.75,11-33.14,9.21-8.9,24.41-26.64,20.49-43.72-.95-13.84-15.37-27.39-29.44-19C315.66,28,320,37.13,317.51,47.57Z"/></g><g id="leg_right"><path id="lowerleg" class="cls-4" d="M408.77,246.79,361,299.06c-13.69,15.61-40.66-8-27-23.65l66-49.16a6.32,6.32,0,0,1,6.58.75h0A13.84,13.84,0,0,1,408.77,246.79Z"/><path id="upperleg" class="cls-4" d="M406.23,244.81l-1.88,1.08a2.86,2.86,0,0,1-3.94-1.24l-18.16-34.42a3.11,3.11,0,0,1,1.1-4.14l11.53-6.63a2.85,2.85,0,0,1,3.94,1.24l12.72,24.1C415.33,232,413,240.94,406.23,244.81Z"/><path id="hoof" class="cls-42" d="M398.21,199.26,389.84,224l-10.37-4c-7.3-10.88-5-25.78,5.16-33.28Z"/></g><g id="leg_left"><path id="lowerleg-2" data-name="lowerleg" class="cls-4" d="M222.46,316.44,187.8,273.89a35.1,35.1,0,0,1-4.39-37.17c4.27-8.77,9.08-7.92,13-5.61a20.71,20.71,0,0,1,7.53,8l38.52,70.22a7.33,7.33,0,0,1-1.23,6.88h0A12.08,12.08,0,0,1,222.46,316.44Z"/><path id="upperleg-2" data-name="upperleg" class="cls-4" d="M224.52,314l-.87-2.09a3.15,3.15,0,0,1,1.49-4l33.8-15.72a2.82,2.82,0,0,1,3.8,1.57l5.31,12.84a3.13,3.13,0,0,1-1.48,4l-23.67,11C235.85,324.85,227.61,321.44,224.52,314Z"/><path id="hoof-2" data-name="hoof" class="cls-42" d="M268,310.06l-22.55-11.32L250,288.2c10.81-6.61,24.63-2.68,30.87,8.78Z"/></g></g></g></svg>