<svg xmlns="http://www.w3.org/2000/svg" xmlns:xlink="http://www.w3.org/1999/xlink" viewBox="0 0 271.42 323.14"><defs><style>.cls-1{fill:#7f5e9a;}.cls-2{fill:#008260;}.cls-3{fill:#0e666c;}.cls-4{fill:#1e1e1e;}.cls-10,.cls-14,.cls-5,.cls-9{fill:none;stroke-miterlimit:10;}.cls-5{stroke:#1e1e1e;stroke-width:0.16px;}.cls-6{fill:#26aaa3;}.cls-7{fill:#565656;}.cls-8{fill:#ddd;}.cls-9{stroke:#fff;stroke-width:0.9px;}.cls-10,.cls-14{stroke:#000;}.cls-10{stroke-width:0.61px;}.cls-11{fill:#28bfbb;}.cls-12{fill:#0c0c0c;}.cls-13{fill:#fff;}.cls-14{stroke-width:0.17px;}.cls-15{fill:url(#linear-gradient);}.cls-16{fill:#160104;}</style><linearGradient id="linear-gradient" x1="165.83" y1="75.25" x2="131.6" y2="75.25" gradientUnits="userSpaceOnUse"><stop offset="0" stop-color="#0e666c"/><stop offset="0.3" stop-color="#0f6369"/><stop offset="0.52" stop-color="#115b60"/><stop offset="0.7" stop-color="#154d51"/><stop offset="0.86" stop-color="#1b383b"/><stop offset="1" stop-color="#222223"/><stop offset="1"/></linearGradient></defs><title>Asset 2</title><g id="Layer_2" data-name="Layer 2"><g id="horse"><path id="body_main" class="cls-1" d="M85.25,141.48c38.5,13.15,94.17,9.2,112.92,108.47,2.64,14,3.75,72-10.49,72.4-38.71,1.06-91.28,1.06-163.17,0C11.08,322.14,4.13,253.93,7.63,241,18.14,202,44,127.38,85.25,141.48Z"/><g id="hair"><g id="hair_strand1"><path class="cls-2" d="M100.66,73.32c-.73.11-1.47.19-2.19.34a17.81,17.81,0,0,0-2.14.58,17.16,17.16,0,0,0-4,1.89A16.47,16.47,0,0,0,88.93,79a14.14,14.14,0,0,0-2.45,3.74,14.25,14.25,0,0,1,2.33-3.84,16.19,16.19,0,0,1,3.33-3.07,17.29,17.29,0,0,1,4-2.08,18.3,18.3,0,0,1,2.18-.67c.74-.18,1.49-.29,2.24-.43Z"/></g><g id="hair_strand2"><path class="cls-2" d="M100.21,73.63a4.11,4.11,0,0,0-2.89.46,9.09,9.09,0,0,0-2.47,2,17.93,17.93,0,0,0-1.91,2.58c-.57.92-1.06,1.88-1.54,2.85.44-1,.87-2,1.4-2.93a18.81,18.81,0,0,1,1.81-2.71,9.51,9.51,0,0,1,2.48-2.16,4.57,4.57,0,0,1,3.34-.65Z"/></g><path id="hair_main" class="cls-3" d="M100,73c-15.68-23.8,13.22-39.45,13.22-39.45C164.7-48.81,269.56,31,168.17,158.66a53,53,0,0,1-4.69,5.23c-21.14,20.35.48,52.58.48,52.58,20.3,32.61-16.6,52.83-16.6,52.83,20.71-29.61,11.1-44.88,4.46-50.93a48.3,48.3,0,0,1-12.37-17.54c-6.66-16.5-5.81-32.84-4.19-42.88A61.8,61.8,0,0,0,131,124c-.07-.16-.13-.31-.2-.45a21.66,21.66,0,0,0-6.49-8.41C102.18,97.5,100,73,100,73Z"/><path id="scrunchie" class="cls-1" d="M122.15,18.22c-4.92-3.26-7.38,2.61-7.38,2.61-8,.65-4.3,6.52-4.3,6.52-3.08,7.17,3.07,6.52,3.07,6.52,1.85,4.57,8,0,8,0,4.31,3.26,6.77.65,6.77.65,5.53,5.87,8,.66,8,.66,6.15,2.6,7.38-2.61,7.38-2.61,5.54-.65,3.76-6.36,3.76-6.36.55-7.34-5-4.08-5-4.08-2.46-3.91-6.15-1.3-6.15-1.3-3.07-4.57-7.38-.65-7.38-.65C125.22,15,122.15,18.22,122.15,18.22Z"/></g><g id="guitar"><path id="guitar_main" class="cls-3" d="M101.77,203.26A30.58,30.58,0,0,1,83,216.47a25.65,25.65,0,0,1-7.09.67c-87.79-9-9.26,151.49,34.39,65.06l1.52-2.41c6.82-8.59,14.42-10.49,18.23-10.87a43,43,0,0,0,8.46-1.67c20.58-6.48,15.43-16.7,15.43-16.7-.65-4.12-8.3-.55-8.3-.55l-.46.11c-10.19,2.34-15.55-12.31-6.53-17.86l89.87-55.56s.59,0,.62,0c3.41-4.49,6.88-3.48,9.31-2.05a5.12,5.12,0,0,0,5.72-.27,182.67,182.67,0,0,0,14-12.29,4,4,0,0,1,3.71-1c11.57,2.74,11.94-13.57,4.7-12.7h0L225.45,158a3.52,3.52,0,0,0-2.5,2.39l-1.13,3.64h0l-84.3,51.76h0c-12,5.59-17.83-14.35-3.42-22.64,10.78-6.2,5.26-9.82-.51-9.85a32.09,32.09,0,0,0-19.7,6.92A55.46,55.46,0,0,0,101.77,203.26Z"/><g id="knobs"><polygon class="cls-4" points="238.2 154.84 235.2 155.56 234.93 154.28 237.93 153.56 238.2 154.84"/><ellipse class="cls-4" cx="236.29" cy="153.29" rx="2.47" ry="0.98" transform="translate(-29.71 60.69) rotate(-13.78)"/><polygon class="cls-4" points="244.84 153.27 241.84 153.99 241.57 152.72 244.57 152 244.84 153.27"/><ellipse class="cls-4" cx="242.93" cy="151.72" rx="2.47" ry="0.98" transform="translate(-29.15 62.23) rotate(-13.78)"/><polygon class="cls-4" points="251.48 151.71 248.48 152.43 248.21 151.15 251.21 150.43 251.48 151.71"/><ellipse class="cls-4" cx="249.58" cy="150.16" rx="2.47" ry="0.98" transform="translate(-28.58 63.77) rotate(-13.78)"/><polygon class="cls-4" points="258.12 150.14 255.13 150.86 254.85 149.59 257.85 148.87 258.12 150.14"/><ellipse class="cls-4" cx="256.22" cy="148.59" rx="2.47" ry="0.98" transform="translate(-28.02 65.3) rotate(-13.78)"/><polygon class="cls-4" points="264.76 148.57 261.77 149.29 261.5 148.02 264.49 147.3 264.76 148.57"/><ellipse class="cls-4" cx="262.86" cy="147.03" rx="2.47" ry="0.98" transform="translate(-27.45 66.84) rotate(-13.78)"/><polygon class="cls-4" points="231.56 156.4 228.56 157.12 228.29 155.85 231.29 155.13 231.56 156.4"/><ellipse class="cls-4" cx="229.65" cy="154.85" rx="2.47" ry="0.98" transform="translate(-30.27 59.16) rotate(-13.78)"/><ellipse class="cls-5" cx="230.99" cy="160.39" rx="1.54" ry="1.63"/><ellipse class="cls-5" cx="264.2" cy="152.56" rx="1.54" ry="1.63"/><ellipse class="cls-5" cx="257.55" cy="154.13" rx="1.54" ry="1.63"/><ellipse class="cls-5" cx="250.91" cy="155.69" rx="1.54" ry="1.63"/><ellipse class="cls-5" cx="244.27" cy="157.26" rx="1.54" ry="1.63"/><ellipse class="cls-5" cx="237.63" cy="158.82" rx="1.54" ry="1.63"/></g><path id="pattern" class="cls-6" d="M148.59,257.56c1.63-6.19-3.6-4.4-6.65-4.82-17.33-2.36-6.26-18.66-13.64-32.35-1-1.78-4.92-13-14.05-3.44-2.54,3-3.78,7.67-10.55,10.61-14.55,6.31-28.9-2-28.9,9.78,0,17.4,15.37,20.87,18.45,32s-3.69,21.52,4.92,22.82c6.55,1,8.23-19.32,18.45-22.82C129.72,264.8,146.57,265.24,148.59,257.56Z"/><path id="fret_board" class="cls-7" d="M123.62,238.78l-4.77-8.71a2.89,2.89,0,0,1,1-3.83L222,163.19l7.44,13.56-102.18,63A2.57,2.57,0,0,1,123.62,238.78Z"/><g id="frets"><polygon class="cls-8" points="226.7 178.4 225.1 179.38 217.91 166.22 219.5 165.24 226.7 178.4"/><polygon class="cls-8" points="128.93 238.4 127.33 239.38 120.14 226.22 121.73 225.24 128.93 238.4"/><polygon class="cls-8" points="135.23 234.76 133.64 235.75 126.28 222.31 127.88 221.33 135.23 234.76"/><polygon class="cls-8" points="142.61 230.2 141.02 231.18 133.66 217.75 135.26 216.76 142.61 230.2"/><polygon class="cls-8" points="151.22 224.98 149.63 225.97 142.27 212.53 143.87 211.55 151.22 224.98"/><polygon class="cls-8" points="159.83 219.77 158.23 220.75 150.88 207.31 152.48 206.33 159.83 219.77"/><polygon class="cls-8" points="169.51 213.61 167.92 214.6 160.72 201.44 162.31 200.46 169.51 213.61"/><polygon class="cls-8" points="179.97 207.09 178.37 208.07 171.17 194.92 172.77 193.94 179.97 207.09"/><polygon class="cls-8" points="191.65 199.92 190.05 200.9 182.86 187.75 184.45 186.76 191.65 199.92"/><polygon class="cls-8" points="203.33 192.75 201.74 193.73 194.54 180.57 196.14 179.59 203.33 192.75"/><polygon class="cls-8" points="215.02 185.57 213.42 186.55 206.22 173.4 207.82 172.42 215.02 185.57"/></g><path id="middle_line1" class="cls-7" d="M117.58,245.84l-6.93-12.64a2.32,2.32,0,0,1,.77-3.08h0a1.43,1.43,0,0,1,2,.57L121,244.51a1.61,1.61,0,0,1-.53,2.15h0A2.06,2.06,0,0,1,117.58,245.84Z"/><path id="middle_line2" class="cls-7" d="M105.28,253l-6.93-12.64a2.34,2.34,0,0,1,.77-3.09h0a1.44,1.44,0,0,1,2,.57l7.59,13.83a1.61,1.61,0,0,1-.54,2.14h0A2.06,2.06,0,0,1,105.28,253Z"/><path id="middle_line3" class="cls-7" d="M93,260.19l-6.93-12.64a2.32,2.32,0,0,1,.77-3.08h0a1.42,1.42,0,0,1,2,.56l7.59,13.83a1.63,1.63,0,0,1-.54,2.15h0A2.07,2.07,0,0,1,93,260.19Z"/><ellipse id="nub" class="cls-7" cx="42.82" cy="280.06" rx="1.56" ry="3.22" transform="translate(-119.04 47.54) rotate(-26.15)"/><g id="strings"><line class="cls-9" x1="228.79" y1="175.61" x2="92.68" y2="259.65"/><line class="cls-9" x1="227.25" y1="172.8" x2="91.14" y2="256.83"/><line class="cls-9" x1="244.87" y1="158.15" x2="89.59" y2="254.01"/><line class="cls-9" x1="237.61" y1="158.85" x2="88.05" y2="251.19"/><line class="cls-9" x1="230.72" y1="159.34" x2="86.5" y2="248.37"/></g><path id="strap" d="M56,148c-6.71,49.91,8.41,69,8.41,69l10.4.15c-13.32-31.78-6.06-69.23-4.52-76.23a1.13,1.13,0,0,0-.89-1.38,12.85,12.85,0,0,0-10.59,3.16A8.51,8.51,0,0,0,56,148Z"/></g><g id="neck"><path id="neck_main" class="cls-6" d="M133.83,155.17s-15.37-15.65-1.73-46.5l-6.78-54.9S107.39,72.35,100,73a354.55,354.55,0,0,0-21.52,66.52c-1.23,24.78,25.21,37.17,25.21,37.17A50.19,50.19,0,0,0,133.83,155.17Z"/><path id="netting" class="cls-10" d="M107.79,175.06l-7.69-1.21,20.71-5.46L82.64,155.44l50.89-.45S102,159.4,79.41,140.5l43.71,26.1-35.67-2.48L112,173.47"/><path id="necklace" d="M82.67,123.33c16.11,18.8,43.28,9.59,43.28,9.59l.62-3.26s-27.17,9.21-43.29-9.59Z"/></g><g id="head"><path id="head_main" class="cls-11" d="M162.12,46.92c4.18-16.08,12.22-21,14.45-21.18a.53.53,0,0,1,.55.62c-.7,5.62-5,16.59-7.63,23A19,19,0,0,0,169.07,63a12.41,12.41,0,0,0,1.08,2.33,10.47,10.47,0,0,1,1.27,8.71l-.18.55A39,39,0,0,0,169,86.9c-.11,14.29,6,22.07,11.36,29a5.44,5.44,0,0,1,.24,6.29l-2.19,3.31c-.11,2-.18,3.36-.22,4.28a1.89,1.89,0,0,1-1.94,1.85c-12.67-.94-19.72-7.15-19.72-7.15.47,5.53,3.42,7.58,6.12,10a1,1,0,0,1-.35,1.75c-8.54,2.48-10.68-8-11.14-11.35a10.26,10.26,0,0,0-1-3.32,23.61,23.61,0,0,0-6.51-7.26,31.68,31.68,0,0,0-11.58-5.63c-20.2-5.35-20-25.43-17.67-38.08a30.79,30.79,0,0,1,14.2-20.9l.28-.17c-2.64-11.23,3.37-21,5.1-23.51a.42.42,0,0,1,.75.08c5.62,12.81,2.76,21.48,2.76,21.48C150.44,31.26,162.12,46.92,162.12,46.92Z"/><g id="nostril_left"><path d="M164.89,123.54c1.23-4.56-.88-6.25-1.85-5.22-1.23,1.31.68,1.45,1.23,2.61A6.81,6.81,0,0,1,164.89,123.54Z"/></g><g id="nostril_right"><path d="M178.64,125.3c-.32-4.71,1.83-6,2.51-4.83.87,1.5-.84,1.31-1.52,2.36A7.33,7.33,0,0,0,178.64,125.3Z"/></g><g id="eye_left"><ellipse id="eye_main" class="cls-12" cx="138.14" cy="74.31" rx="4.3" ry="4.57"/><path id="lashes" d="M125.84,67.13c5.53,4.57,8,2,12.3,2s4.61,5.54,4.61,5.54c-2.3-5.53-5.58-4.31-7.46-2.95l0,0a8.64,8.64,0,0,1-8.07,1A22.52,22.52,0,0,1,123.38,71C136.91,75,125.84,67.13,125.84,67.13Z"/><ellipse id="eye_highlight" class="cls-13" cx="136.91" cy="73" rx="1.54" ry="1.63"/></g><g id="eye_right"><ellipse id="eye_main-2" data-name="eye_main" class="cls-12" cx="170.31" cy="79.52" rx="3.87" ry="4.57"/><path id="lashes-2" data-name="lashes" d="M181.38,72.35c-5,4.56-7.19,2-11.07,2s-4.15,5.54-4.15,5.54c2.07-5.53,5-4.31,6.71-2.95l0,0a7.12,7.12,0,0,0,7.27,1,20.11,20.11,0,0,0,3.41-1.68C171.42,80.17,181.38,72.35,181.38,72.35Z"/><ellipse id="eye_highlight-2" data-name="eye_highlight" class="cls-13" cx="171.42" cy="78.22" rx="1.38" ry="1.63"/></g><path id="teeth" class="cls-13" d="M177.38,131.32c-6.34,5.92-10.65,5.27-10.65,5.27-13.53-8.48-12.91-15.66-12.91-15.66C167.45,133.25,177.38,131.32,177.38,131.32Z"/><path id="teeth_line" class="cls-14" d="M157.52,126.23c9.24,8.64,15.35,7.83,17.25,7.26"/><path id="lips" d="M156.58,118c-3.38,1.63-1.71,2.61-1.53,2.93,11.08,10.92,21.07,10.14,23.36,9.13,1.85,1.31-.3,2.29-.3,2.29-3.69,1.3-9.84-1.31-9.84-1.31a33.31,33.31,0,0,1-14.45-10.11c3,10.22,11,16.54,17.83,14.35.62.65-.61,2-.61,2-7.94,4.49-16.83-10.31-17.49-15.22-1.25-.91.35-4.34,2.84-4A.88.88,0,0,1,156.58,118Z"/><path id="eyebrow_right" d="M162.56,70.07c3.49-9.79,15.11-5.22,15.11-5.22"/><path id="eyebrow_left" d="M147.67,66.81c-5.54-9.79-24-5.22-24-5.22"/><path id="bangs" class="cls-15" d="M137.52,47.57c4.75,6.12,21,7.57,12.32,27a43.21,43.21,0,0,1-5.67,9.27c-4.71,6-16,22.2-11.57,36.79,1,3.24,1.21,4.29,1.14,3.82a38.71,38.71,0,0,1,11-33.14c9.21-8.9,24.4-26.64,20.48-43.72-.95-13.84-15.37-27.39-29.43-19C135.68,28,140,37.13,137.52,47.57Z"/></g><g id="leg_right"><path id="lowerleg" class="cls-11" d="M228.78,246.79,181,299.06c-13.69,15.61-40.66-8-27-23.65l66-49.16a6.34,6.34,0,0,1,6.59.75h0A13.83,13.83,0,0,1,228.78,246.79Z"/><path id="upperleg" class="cls-11" d="M226.24,244.81l-1.87,1.08a2.85,2.85,0,0,1-3.94-1.24l-18.17-34.42a3.12,3.12,0,0,1,1.1-4.14l11.54-6.63a2.85,2.85,0,0,1,3.94,1.24l12.71,24.1C235.35,232,233,240.94,226.24,244.81Z"/><path id="hoof" class="cls-16" d="M218.23,199.26,209.85,224l-10.36-4c-7.3-10.88-5-25.78,5.16-33.28Z"/></g><g id="leg_left"><path id="lowerleg-2" data-name="lowerleg" class="cls-11" d="M42.47,316.44,7.82,273.89a35.11,35.11,0,0,1-4.4-37.17c4.27-8.77,9.09-7.92,13-5.61a20.64,20.64,0,0,1,7.53,8L62.47,309.3a7.33,7.33,0,0,1-1.23,6.88h0A12.08,12.08,0,0,1,42.47,316.44Z"/><path id="upperleg-2" data-name="upperleg" class="cls-11" d="M44.53,314l-.86-2.09a3.14,3.14,0,0,1,1.48-4L79,292.11a2.83,2.83,0,0,1,3.81,1.57l5.31,12.84a3.13,3.13,0,0,1-1.48,4l-23.67,11C55.86,324.85,47.63,321.44,44.53,314Z"/><path id="hoof-2" data-name="hoof" class="cls-16" d="M88,310.06,65.45,298.74l4.6-10.54c10.81-6.61,24.62-2.68,30.86,8.78Z"/></g></g></g></svg>