<svg xmlns="http://www.w3.org/2000/svg" viewBox="0 0 69.07 85.92"><defs><style>.cls-1{fill:none;stroke:#238581;stroke-linecap:round;stroke-miterlimit:10;stroke-width:2px;}.cls-2{fill:#299894;}.cls-3{fill:#238581;}</style></defs><title>mixer-icons</title><g id="water"><path id="ripple_outer" class="cls-1" d="M58.81,63.52c5.74,2.27,9.26,5.35,9.26,8.74,0,7-15,12.66-33.53,12.66S1,79.25,1,72.26C1,69,4.34,66,9.8,63.71"/><path id="ripple_inner" class="cls-1" d="M52.74,68.73A4.36,4.36,0,0,1,54.66,72c0,4.25-9.14,7.7-20.41,7.7S13.84,76.25,13.84,72a4.11,4.11,0,0,1,1.6-3"/><path id="drop_half" class="cls-2" d="M34.54,0A2.71,2.71,0,0,0,32.4,1C26.13,8.9,8.23,32.41,8.23,44.4A26.31,26.31,0,0,0,34.54,70.7Z"/><path id="drop_half2" class="cls-3" d="M36.68,1a2.72,2.72,0,0,0-2.14-1V70.7a26.3,26.3,0,0,0,26.3-26.3C60.84,32.41,43,8.9,36.68,1Z"/></g></svg>