<svg xmlns="http://www.w3.org/2000/svg" viewBox="0 0 93 53"><defs><style>.cls-1{fill:#00efc7;}.cls-2{fill:#28bfbb;}.cls-3{fill:#ff5050;}.cls-4{fill:#f36f63;}.cls-5{fill:#d6d922;}.cls-6{fill:#0d86a3;}.cls-7{fill:#fff;}</style></defs><title>Asset 6</title><g id="Layer_2" data-name="Layer 2"><g id="icons"><g id="icon_bird"><rect id="bg" class="cls-1" width="93" height="53" rx="26.5"/><g id="head"><path id="head_ruffle" class="cls-2" d="M33.09,35.82l-5.55,5.35a.59.59,0,0,0,.66.94L30,41.25a.72.72,0,0,1,.95.93h0a.57.57,0,0,0,.83.71L34,41.51a2.34,2.34,0,0,1,3.19.59L38,43.21a.55.55,0,0,0,.72.16l3-1.7a2.36,2.36,0,0,1,2.77.34L47,44.36a.56.56,0,0,0,.77,0l2.55-2.5a2.35,2.35,0,0,1,3.13-.2l2.4,1.89a.57.57,0,0,0,.84-.19L57.93,41A2.4,2.4,0,0,1,61.07,40l1.93.91a.59.59,0,0,0,.7-.91c-.75-1.06-3.93-2.5-4.63-4.32Z"/><path id="head_main" class="cls-3" d="M34.8,33.24l-3.51,4.09a.47.47,0,0,0,.54.73l1.47-.66a.58.58,0,0,1,.78.72h0a.46.46,0,0,0,.67.56l1.75-1.06a2,2,0,0,1,2.59.48l.67.86a.48.48,0,0,0,.58.12l2.45-1.29a2,2,0,0,1,2.25.28l2,1.81a.46.46,0,0,0,.62,0L49.76,38a2,2,0,0,1,2.54-.13l2,1.46a.46.46,0,0,0,.68-.14l1-1.76a2,2,0,0,1,2.54-.81l1.58.71a.46.46,0,0,0,.56-.7c-2.16-2.89-5.48-9.57-.09-19.07-11-18.23-26.77-6.82-25.86.4a5.35,5.35,0,0,1-1.1,4.13c-1.29,1.53-3.73,2.52-8.22-.33a.25.25,0,0,0-.34.33c2.39,4.15,7,4.81,9.58,4.81a.23.23,0,0,1,0,.46,10.68,10.68,0,0,1-6.81-.53.24.24,0,0,0-.27.39,9.25,9.25,0,0,0,6.8,3,.23.23,0,0,1,.11.43,8.26,8.26,0,0,1-4.82.59.24.24,0,0,0-.2.41,5.31,5.31,0,0,0,5.1,1.28A.23.23,0,0,1,34.8,33.24Z"/><path id="mouth" class="cls-4" d="M58.77,23.17c-1.05,2.37,2.54,3.5,2.54,3.5A6.49,6.49,0,0,1,54.81,24h0C54.55,22.9,58.77,23.17,58.77,23.17Z"/><path id="face" class="cls-5" d="M57.61,14.43C69.44,20.05,68.38,26,67.51,28.07a.47.47,0,0,1-.84.06c-3.79-6.27-6.13-4.68-6.13-4.68a7.7,7.7,0,0,1-5.45-.07c.73,3.12,4.38,3.28,6,3.2a.23.23,0,0,1,.15.42c-5.65,4.11-12.57.42-15.81-1.79A9.27,9.27,0,0,1,42,20.94c-3-7.67,8.65-9.23,12.23-5.56a3,3,0,0,0,1.21.79C57.66,16.89,57.61,14.43,57.61,14.43Z"/><ellipse id="cere" class="cls-6" cx="57.61" cy="15.59" rx="1" ry="1.43" transform="translate(2.63 38.8) rotate(-38.03)"/><ellipse id="nostril" cx="63.15" cy="21.5" rx="0.26" ry="0.4" transform="translate(34.14 81.58) rotate(-83.03)"/><g id="eye"><ellipse id="eye_main" cx="48.86" cy="19.76" rx="2.38" ry="2.91" transform="translate(23.32 65.86) rotate(-83.03)"/><g id="eye_highlights"><circle id="eye_highlight2" class="cls-7" cx="47.61" cy="19.07" r="0.79"/><circle id="eye_highlight1" class="cls-7" cx="49.96" cy="20.56" r="0.4"/></g></g></g></g></g></g></svg>