<svg xmlns="http://www.w3.org/2000/svg" viewBox="0 0 74.53 72.78"><defs><style>.cls-1{fill:#299894;}.cls-2{fill:#238581;}</style></defs><title>mixer-icons</title><g id="leaf"><g id="leaf2"><path id="leaf_half2" class="cls-1" d="M68.78.21A2.23,2.23,0,0,1,70,1.73c1.94,8.06,7.1,31.86,2.92,40.81A21.68,21.68,0,0,1,44.12,53Z"/><path id="leaf_half1" class="cls-2" d="M68.78.21a2.23,2.23,0,0,0-2,0c-7,3.49-26.76,13.83-32.37,22.52,4.41,3.3,8,6.74,9.52,9.9A21.81,21.81,0,0,1,46,41l7.41-15.86a1.68,1.68,0,0,1,2.23-.81h0a1.7,1.7,0,0,1,1,1.67,1.57,1.57,0,0,1-.13.55Z"/></g><g id="leaf1"><path id="leaf_half1-2" data-name="leaf_half1" class="cls-2" d="M18,37a1.68,1.68,0,1,1,3-1.43L33.33,61.77a21.64,21.64,0,0,0,7.54-27.13c-4.18-8.95-25.74-20.26-33.17-24a2.23,2.23,0,0,0-1.95,0L18.06,37v0Z"/><path id="leaf_half2-2" data-name="leaf_half2" class="cls-1" d="M33.69,70.39,14.85,30.06a1.44,1.44,0,0,0-.19-.31L5.75,10.67a2.22,2.22,0,0,0-1.24,1.51C2.57,20.24-2.59,44,1.59,53A21.67,21.67,0,0,0,27.28,64.61l3.37,7.2a1.68,1.68,0,1,0,3-1.42Z"/></g></g></svg>