<svg xmlns="http://www.w3.org/2000/svg" viewBox="0 0 93 53"><defs><style>.cls-1{fill:#00efc7;}.cls-2{fill:#f69852;}.cls-3{fill:#d6d922;}.cls-4{fill:#ff1d1d;}.cls-5{fill:#7f5e9a;}.cls-6{fill:#070707;}.cls-7{fill:#ff5050;}.cls-8{fill:#fff;}.cls-9{fill:none;stroke:#000;stroke-miterlimit:10;stroke-width:0.19px;}</style></defs><title>Asset 8</title><g id="Layer_2" data-name="Layer 2"><g id="icons"><g id="icon_tiger"><rect id="bg" class="cls-1" width="93" height="53" rx="26.5"/><g id="head"><path id="head_main" class="cls-2" d="M55.12,20.59c8.73-4.65,13.34,1.93,13.88,2.78a.15.15,0,0,1,0,.17c-2.57,3.55-4.27,4.33-4.86,4.5a.16.16,0,0,0-.1.24l2.24,3.29a.16.16,0,0,1-.16.25l-1.75-.19a.17.17,0,0,0-.12.3l1,.67a.16.16,0,0,1-.06.29l-.54.1a5.19,5.19,0,0,0-2.91,1.59,63.62,63.62,0,0,0-7.19,9.28A5.47,5.47,0,0,1,52,46a4.18,4.18,0,0,1-3.88,0,3.34,3.34,0,0,1-1.84-2.9c.3-6.93-6.29-11.85-6.3-11.85-11.31,2-2.55-16-.46-16.34h0c9.9-2.25,14.68,4.58,15.33,5.61A.17.17,0,0,0,55.12,20.59Z"/><g id="hat"><path id="hat_main" class="cls-3" d="M63.42,22.79c.09-19.36-31.21-21.21-25.13-6.92C50.77,19.61,63.42,22.79,63.42,22.79Z"/><g id="cat_logo"><path class="cls-4" d="M50.81,14.07a2.06,2.06,0,0,1-2.7.78,2.82,2.82,0,0,1-1-1.09,3.66,3.66,0,0,1-.51-1.37,2.43,2.43,0,0,1,1.5-2.55,2.25,2.25,0,0,1,2.74.87,0,0,0,0,1,0,0h0a2.56,2.56,0,0,0-2.36-.15A2.35,2.35,0,0,0,47,12.39a1.6,1.6,0,0,0,.29,1.23,1.86,1.86,0,0,0,1.07.63A3,3,0,0,0,50.75,14s0,0,.06,0S50.82,14.06,50.81,14.07Z"/></g><path id="hat_flap" class="cls-5" d="M53.18,20.07C39.54,1.5,24,7.72,32.23,19a3.52,3.52,0,0,0,3.61,1.32A47.5,47.5,0,0,1,53.18,20.07Z"/></g><path id="glasses" class="cls-6" d="M41.8,20a6.14,6.14,0,0,0-4.53.36c-1.32-.89-3.84-.11-5.19.43a1.61,1.61,0,0,0-1,1.34c-.81,8.34,7.63,4.65,6.32-1.26a5.33,5.33,0,0,1,4-.44S39.65,27.63,46.33,28l2.26,0A5.52,5.52,0,0,0,54.1,22.5v-.35a3.12,3.12,0,0,0-3.2-3.07L44,19.16A2.91,2.91,0,0,0,41.8,20Z"/><path id="nose" class="cls-7" d="M39.27,24a20.3,20.3,0,0,0-4.21.75A2.81,2.81,0,0,0,37,26.51,6,6,0,0,0,39.27,24Z"/><path id="ear" class="cls-2" d="M54.9,20.54a.17.17,0,0,0,.22.05c8.73-4.65,13.34,1.93,13.88,2.78a.15.15,0,0,1,0,.17c-2.57,3.55-4.27,4.33-4.86,4.5a.16.16,0,0,0-.1.24Z"/><g id="inside_ear"><path d="M60.67,23.62A15.31,15.31,0,0,1,63,22.94a7,7,0,0,1,1.22-.15,2.32,2.32,0,0,1,.63.06c.19.06.5.09.56.5v.07l-.07,0a5.15,5.15,0,0,1-2.09.87v-.22a1.35,1.35,0,0,1,.44.15.25.25,0,0,1,.11.29.42.42,0,0,1-.17.2h0l-1,.37,1-.51h0s.09-.09.09-.12,0-.05,0-.08a1.19,1.19,0,0,0-.36-.09l-.58-.06.57-.16a5.93,5.93,0,0,0,1.94-.9l-.06.11a.56.56,0,0,0-.33-.18,2,2,0,0,0-.55-.06,7.94,7.94,0,0,0-1.18.1C62.24,23.3,61.46,23.47,60.67,23.62Z"/></g><g id="whisker_dots"><ellipse id="whisker_dot1" cx="40.27" cy="26.92" rx="0.2" ry="0.2" transform="translate(-4.09 7.47) rotate(-10.09)"/><ellipse id="whisker_dot2" cx="43.22" cy="28.25" rx="0.2" ry="0.2" transform="translate(-4.28 8.01) rotate(-10.09)"/><ellipse id="whisker_dot3" cx="40.33" cy="28.77" rx="0.2" ry="0.2" transform="translate(-4.42 7.51) rotate(-10.09)"/></g><g id="whisker_dots-2" data-name="whisker_dots"><ellipse id="whisker_dot1-2" data-name="whisker_dot1" cx="34.48" cy="27.95" rx="0.2" ry="0.2" transform="matrix(0.98, -0.18, 0.18, 0.98, -4.36, 6.47)"/><ellipse id="whisker_dot2-2" data-name="whisker_dot2" cx="36.33" cy="29.21" rx="0.2" ry="0.2" transform="translate(-4.56 6.82) rotate(-10.09)"/></g><path id="mouth" class="cls-6" d="M46.24,41.42s1.32,5.17,5.27-.81c1.42-2.16,2.22-5,1-7.27s-4.15-3.71-8.79-2.07a4.67,4.67,0,0,1-3.19,0c-1.34-.49-2.85-1.74-3.53-4.8,0,0,.65,3.26,2.75,4.81C44.35,34.21,46.24,41.42,46.24,41.42Z"/><path id="tooth_right" class="cls-8" d="M36.36,31a29.55,29.55,0,0,0,2.38,2.05A.15.15,0,0,0,39,33a2.83,2.83,0,0,1,.16-1.56A5.84,5.84,0,0,1,36.36,31Z"/><path id="tooth_left" class="cls-8" d="M43.85,31.38c1.18,1.11,1.56,1.47,2,1.78a.15.15,0,0,0,.24-.14,7.88,7.88,0,0,1,.08-2A5.85,5.85,0,0,0,43.85,31.38Z"/><path id="tongue" class="cls-4" d="M52.87,36.14c-2-.44-3.14.82-3.83,3.07a3.54,3.54,0,0,1-2.53,2.57C48.17,46.51,53.68,39.18,52.87,36.14Z"/><path id="nose_line" class="cls-9" d="M37.21,23.1a3.87,3.87,0,0,1,2.94-.32"/></g></g></g></g></svg>