<svg xmlns="http://www.w3.org/2000/svg" xmlns:xlink="http://www.w3.org/1999/xlink" viewBox="0 0 93 53"><defs><style>.cls-1{fill:#00efc7;}.cls-2{fill:#0e666c;}.cls-3{fill:#7f5e9a;}.cls-4{fill:#26aaa3;}.cls-5{fill:#28bfbb;}.cls-6{fill:#0c0c0c;}.cls-7{fill:#fff;}.cls-8{fill:none;stroke:#000;stroke-miterlimit:10;stroke-width:0.05px;}.cls-9{fill:url(#linear-gradient);}</style><linearGradient id="linear-gradient" x1="55.29" y1="25.37" x2="45.95" y2="25.37" gradientUnits="userSpaceOnUse"><stop offset="0" stop-color="#0e666c"/><stop offset="0.3" stop-color="#0f6369"/><stop offset="0.52" stop-color="#115b60"/><stop offset="0.7" stop-color="#154d51"/><stop offset="0.86" stop-color="#1b383b"/><stop offset="1" stop-color="#222223"/><stop offset="1"/></linearGradient></defs><title>Asset 9</title><g id="Layer_2" data-name="Layer 2"><g id="icons"><g id="icon_horse"><rect id="bg" class="cls-1" width="93" height="53" rx="26.5"/><g id="head"><g id="hair"><path id="hair_main" class="cls-2" d="M37.34,24.76C33.06,18.27,40.94,14,40.94,14c10.89-21.5,9.89,12.5,3,22.24C39.53,42.54,37.34,24.76,37.34,24.76Z"/><path id="scrunchie" class="cls-3" d="M43.38,9.82c-1.35-.89-2,.71-2,.71-2.18.18-1.17,1.78-1.17,1.78-.84,2,.84,1.78.84,1.78.5,1.25,2.18,0,2.18,0,1.17.89,1.84.18,1.84.18,1.51,1.6,2.18.18,2.18.18,1.68.71,2-.71,2-.71,1.51-.18,1-1.74,1-1.74.15-2-1.36-1.11-1.36-1.11a1.14,1.14,0,0,0-1.68-.36,1.29,1.29,0,0,0-2-.17C44.21,8.93,43.38,9.82,43.38,9.82Z"/></g><g id="neck"><path id="neck_main" class="cls-4" d="M46.56,47.17s-4.19-4.27-.47-12.68l-1.85-15s-4.89,5.06-6.9,5.24A96.32,96.32,0,0,0,31.47,42.9C31.14,49.66,46.56,47.17,46.56,47.17Z"/></g><g id="head-2" data-name="head"><path id="head_main" class="cls-5" d="M54.27,17.65c1.14-4.39,3.34-5.71,3.95-5.77a.13.13,0,0,1,.14.16,32.69,32.69,0,0,1-2.08,6.28A5.24,5.24,0,0,0,56.17,22a2.87,2.87,0,0,0,.3.63,2.9,2.9,0,0,1,.34,2.38.88.88,0,0,1-.05.15,10.61,10.61,0,0,0-.61,3.35c0,3.9,1.63,6,3.1,7.91a1.49,1.49,0,0,1,.06,1.72l-.59.9c0,.54,0,.91-.06,1.17a.52.52,0,0,1-.53.5,9.7,9.7,0,0,1-5.38-2,3.69,3.69,0,0,0,1.67,2.73.28.28,0,0,1-.1.47c-2.33.68-2.91-2.18-3-3.09A3.09,3.09,0,0,0,51,38a6.52,6.52,0,0,0-1.77-2,8.67,8.67,0,0,0-3.16-1.53C40.58,33,40.64,27.55,41.27,24.1a8.41,8.41,0,0,1,3.87-5.7l.08,0A8.47,8.47,0,0,1,46.61,12a.12.12,0,0,1,.21,0,8.8,8.8,0,0,1,.75,5.86C51.09,13.38,54.27,17.65,54.27,17.65Z"/><g id="nostril_left"><path d="M55,38.54c.33-1.24-.24-1.7-.5-1.42s.18.39.33.71A1.85,1.85,0,0,1,55,38.54Z"/></g><g id="nostril_right"><path d="M58.78,39c-.09-1.28.5-1.64.69-1.31s-.24.35-.42.64A2,2,0,0,0,58.78,39Z"/></g><g id="eye_left"><ellipse id="eye_main" class="cls-6" cx="47.74" cy="25.12" rx="1.17" ry="1.24"/><path id="lashes" d="M44.38,23.16c1.51,1.25,2.18.53,3.36.53S49,25.21,49,25.21c-.62-1.51-1.52-1.18-2-.81h0a2.39,2.39,0,0,1-2.21.28,7.4,7.4,0,0,1-1-.46C47.4,25.29,44.38,23.16,44.38,23.16Z"/><ellipse id="eye_highlight" class="cls-7" cx="47.4" cy="24.76" rx="0.42" ry="0.44"/></g><g id="eye_right"><ellipse id="eye_main-2" data-name="eye_main" class="cls-6" cx="56.51" cy="26.54" rx="1.06" ry="1.24"/><path id="lashes-2" data-name="lashes" d="M59.53,24.58c-1.36,1.25-2,.54-3,.54s-1.13,1.51-1.13,1.51c.56-1.51,1.37-1.18,1.83-.81h0a1.93,1.93,0,0,0,2,.28,5.12,5.12,0,0,0,.93-.46C56.81,26.72,59.53,24.58,59.53,24.58Z"/><ellipse id="eye_highlight-2" data-name="eye_highlight" class="cls-7" cx="56.81" cy="26.18" rx="0.38" ry="0.44"/></g><path id="teeth" class="cls-7" d="M58.44,40.66c-1.73,1.62-2.91,1.44-2.91,1.44C51.84,39.79,52,37.83,52,37.83,55.73,41.19,58.44,40.66,58.44,40.66Z"/><path id="teeth_line" class="cls-8" d="M53,39.28c2.52,2.35,4.19,2.13,4.7,2"/><path id="lips" d="M52.77,37c-.93.45-.47.71-.42.8,3,3,5.74,2.77,6.37,2.49.5.36-.09.62-.09.62A4.77,4.77,0,0,1,56,40.59,9.1,9.1,0,0,1,52,37.83c.83,2.79,3,4.51,4.86,3.91.17.18-.16.54-.16.54-2.17,1.22-4.59-2.81-4.77-4.15-.34-.25.09-1.18.77-1.11Z"/><path id="eyebrow_right" d="M54.39,24c1-2.67,4.12-1.42,4.12-1.42"/><path id="eyebrow_left" d="M50.33,23.07c-1.5-2.67-6.54-1.42-6.54-1.42"/><path id="bangs" class="cls-9" d="M47.57,17.83c1.29,1.66,5.72,2.06,3.36,7.35a11.84,11.84,0,0,1-1.55,2.53c-1.28,1.62-4.36,6-3.15,10,.26.89.32,1.17.31,1a10.52,10.52,0,0,1,3-9c2.51-2.43,6.65-7.27,5.58-11.92-.26-3.78-4.19-7.47-8-5.19A8.4,8.4,0,0,1,47.57,17.83Z"/></g></g></g></g></g></svg>