<svg id="sun" xmlns="http://www.w3.org/2000/svg" viewBox="0 0 88.48 85.2"><defs><style>.cls-1{fill:#299894;}.cls-2{fill:#238581;}</style></defs><title>mixer-icons</title><g id="sun_rays"><path class="cls-1" d="M88.48,41.9h0a1,1,0,0,0-.7-.91c-8.71-2.6-12-11.75-6.7-18.84a.77.77,0,0,0-.71-1.23A13.12,13.12,0,0,1,65.92,6.47a.77.77,0,0,0-1.23-.71A13.13,13.13,0,0,1,45,.47a.77.77,0,0,0-1.42,0A13.13,13.13,0,0,1,23.79,5.76a.78.78,0,0,0-1.24.71A13.11,13.11,0,0,1,8.11,20.92a.78.78,0,0,0-.72,1.23c5.23,7.06,2,16-6.59,18.62a1.1,1.1,0,0,0-.8,1v0a1.28,1.28,0,0,0,.91,1.21,12.93,12.93,0,0,1,6.48,20,.78.78,0,0,0,.72,1.24A13.11,13.11,0,0,1,22.55,78.73a.78.78,0,0,0,1.24.72,13.12,13.12,0,0,1,19.74,5.28.77.77,0,0,0,1.42,0,13.12,13.12,0,0,1,19.74-5.28.78.78,0,0,0,1.23-.72A13.11,13.11,0,0,1,80.37,64.29a.78.78,0,0,0,.71-1.24A13.11,13.11,0,0,1,87.8,42.79.93.93,0,0,0,88.48,41.9ZM46.28,74A31.43,31.43,0,1,1,75.6,44.64,31.44,31.44,0,0,1,46.28,74Z"/></g><path id="sun_half_circle2" class="cls-2" d="M44.24,14.53V70.67a28.07,28.07,0,0,0,0-56.14Z"/><path id="sun_half_circle" class="cls-1" d="M44.24,14.53a28.07,28.07,0,0,0,0,56.14Z"/></svg>