<svg xmlns="http://www.w3.org/2000/svg" viewBox="0 0 93 53"><defs><style>.cls-1{fill:#00efc7;}.cls-2,.cls-4{fill:#311259;}.cls-3{fill:#26aaa3;}.cls-4{opacity:0.81;}.cls-5{fill:#ff5050;}.cls-6{fill:#efefef;}.cls-7{fill:#28bfbb;}</style></defs><title>Asset 7</title><g id="Layer_2" data-name="Layer 2"><g id="icons"><g id="icon_dog"><rect id="bg" class="cls-1" width="93" height="53" rx="26.5"/><g id="head"><path id="ear_left" class="cls-2" d="M41.6,11.48c-3.83.86-5.69,2.47-6.58,4-1.56,2.64-3.39,5.27-6,6.87-21.91,13.35,1,37.28,8.54,5Z"/><path id="ear_right" class="cls-2" d="M56.64,13.05c3.57,1.63,5.06,3.59,5.61,5.24,1,2.91,2.24,5.86,4.47,8C85.4,43.84,58,62.51,57.33,29.38Z"/><path id="head_main" class="cls-3" d="M58.81,25.35h0a5.49,5.49,0,0,1-1.45-4.3l.38-3.65a9.1,9.1,0,0,0-8.11-10h0a9.11,9.11,0,0,0-10,8.12l-.39,3.7A5.47,5.47,0,0,1,37,23.09l-.06,0A7.14,7.14,0,0,0,35.78,33.8L41.62,38A7.15,7.15,0,0,0,51,39l6.69-2.9A7.14,7.14,0,0,0,58.81,25.35Z"/><path id="mouth" class="cls-4" d="M56.94,29.27c-.35,3.42-5,7.59-10.06,7.05s-8.75-5.55-8.4-9,4.59-3.93,9.69-3.4S57.3,25.86,56.94,29.27Z"/><path id="tongue" class="cls-5" d="M49.9,29.86c3.41,2.83,3.33,1.59,5.43,3S55.81,36.18,58,38a2.44,2.44,0,0,0,2.69.38,3.54,3.54,0,0,0,2-2.64c1.15-6.44-8.09-7.4-8.09-7.4L49.9,29.86"/><g id="teeth"><path id="tooth5" class="cls-6" d="M40.31,29.08c.09-.38,1.48,0,1.39.33s-.57,1-1,.93S40.22,29.47,40.31,29.08Z"/><path id="tooth4" class="cls-6" d="M54.29,30.54c0-.39-1.44-.36-1.43,0s.35,1.12.74,1.11S54.3,30.93,54.29,30.54Z"/><path id="tooth3" class="cls-6" d="M49.06,36c0,.39-1.46.24-1.42-.15s.43-1.08.83-1S49.1,35.65,49.06,36Z"/><path id="tooth2" class="cls-6" d="M47.62,36.09c0,.4-1.46.25-1.42-.14s.43-1.09.83-1.05S47.66,35.7,47.62,36.09Z"/><path id="tooth1" class="cls-6" d="M46.22,35.74c0,.39-1.46.25-1.42-.15s.44-1.08.83-1S46.26,35.35,46.22,35.74Z"/></g><g id="tongue_line"><path d="M60.27,37.62A6.34,6.34,0,0,0,60,34.56,7.65,7.65,0,0,0,58.22,32a12.82,12.82,0,0,0-2.51-1.81,19,19,0,0,0-2.8-1.36v0a15.19,15.19,0,0,1,2.89,1.2,11.26,11.26,0,0,1,2.52,1.88,7.58,7.58,0,0,1,1.74,2.59,6.4,6.4,0,0,1,.22,3.1Z"/></g><path id="eyebrow_left" d="M42.68,14.15c2.27.29,2.8,1,2.83,1.52a.68.68,0,0,1-.91.65A14.26,14.26,0,0,1,42,15a.51.51,0,0,0-.52,0c-.39.2-.39.17-.41,0-.08-.55.43-.76.85-.84A3.14,3.14,0,0,1,42.68,14.15Z"/><path id="eyebrow_right" d="M55,15.44c-2.28-.19-3,.36-3.09.9a.69.69,0,0,0,.76.83,14.37,14.37,0,0,0,2.86-.73.52.52,0,0,1,.51.1c.34.27.35.24.41.07.19-.52-.27-.83-.66-1A2.74,2.74,0,0,0,55,15.44Z"/><path id="snout" class="cls-7" d="M51.7,15.67c-1.22,4.27,2.06,6.66,4.23,7.74A3.73,3.73,0,0,1,58,27.53c-1.13,5-10.86,2.56-10.42.15h0c-.06,2.41-9.81,2.86-10.15-2.08a3.73,3.73,0,0,1,2.82-3.82c2.37-.6,6.08-2.26,5.74-6.82a3.27,3.27,0,0,1,1.8-3.22,2.6,2.6,0,0,1,2.9.43A3.29,3.29,0,0,1,51.7,15.67Z"/><path id="nose" d="M51.09,25.38c.1-.89-1.28-1.77-3.07-2s-3.32.39-3.42,1.29c-.05.55.49,1.74,1.31,1.08l.18.43c-.14.47.58,1,1.53,1.06s1.75-.23,1.7-.73l.28-.38C50.26,27,51,25.94,51.09,25.38Z"/><g id="whisker_dots"><circle id="dot" cx="41.37" cy="27.24" r="0.2"/><circle id="dot-2" data-name="dot" cx="40.77" cy="25.13" r="0.2"/><circle id="dot-3" data-name="dot" cx="42.6" cy="26.24" r="0.2"/></g><g id="whisker_dots-2" data-name="whisker_dots"><circle id="dot-4" data-name="dot" cx="53.64" cy="28.52" r="0.2"/><circle id="dot-5" data-name="dot" cx="54.66" cy="26.58" r="0.2"/><circle id="dot-6" data-name="dot" cx="52.64" cy="27.29" r="0.2"/></g><g id="eyelash_left"><path d="M44.77,19.2a4.79,4.79,0,0,0-1.73-1,3.19,3.19,0,0,0-1.78.43,5.13,5.13,0,0,1-2.16.48A2.94,2.94,0,0,1,37,18.38a4.18,4.18,0,0,0,2,.1,7,7,0,0,0,1.9-.59,5.87,5.87,0,0,1,1-.36,2.16,2.16,0,0,1,1.23.08A3.17,3.17,0,0,1,44.77,19.2Z"/></g><g id="eyelash_right"><path d="M52.05,20a3.16,3.16,0,0,1,1.84-1.24,2.08,2.08,0,0,1,1.21.18,5.53,5.53,0,0,1,1,.57,7.22,7.22,0,0,0,1.73,1,4.28,4.28,0,0,0,2,.31,2.94,2.94,0,0,1-2.16.3,5.09,5.09,0,0,1-2-.91,3.1,3.1,0,0,0-1.66-.79A4.74,4.74,0,0,0,52.05,20Z"/></g></g></g></g></g></svg>