<svg xmlns="http://www.w3.org/2000/svg" viewBox="0 0 211.74 234.37">
  <defs>
    <style>
      .cls-1,.cls-2{fill:none}.cls-2{stroke:#231f20;stroke-width:5.76px}.cls-3{fill:#f69852}.cls-11{fill:#7f5e9a}.cls-12{fill:#d6d922}.cls-13{fill:#ff5050}.cls-14{fill:#28bfbb}.cls-15{fill:#0e666c}.cls-16{fill:#ff1d1d}.cls-17{fill:#070707}.cls-18{fill:#fff}.cls-20{fill:#3a3a3a}
    </style>
    <clipPath id="clip-path">
      <path id="tail" class="cls-1" d="M176.09 227.16c83.13-110-35.23-154.93-6.85-172.68 3.45-2.16 6.24-5.28 6.3-9.27.12-8.19-7.69-12.8-16.2-12.34a21.53 21.53 0 0 0-14.68 7.19c-19.54 21.49 16 42.58 23.7 51.76 54.39 69.33-.62 122.37-.62 122.37z"/>
    </clipPath>
    <pattern id="_10_lpi_80_" data-name="10 lpi 80%" width="72" height="72" patternTransform="matrix(.71 -.4 .66 1.02 -17.94 221.73)" patternUnits="userSpaceOnUse">
      <path class="cls-1" d="M0 0h72v72H0z"/>
      <path class="cls-2" d="M71.75 68.4h72.5M71.75 54h72.5M71.75 39.6h72.5M71.75 25.2h72.5M71.75 10.8h72.5M71.75 61.2h72.5M71.75 46.8h72.5M71.75 32.4h72.5M71.75 18h72.5M71.75 3.6h72.5M-.25 68.4h72.5M-.25 54h72.5M-.25 39.6h72.5M-.25 25.2h72.5M-.25 10.8h72.5M-.25 61.2h72.5M-.25 46.8h72.5M-.25 32.4h72.5M-.25 18h72.5M-.25 3.6h72.5M-72.25 68.4H.25M-72.25 54H.25M-72.25 39.6H.25M-72.25 25.2H.25M-72.25 10.8H.25M-72.25 61.2H.25M-72.25 46.8H.25M-72.25 32.4H.25M-72.25 18H.25M-72.25 3.6H.25"/>
    </pattern>
    <pattern id="_10_lpi_80_3" data-name="10 lpi 80%" width="72" height="72" patternTransform="matrix(.84 -.36 .52 1.1 -23.47 265.48)" patternUnits="userSpaceOnUse">
      <path class="cls-1" d="M0 0h72v72H0z"/>
      <path class="cls-2" d="M71.75 68.4h72.5M71.75 54h72.5M71.75 39.6h72.5M71.75 25.2h72.5M71.75 10.8h72.5M71.75 61.2h72.5M71.75 46.8h72.5M71.75 32.4h72.5M71.75 18h72.5M71.75 3.6h72.5M-.25 68.4h72.5M-.25 54h72.5M-.25 39.6h72.5M-.25 25.2h72.5M-.25 10.8h72.5M-.25 61.2h72.5M-.25 46.8h72.5M-.25 32.4h72.5M-.25 18h72.5M-.25 3.6h72.5M-72.25 68.4H.25M-72.25 54H.25M-72.25 39.6H.25M-72.25 25.2H.25M-72.25 10.8H.25M-72.25 61.2H.25M-72.25 46.8H.25M-72.25 32.4H.25M-72.25 18H.25M-72.25 3.6H.25"/>
    </pattern>
    <pattern id="_10_lpi_80_5" data-name="10 lpi 80%" width="72" height="72" patternTransform="matrix(1.03 -.46 .5 1.1 -161.99 418.24)" patternUnits="userSpaceOnUse">
      <path class="cls-1" d="M0 0h72v72H0z"/>
      <path class="cls-2" d="M71.75 68.4h72.5M71.75 54h72.5M71.75 39.6h72.5M71.75 25.2h72.5M71.75 10.8h72.5M71.75 61.2h72.5M71.75 46.8h72.5M71.75 32.4h72.5M71.75 18h72.5M71.75 3.6h72.5M-.25 68.4h72.5M-.25 54h72.5M-.25 39.6h72.5M-.25 25.2h72.5M-.25 10.8h72.5M-.25 61.2h72.5M-.25 46.8h72.5M-.25 32.4h72.5M-.25 18h72.5M-.25 3.6h72.5M-72.25 68.4H.25M-72.25 54H.25M-72.25 39.6H.25M-72.25 25.2H.25M-72.25 10.8H.25M-72.25 61.2H.25M-72.25 46.8H.25M-72.25 32.4H.25M-72.25 18H.25M-72.25 3.6H.25"/>
    </pattern>
    <pattern id="_10_lpi_80_7" data-name="10 lpi 80%" width="72" height="72" patternTransform="matrix(1.11 .16 -.16 1.2 -270.72 184.31)" patternUnits="userSpaceOnUse">
      <path class="cls-1" d="M0 0h72v72H0z"/>
      <path class="cls-2" d="M71.75 68.4h72.5M71.75 54h72.5M71.75 39.6h72.5M71.75 25.2h72.5M71.75 10.8h72.5M71.75 61.2h72.5M71.75 46.8h72.5M71.75 32.4h72.5M71.75 18h72.5M71.75 3.6h72.5M-.25 68.4h72.5M-.25 54h72.5M-.25 39.6h72.5M-.25 25.2h72.5M-.25 10.8h72.5M-.25 61.2h72.5M-.25 46.8h72.5M-.25 32.4h72.5M-.25 18h72.5M-.25 3.6h72.5M-72.25 68.4H.25M-72.25 54H.25M-72.25 39.6H.25M-72.25 25.2H.25M-72.25 10.8H.25M-72.25 61.2H.25M-72.25 46.8H.25M-72.25 32.4H.25M-72.25 18H.25M-72.25 3.6H.25"/>
    </pattern>
    <pattern id="_10_lpi_80_9" data-name="10 lpi 80%" width="72" height="72" patternTransform="matrix(1.11 .16 -.16 1.2 -286.02 218.92)" patternUnits="userSpaceOnUse">
      <path class="cls-1" d="M0 0h72v72H0z"/>
      <path class="cls-2" d="M71.75 68.4h72.5M71.75 54h72.5M71.75 39.6h72.5M71.75 25.2h72.5M71.75 10.8h72.5M71.75 61.2h72.5M71.75 46.8h72.5M71.75 32.4h72.5M71.75 18h72.5M71.75 3.6h72.5M-.25 68.4h72.5M-.25 54h72.5M-.25 39.6h72.5M-.25 25.2h72.5M-.25 10.8h72.5M-.25 61.2h72.5M-.25 46.8h72.5M-.25 32.4h72.5M-.25 18h72.5M-.25 3.6h72.5M-72.25 68.4H.25M-72.25 54H.25M-72.25 39.6H.25M-72.25 25.2H.25M-72.25 10.8H.25M-72.25 61.2H.25M-72.25 46.8H.25M-72.25 32.4H.25M-72.25 18H.25M-72.25 3.6H.25"/>
    </pattern>
    <pattern id="_10_lpi_80_11" data-name="10 lpi 80%" width="72" height="72" patternTransform="matrix(.74 -.43 .65 1.02 -68.54 229.84)" patternUnits="userSpaceOnUse">
      <path class="cls-1" d="M0 0h72v72H0z"/>
      <path class="cls-2" d="M71.75 68.4h72.5M71.75 54h72.5M71.75 39.6h72.5M71.75 25.2h72.5M71.75 10.8h72.5M71.75 61.2h72.5M71.75 46.8h72.5M71.75 32.4h72.5M71.75 18h72.5M71.75 3.6h72.5M-.25 68.4h72.5M-.25 54h72.5M-.25 39.6h72.5M-.25 25.2h72.5M-.25 10.8h72.5M-.25 61.2h72.5M-.25 46.8h72.5M-.25 32.4h72.5M-.25 18h72.5M-.25 3.6h72.5M-72.25 68.4H.25M-72.25 54H.25M-72.25 39.6H.25M-72.25 25.2H.25M-72.25 10.8H.25M-72.25 61.2H.25M-72.25 46.8H.25M-72.25 32.4H.25M-72.25 18H.25M-72.25 3.6H.25"/>
    </pattern>
  </defs>
  <g id="Layer_2" data-name="Layer 2">
    <g id="tiger">
      <path id="tail-2" data-name="tail" class="cls-3" d="M176.09 227.16c83.13-110-35.23-154.93-6.85-172.68 3.45-2.16 6.24-5.28 6.3-9.27.12-8.19-7.69-12.8-16.2-12.34a21.53 21.53 0 0 0-14.68 7.19c-19.54 21.49 16 42.58 23.7 51.76 54.39 69.33-.62 122.37-.62 122.37z"/>
      <g clip-path="url(#clip-path)">
        <g id="stripes">
          <path fill="url(#_10_lpi_80_)" d="M180.19 85.35l-12.81 7.56 4.57 6.51 14.52-6.19-6.28-7.88z"/>
          <path fill="url(#_10_lpi_80_3)" d="M196.64 109.86l-16.61 5.36 3.3 8.49 17.78-5.27-4.47-8.58z"/>
          <path fill="url(#_10_lpi_80_5)" d="M207.28 137.81L187.24 145l3.08 8.61 21.42-7.21-4.46-8.59z"/>
          <path fill="url(#_10_lpi_80_7)" d="M206.95 173.77l-20.81-4.5-1.94 8.93 21.98 5.22.77-9.65z"/>
          <path fill="url(#_10_lpi_80_9)" d="M191.65 208.38l-20.81-4.51-1.94 8.93 21.98 5.22.77-9.64z"/>
          <path d="M165.24 63.44L145.75 72l7.7 7.51s.3-.37 15.3-8.07c-1.22-1.25-3.51-8-3.51-8z" fill="url(#_10_lpi_80_11)"/>
        </g>
      </g>
      <path id="body" class="cls-11" d="M154.53 87.69c-2.86 105.53 20.08 122.81 20.08 122.81 10 11.54 5 18.07-1.73 21.62-5.79 3.08-12.4 2.18-19 1.95-48-1.66-72.68-1.06-72.68-1.06-45.74 0-33.38-21.7-33.38-21.7 3.09-4.15 3-5.94 2.57-6.7a10.86 10.86 0 0 1-1.61-3.83c-1.15-6.73 1-15.09 3.33-21.52a55.94 55.94 0 0 0 2.11-31c-4.84-22.06-15.66-44.86-15.66-44.86.85-1.9 58.34-66.4 115.97-15.71z"/>
      <path id="body_pocket" class="cls-12" d="M63 178.12c-2.19 10.6-.46 23.93.12 27.76a2 2 0 0 0 1.17 1.53c31.52 13.91 72.54 10.32 86 8.63a2 2 0 0 0 1.34-3.19c-4.67-6-5.81-19.19-6.06-23.67a2 2 0 0 0-1.62-1.83c-57.65-11.84-74.76-11.44-79.24-10.83a2 2 0 0 0-1.71 1.6z"/>
      <path id="upperarm_left" class="cls-12" d="M22.76 137.3a16.89 16.89 0 0 1-.65-24.3l30.07-30.91a17.94 17.94 0 0 1 24.91-.64 16.89 16.89 0 0 1 .65 24.29l-30.07 30.92a17.93 17.93 0 0 1-24.91.64z"/>
      <path id="lowerarm_left" class="cls-13" d="M9.58 106.81l5.55-5.69c5.17-5.3 14.19-5.13 20.15.4l13.63 12.63c6 5.53 6.59 14.31 1.42 19.61l-5.54 5.69c-5.18 5.31-14.2 5.13-20.16-.4L11 126.42c-5.95-5.53-6.59-14.31-1.42-19.61z"/>
      <g id="hand_left">
        <path class="cls-3" d="M38.63 102.74a23 23 0 0 0-32 0 21.68 21.68 0 0 0 0 31.21l7 6.84a7.19 7.19 0 0 0 5.94 2l.5-.08a8.27 8.27 0 0 0 5.77-4.52 7.26 7.26 0 0 0 .47-5.44l-1-1c.27.13.54.25.83.36a7.43 7.43 0 0 0-.37-.81l1 1a7.85 7.85 0 0 0 5.59-.46 8.37 8.37 0 0 0 4-3.89 7.31 7.31 0 0 0 .48-5.46l-1.05-1a6.71 6.71 0 0 0 .83.36 9.69 9.69 0 0 0-.37-.81l1 1a7.74 7.74 0 0 0 4.3 0 8.13 8.13 0 0 0 6.07-7.81v-.09a6.71 6.71 0 0 0-2.05-4.53z"/>
        <path d="M35 127.09c1.94.34 3.25 7 3.25 7a.6.6 0 0 1-.8.78s-6.84-1.27-7.2-3.16c-.34-1.6 3.06-4.92 4.75-4.62zM45.47 116.84c1.94.34 3.25 7 3.25 7a.6.6 0 0 1-.81.78s-6.83-1.27-7.19-3.16c-.3-1.6 3.1-4.92 4.75-4.62zM24.46 137.33c1.94.35 3.24 7 3.24 7a.6.6 0 0 1-.8.78s-6.84-1.27-7.19-3.17c-.3-1.59 3.09-4.94 4.75-4.61z"/>
      </g>
      <g id="headphones">
        <ellipse id="headphones_right" class="cls-14" cx="103.15" cy="107.19" rx="15.45" ry="15.07"/>
        <path id="headphone_main" class="cls-15" d="M106.44 106.22a3.76 3.76 0 0 0 5.37 2.76c8.56-4 15.31-10.75 18.34-19.34 6.3-17.84-5.84-37-27.12-42.74s-43.65 4-49.95 21.89a29 29 0 0 0 .72 21.14 4.44 4.44 0 0 0 6.39 2.13 5.36 5.36 0 0 0 2.57-5.63 23.75 23.75 0 0 1 1-12.28c4.71-13.33 19.13-19 35-14.73s23.59 16.45 18.89 29.78a26 26 0 0 1-9.45 12.51 4.52 4.52 0 0 0-1.82 4.51z"/>
        <ellipse id="headphones_left" class="cls-14" cx="60.19" cy="92.12" rx="15.45" ry="15.07"/>
        <ellipse id="headphones_left_inside" class="cls-15" cx="60.19" cy="92.12" rx="6.8" ry="6.63"/>
      </g>
      <path id="upperarm_right" class="cls-12" d="M155.15 180.61a17.48 17.48 0 0 1-18.9-15.83L131.53 104a17.33 17.33 0 0 1 16.24-18.43 17.48 17.48 0 0 1 18.89 15.84l4.73 60.77a17.33 17.33 0 0 1-16.24 18.43z"/>
      <g id="head">
        <path id="head_main" class="cls-3" d="M101.62 32.56C121.8 21.81 132.44 37 133.71 39a.36.36 0 0 1 0 .41c-5.92 8.21-9.86 10-11.23 10.38a.38.38 0 0 0-.21.58l5.17 7.59a.38.38 0 0 1-.37.59l-4-.44a.38.38 0 0 0-.27.68l2.2 1.52a.38.38 0 0 1-.16.69l-1.25.22a12 12 0 0 0-6.72 3.67 146.8 146.8 0 0 0-16.61 21.46 12.85 12.85 0 0 1-5.77 5c-3.93 1.68-6.88 1.12-9 0-2.47-1.39-4.39-3.93-4.27-6.72.7-16-14.52-27.38-14.54-27.38-26.14 4.65-5.91-36.89-1.06-37.76 22.9-5.2 33.93 10.59 35.44 13a.39.39 0 0 0 .56.07z"/>
        <g id="hat">
          <path id="hat_main" class="cls-12" d="M120.81 37.65c.21-44.74-72.13-49-58.09-16 28.85 8.65 58.09 16 58.09 16z"/>
          <path class="cls-16" d="M91.66 17.5a4.79 4.79 0 0 1-6.25 1.8A6.52 6.52 0 0 1 83 16.78a8.88 8.88 0 0 1-1.16-3.17 5.49 5.49 0 0 1 7.1-6 5.22 5.22 0 0 1 1.57.82 4.71 4.71 0 0 1 1.12 1.29.1.1 0 0 1 0 .13h-.1a5.93 5.93 0 0 0-5.46-.35A5.55 5.55 0 0 0 84 11.08a6.22 6.22 0 0 0-1.13 2.53 3.72 3.72 0 0 0 .67 2.84A4.48 4.48 0 0 0 86 17.92a7 7 0 0 0 5.54-.55.11.11 0 0 1 .13 0 .07.07 0 0 1-.01.13z" id="cat_logo"/>
          <path id="hat_flap" class="cls-11" d="M97.13 31.37C65.62-11.56 29.6 2.82 48.71 29a8.13 8.13 0 0 0 8.34 3c20.48-4.52 40.08-.63 40.08-.63z"/>
        </g>
        <g id="whiskers_left">
          <path d="M52.87 52.73c-1.42.8-2.87 1.55-4.27 2.38s-2.8 1.67-4.14 2.6a89.08 89.08 0 0 0-7.85 5.83 86.67 86.67 0 0 0-7.13 6.69 57.73 57.73 0 0 0-6.16 7.61 57 57 0 0 1 6-7.73 85.87 85.87 0 0 1 7-6.86 90.43 90.43 0 0 1 7.78-6c1.33-1 2.74-1.8 4.12-2.7s2.83-1.65 4.25-2.47a.35.35 0 0 1 .5.13.37.37 0 0 1-.13.51zM50.45 50.12L46 51.53c-1.45.55-2.93 1-4.36 1.63s-2.86 1.15-4.25 1.84l-2.11 1-2.06 1.08a66 66 0 0 0-7.9 4.92 38.14 38.14 0 0 0-6.84 6.29 38 38 0 0 1 6.73-6.44A65.35 65.35 0 0 1 33 56.74l2.05-1.12 2.1-1c1.38-.72 2.83-1.3 4.26-1.94s2.9-1.14 4.35-1.72l4.43-1.51a.36.36 0 0 1 .47.23.37.37 0 0 1-.23.47zM50 48.35c-3.46-.08-6.93-.11-10.39.15a102.38 102.38 0 0 0-10.33 1.19 100.68 100.68 0 0 0-10.17 2.22 77.89 77.89 0 0 0-9.87 3.33 79.1 79.1 0 0 1 9.82-3.51A104.7 104.7 0 0 1 39.58 48 101.16 101.16 0 0 1 50 47.61a.37.37 0 0 1 0 .74z"/>
        </g>
        <g id="whiskers_right">
          <path d="M74.86 49.32c1.62.29 3.24.53 4.85.86s3.21.66 4.79 1.11a90.14 90.14 0 0 1 9.37 3 83.54 83.54 0 0 1 9 4 57.57 57.57 0 0 1 8.33 5.17 58.12 58.12 0 0 0-8.41-5 82.76 82.76 0 0 0-9-3.82 89.32 89.32 0 0 0-9.38-2.77c-1.57-.41-3.18-.68-4.78-1s-3.21-.5-4.82-.76a.38.38 0 0 1-.31-.43.37.37 0 0 1 .42-.31zM76.09 46l4.68-.11c1.56 0 3.12 0 4.68.12s3.11.15 4.66.35l2.33.25 2.31.34a67.56 67.56 0 0 1 9.11 2.1 37.73 37.73 0 0 1 8.54 3.72 37.66 37.66 0 0 0-8.59-3.54 66.13 66.13 0 0 0-9.11-1.91l-2.31-.3-2.32-.2c-1.54-.16-3.1-.18-4.64-.26s-3.11 0-4.65 0l-4.65.2a.37.37 0 1 1 0-.74zM75.65 44.27c3.27-1.22 6.56-2.39 9.93-3.28a99.21 99.21 0 0 1 10.19-2.28 100.47 100.47 0 0 1 10.37-1.25 80.52 80.52 0 0 1 10.42-.1 78.66 78.66 0 0 0-10.41.29 102.19 102.19 0 0 0-10.31 1.42 99.89 99.89 0 0 0-10.11 2.45c-3.33.95-6.58 2.17-9.8 3.44a.37.37 0 0 1-.48-.21.36.36 0 0 1 .21-.48z"/>
        </g>
        <path id="glasses" class="cls-17" d="M70.84 31.21c-5.31-1.91-10.47.85-10.47.85-3-2.07-8.87-.25-12 1a3.77 3.77 0 0 0-2.37 3.1c-1.87 19.25 17.64 10.72 14.6-2.92a12.22 12.22 0 0 1 9.35-1S65.87 48.83 81.3 49.67l5.22-.07A12.76 12.76 0 0 0 99.26 37v-.8a7.22 7.22 0 0 0-7.39-7.11l-16.06.19a6.76 6.76 0 0 0-4.97 1.93z"/>
        <path id="nose" class="cls-13" d="M65 40.42a46.47 46.47 0 0 0-9.74 1.73 6.49 6.49 0 0 0 4.5 4.1A13.84 13.84 0 0 0 65 40.42z"/>
        <path id="ear" class="cls-3" d="M101.12 32.44a.39.39 0 0 0 .5.12C121.8 21.81 132.44 37 133.71 39a.36.36 0 0 1 0 .41c-5.92 8.21-9.86 10-11.23 10.38a.38.38 0 0 0-.21.58z"/>
        <path d="M114.45 39.58a33.82 33.82 0 0 1 5.34-1.58 15.43 15.43 0 0 1 2.81-.35 6.1 6.1 0 0 1 1.46.13 2.41 2.41 0 0 1 .76.3 1.05 1.05 0 0 1 .55.88v.16l-.16.11a11.33 11.33 0 0 1-2.31 1.28 10.88 10.88 0 0 1-2.52.73v-.51a2.86 2.86 0 0 1 1 .35.89.89 0 0 1 .23.27.59.59 0 0 1 0 .39 1 1 0 0 1-.39.47c-.8.29-1.59.6-2.4.86.74-.42 1.5-.79 2.25-1.19a.64.64 0 0 0 .21-.3c0-.07 0-.1-.11-.17a2.58 2.58 0 0 0-.85-.21l-1.4-.15 1.39-.36a14.21 14.21 0 0 0 2.34-.84 13.11 13.11 0 0 0 2.15-1.25l-.15.27s-.08-.14-.23-.21a1.66 1.66 0 0 0-.52-.21 6 6 0 0 0-1.29-.13 19.31 19.31 0 0 0-2.71.23c-.91.12-1.82.27-2.72.46s-1.82.41-2.73.57z" id="inside_ear"/>
        <g id="whisker_dots">
          <ellipse id="whisker_dot1" cx="67.3" cy="47.2" rx=".46" ry=".45" transform="rotate(-10.09 67.296 47.21)"/>
          <ellipse id="whisker_dot2" cx="74.13" cy="50.27" rx=".46" ry=".45" transform="rotate(-10.09 74.104 50.265)"/>
          <ellipse id="whisker_dot3" cx="67.43" cy="51.46" rx=".46" ry=".45" transform="rotate(-10.09 67.435 51.445)"/>
        </g>
        <g id="whisker_dots-2" data-name="whisker_dots">
          <ellipse id="whisker_dot1-2" data-name="whisker_dot1" cx="53.92" cy="49.58" rx=".46" ry=".45" transform="rotate(-10.09 53.902 49.566)"/>
          <ellipse id="whisker_dot2-2" data-name="whisker_dot2" cx="58.2" cy="52.49" rx=".46" ry=".45" transform="rotate(-10.09 58.208 52.514)"/>
        </g>
        <path id="mouth" class="cls-17" d="M81.11 80.71s3 11.93 12.16-1.87c3.3-5 5.13-11.58 2.34-16.8C92.93 57 86 53.45 75.3 57.25a10.91 10.91 0 0 1-7.37.1c-3.1-1.14-6.6-4-8.17-11.1 0 0 1.52 7.52 6.37 11.11C76.74 64 81.11 80.71 81.11 80.71z"/>
        <path id="tooth_right" class="cls-18" d="M58.26 56.7c2.72 2.56 4.58 4 5.5 4.76a.35.35 0 0 0 .56-.32 6.64 6.64 0 0 1 .37-3.62c-2.82.6-6.43-.82-6.43-.82z"/>
        <path id="tooth_left" class="cls-18" d="M75.58 57.51c2.72 2.56 3.61 3.4 4.53 4.1a.35.35 0 0 0 .56-.32 17.78 17.78 0 0 1 .17-4.71 13.41 13.41 0 0 0-5.26.93z"/>
        <path id="tongue" class="cls-16" d="M96.41 68.5c-4.57-1-7.24 1.9-8.83 7.09a8.17 8.17 0 0 1-5.85 5.93c3.83 10.96 16.56-6 14.68-13.02z"/>
        <path id="nose_line" d="M60.24 38.37a8.92 8.92 0 0 1 6.8-.75" stroke-miterlimit="10" stroke="#000" stroke-width=".44" fill="none"/>
      </g>
      <g id="microphone">
        <path id="microphone_head" class="cls-17" d="M79.93 94.75c-3-2.94-4.77-6-1.75-9l1.75-1.71a7.87 7.87 0 0 1 10.93 0 7.42 7.42 0 0 1 0 10.66l-1.75 1.7c-3.02 3-6.11 1.29-9.18-1.65z"/>
        <path id="microphone_body" class="cls-17" d="M51.52 122.46c-1.56-1.53-2.49-3.12-1-4.71l25.34-26.66c2.13-2.28 3.15.2 5.38 2.38 2.23 2.18 4.78 3.17 2.45 5.25l-27.35 24.72c-1.62 1.45-3.26.56-4.82-.98z"/>
        <path id="microphone_head_line" class="cls-20" d="M89.46 96.11c1.31-1.28-.2-4.57-3.22-7.52-3-2.94-6.39-4.42-7.7-3.14l.9-.88c1.31-1.28 4.68.2 7.7 3.14 3 3 4.53 6.24 3.22 7.52z"/>
        <path id="microphone_body_line" class="cls-20" d="M83.65 98.8c1-1-.31-3.14-2.48-5.26-2.17-2.12-4.33-3.45-5.39-2.42l.73-.71c1.06-1 3.21.3 5.39 2.42 2.17 2.12 3.53 4.22 2.47 5.26z"/>
        <path id="microphone_body_line2" d="M79.89 102c.94-.92 0-3.29-2-5.29-2.06-2-4.49-2.87-5.43-2" stroke="#3a3a3a" stroke-width=".67" stroke-miterlimit="10" fill="none"/>
      </g>
      <g id="hand_right">
        <path class="cls-3" d="M69.48 123c8.84 6.59 23.17 6.59 32 0 8.84-6.59 8.84-17.28 0-23.88l-7-5.23a8.63 8.63 0 0 0-5.94-1.56l-.5.06a8.27 8.27 0 0 0-5.78 3.46 4.41 4.41 0 0 0-.46 4.16l1 .78c-.27-.1-.54-.19-.83-.27a5.51 5.51 0 0 0 .37.61l-1-.77a10.07 10.07 0 0 0-5.59.35 7.76 7.76 0 0 0-4 3 4.43 4.43 0 0 0-.48 4.18l1 .77c-.27-.1-.55-.19-.83-.27a5.63 5.63 0 0 0 .37.62l-1-.78a10 10 0 0 0-4.3 0c-3.56.77-6.14 3.21-6.07 6v.07a4.71 4.71 0 0 0 2.05 3.47z"/>
        <path d="M73.15 104.41c-1.94-.26-3.25-5.36-3.25-5.36-.23-.38.29-.77.8-.6 0 0 6.84 1 7.19 2.42.31 1.23-3.09 3.77-4.74 3.54zM62.64 112.25c-1.94-.26-3.25-5.36-3.25-5.36-.23-.38.3-.77.81-.6 0 0 6.83 1 7.19 2.42.3 1.23-3.1 3.77-4.75 3.54zM83.65 96.57c-1.94-.26-3.24-5.36-3.24-5.36-.23-.38.29-.77.8-.6 0 0 6.84 1 7.19 2.42.3 1.23-3.09 3.77-4.75 3.54z"/>
      </g>
      <path id="lowerarm_right" class="cls-13" d="M166.82 174.74c-6.34 7.2-17.84 7.7-25.68 1.13L91 133.84c-7.84-6.57 15.11-32.63 23-26.06l50.16 42c7.78 6.6 9 17.76 2.66 24.96z"/>
    </g>
  </g>
</svg>
