<svg xmlns="http://www.w3.org/2000/svg" xmlns:xlink="http://www.w3.org/1999/xlink" viewBox="0 0 211.74 234.37"><defs><style>.cls-1,.cls-19,.cls-2,.cls-21{fill:none;}.cls-2{stroke:#231f20;stroke-width:5.76px;}.cls-3{fill:#f69852;}.cls-4{clip-path:url(#clip-path);}.cls-5{fill:url(#_10_lpi_80_);}.cls-6{fill:url(#_10_lpi_80_3);}.cls-7{fill:url(#_10_lpi_80_5);}.cls-8{fill:url(#_10_lpi_80_7);}.cls-9{fill:url(#_10_lpi_80_9);}.cls-10{fill:url(#_10_lpi_80_11);}.cls-11{fill:#7f5e9a;}.cls-12{fill:#d6d922;}.cls-13{fill:#ff5050;}.cls-14{fill:#28bfbb;}.cls-15{fill:#0e666c;}.cls-16{fill:#ff1d1d;}.cls-17{fill:#070707;}.cls-18{fill:#fff;}.cls-19{stroke:#000;stroke-width:0.44px;}.cls-19,.cls-21{stroke-miterlimit:10;}.cls-20{fill:#3a3a3a;}.cls-21{stroke:#3a3a3a;stroke-width:0.67px;}</style><clipPath id="clip-path"><path id="tail" class="cls-1" d="M176.09,227.16c83.13-110-35.23-154.93-6.85-172.68,3.45-2.16,6.24-5.28,6.3-9.27.12-8.19-7.69-12.8-16.2-12.34a21.53,21.53,0,0,0-14.68,7.19c-19.54,21.49,16,42.58,23.7,51.76,54.39,69.33-.62,122.37-.62,122.37Z"/></clipPath><pattern id="_10_lpi_80_" data-name="10 lpi 80%" width="72" height="72" patternTransform="matrix(0.71, -0.4, 0.66, 1.02, -17.94, 221.73)" patternUnits="userSpaceOnUse" viewBox="0 0 72 72"><rect class="cls-1" width="72" height="72"/><line class="cls-2" x1="71.75" y1="68.4" x2="144.25" y2="68.4"/><line class="cls-2" x1="71.75" y1="54" x2="144.25" y2="54"/><line class="cls-2" x1="71.75" y1="39.6" x2="144.25" y2="39.6"/><line class="cls-2" x1="71.75" y1="25.2" x2="144.25" y2="25.2"/><line class="cls-2" x1="71.75" y1="10.8" x2="144.25" y2="10.8"/><line class="cls-2" x1="71.75" y1="61.2" x2="144.25" y2="61.2"/><line class="cls-2" x1="71.75" y1="46.8" x2="144.25" y2="46.8"/><line class="cls-2" x1="71.75" y1="32.4" x2="144.25" y2="32.4"/><line class="cls-2" x1="71.75" y1="18" x2="144.25" y2="18"/><line class="cls-2" x1="71.75" y1="3.6" x2="144.25" y2="3.6"/><line class="cls-2" x1="-0.25" y1="68.4" x2="72.25" y2="68.4"/><line class="cls-2" x1="-0.25" y1="54" x2="72.25" y2="54"/><line class="cls-2" x1="-0.25" y1="39.6" x2="72.25" y2="39.6"/><line class="cls-2" x1="-0.25" y1="25.2" x2="72.25" y2="25.2"/><line class="cls-2" x1="-0.25" y1="10.8" x2="72.25" y2="10.8"/><line class="cls-2" x1="-0.25" y1="61.2" x2="72.25" y2="61.2"/><line class="cls-2" x1="-0.25" y1="46.8" x2="72.25" y2="46.8"/><line class="cls-2" x1="-0.25" y1="32.4" x2="72.25" y2="32.4"/><line class="cls-2" x1="-0.25" y1="18" x2="72.25" y2="18"/><line class="cls-2" x1="-0.25" y1="3.6" x2="72.25" y2="3.6"/><line class="cls-2" x1="-72.25" y1="68.4" x2="0.25" y2="68.4"/><line class="cls-2" x1="-72.25" y1="54" x2="0.25" y2="54"/><line class="cls-2" x1="-72.25" y1="39.6" x2="0.25" y2="39.6"/><line class="cls-2" x1="-72.25" y1="25.2" x2="0.25" y2="25.2"/><line class="cls-2" x1="-72.25" y1="10.8" x2="0.25" y2="10.8"/><line class="cls-2" x1="-72.25" y1="61.2" x2="0.25" y2="61.2"/><line class="cls-2" x1="-72.25" y1="46.8" x2="0.25" y2="46.8"/><line class="cls-2" x1="-72.25" y1="32.4" x2="0.25" y2="32.4"/><line class="cls-2" x1="-72.25" y1="18" x2="0.25" y2="18"/><line class="cls-2" x1="-72.25" y1="3.6" x2="0.25" y2="3.6"/></pattern><pattern id="_10_lpi_80_3" data-name="10 lpi 80%" width="72" height="72" patternTransform="matrix(0.84, -0.36, 0.52, 1.1, -23.47, 265.48)" patternUnits="userSpaceOnUse" viewBox="0 0 72 72"><rect class="cls-1" width="72" height="72"/><line class="cls-2" x1="71.75" y1="68.4" x2="144.25" y2="68.4"/><line class="cls-2" x1="71.75" y1="54" x2="144.25" y2="54"/><line class="cls-2" x1="71.75" y1="39.6" x2="144.25" y2="39.6"/><line class="cls-2" x1="71.75" y1="25.2" x2="144.25" y2="25.2"/><line class="cls-2" x1="71.75" y1="10.8" x2="144.25" y2="10.8"/><line class="cls-2" x1="71.75" y1="61.2" x2="144.25" y2="61.2"/><line class="cls-2" x1="71.75" y1="46.8" x2="144.25" y2="46.8"/><line class="cls-2" x1="71.75" y1="32.4" x2="144.25" y2="32.4"/><line class="cls-2" x1="71.75" y1="18" x2="144.25" y2="18"/><line class="cls-2" x1="71.75" y1="3.6" x2="144.25" y2="3.6"/><line class="cls-2" x1="-0.25" y1="68.4" x2="72.25" y2="68.4"/><line class="cls-2" x1="-0.25" y1="54" x2="72.25" y2="54"/><line class="cls-2" x1="-0.25" y1="39.6" x2="72.25" y2="39.6"/><line class="cls-2" x1="-0.25" y1="25.2" x2="72.25" y2="25.2"/><line class="cls-2" x1="-0.25" y1="10.8" x2="72.25" y2="10.8"/><line class="cls-2" x1="-0.25" y1="61.2" x2="72.25" y2="61.2"/><line class="cls-2" x1="-0.25" y1="46.8" x2="72.25" y2="46.8"/><line class="cls-2" x1="-0.25" y1="32.4" x2="72.25" y2="32.4"/><line class="cls-2" x1="-0.25" y1="18" x2="72.25" y2="18"/><line class="cls-2" x1="-0.25" y1="3.6" x2="72.25" y2="3.6"/><line class="cls-2" x1="-72.25" y1="68.4" x2="0.25" y2="68.4"/><line class="cls-2" x1="-72.25" y1="54" x2="0.25" y2="54"/><line class="cls-2" x1="-72.25" y1="39.6" x2="0.25" y2="39.6"/><line class="cls-2" x1="-72.25" y1="25.2" x2="0.25" y2="25.2"/><line class="cls-2" x1="-72.25" y1="10.8" x2="0.25" y2="10.8"/><line class="cls-2" x1="-72.25" y1="61.2" x2="0.25" y2="61.2"/><line class="cls-2" x1="-72.25" y1="46.8" x2="0.25" y2="46.8"/><line class="cls-2" x1="-72.25" y1="32.4" x2="0.25" y2="32.4"/><line class="cls-2" x1="-72.25" y1="18" x2="0.25" y2="18"/><line class="cls-2" x1="-72.25" y1="3.6" x2="0.25" y2="3.6"/></pattern><pattern id="_10_lpi_80_5" data-name="10 lpi 80%" width="72" height="72" patternTransform="matrix(1.03, -0.46, 0.5, 1.1, -161.99, 418.24)" patternUnits="userSpaceOnUse" viewBox="0 0 72 72"><rect class="cls-1" width="72" height="72"/><line class="cls-2" x1="71.75" y1="68.4" x2="144.25" y2="68.4"/><line class="cls-2" x1="71.75" y1="54" x2="144.25" y2="54"/><line class="cls-2" x1="71.75" y1="39.6" x2="144.25" y2="39.6"/><line class="cls-2" x1="71.75" y1="25.2" x2="144.25" y2="25.2"/><line class="cls-2" x1="71.75" y1="10.8" x2="144.25" y2="10.8"/><line class="cls-2" x1="71.75" y1="61.2" x2="144.25" y2="61.2"/><line class="cls-2" x1="71.75" y1="46.8" x2="144.25" y2="46.8"/><line class="cls-2" x1="71.75" y1="32.4" x2="144.25" y2="32.4"/><line class="cls-2" x1="71.75" y1="18" x2="144.25" y2="18"/><line class="cls-2" x1="71.75" y1="3.6" x2="144.25" y2="3.6"/><line class="cls-2" x1="-0.25" y1="68.4" x2="72.25" y2="68.4"/><line class="cls-2" x1="-0.25" y1="54" x2="72.25" y2="54"/><line class="cls-2" x1="-0.25" y1="39.6" x2="72.25" y2="39.6"/><line class="cls-2" x1="-0.25" y1="25.2" x2="72.25" y2="25.2"/><line class="cls-2" x1="-0.25" y1="10.8" x2="72.25" y2="10.8"/><line class="cls-2" x1="-0.25" y1="61.2" x2="72.25" y2="61.2"/><line class="cls-2" x1="-0.25" y1="46.8" x2="72.25" y2="46.8"/><line class="cls-2" x1="-0.25" y1="32.4" x2="72.25" y2="32.4"/><line class="cls-2" x1="-0.25" y1="18" x2="72.25" y2="18"/><line class="cls-2" x1="-0.25" y1="3.6" x2="72.25" y2="3.6"/><line class="cls-2" x1="-72.25" y1="68.4" x2="0.25" y2="68.4"/><line class="cls-2" x1="-72.25" y1="54" x2="0.25" y2="54"/><line class="cls-2" x1="-72.25" y1="39.6" x2="0.25" y2="39.6"/><line class="cls-2" x1="-72.25" y1="25.2" x2="0.25" y2="25.2"/><line class="cls-2" x1="-72.25" y1="10.8" x2="0.25" y2="10.8"/><line class="cls-2" x1="-72.25" y1="61.2" x2="0.25" y2="61.2"/><line class="cls-2" x1="-72.25" y1="46.8" x2="0.25" y2="46.8"/><line class="cls-2" x1="-72.25" y1="32.4" x2="0.25" y2="32.4"/><line class="cls-2" x1="-72.25" y1="18" x2="0.25" y2="18"/><line class="cls-2" x1="-72.25" y1="3.6" x2="0.25" y2="3.6"/></pattern><pattern id="_10_lpi_80_7" data-name="10 lpi 80%" width="72" height="72" patternTransform="matrix(1.11, 0.16, -0.16, 1.2, -270.72, 184.31)" patternUnits="userSpaceOnUse" viewBox="0 0 72 72"><rect class="cls-1" width="72" height="72"/><line class="cls-2" x1="71.75" y1="68.4" x2="144.25" y2="68.4"/><line class="cls-2" x1="71.75" y1="54" x2="144.25" y2="54"/><line class="cls-2" x1="71.75" y1="39.6" x2="144.25" y2="39.6"/><line class="cls-2" x1="71.75" y1="25.2" x2="144.25" y2="25.2"/><line class="cls-2" x1="71.75" y1="10.8" x2="144.25" y2="10.8"/><line class="cls-2" x1="71.75" y1="61.2" x2="144.25" y2="61.2"/><line class="cls-2" x1="71.75" y1="46.8" x2="144.25" y2="46.8"/><line class="cls-2" x1="71.75" y1="32.4" x2="144.25" y2="32.4"/><line class="cls-2" x1="71.75" y1="18" x2="144.25" y2="18"/><line class="cls-2" x1="71.75" y1="3.6" x2="144.25" y2="3.6"/><line class="cls-2" x1="-0.25" y1="68.4" x2="72.25" y2="68.4"/><line class="cls-2" x1="-0.25" y1="54" x2="72.25" y2="54"/><line class="cls-2" x1="-0.25" y1="39.6" x2="72.25" y2="39.6"/><line class="cls-2" x1="-0.25" y1="25.2" x2="72.25" y2="25.2"/><line class="cls-2" x1="-0.25" y1="10.8" x2="72.25" y2="10.8"/><line class="cls-2" x1="-0.25" y1="61.2" x2="72.25" y2="61.2"/><line class="cls-2" x1="-0.25" y1="46.8" x2="72.25" y2="46.8"/><line class="cls-2" x1="-0.25" y1="32.4" x2="72.25" y2="32.4"/><line class="cls-2" x1="-0.25" y1="18" x2="72.25" y2="18"/><line class="cls-2" x1="-0.25" y1="3.6" x2="72.25" y2="3.6"/><line class="cls-2" x1="-72.25" y1="68.4" x2="0.25" y2="68.4"/><line class="cls-2" x1="-72.25" y1="54" x2="0.25" y2="54"/><line class="cls-2" x1="-72.25" y1="39.6" x2="0.25" y2="39.6"/><line class="cls-2" x1="-72.25" y1="25.2" x2="0.25" y2="25.2"/><line class="cls-2" x1="-72.25" y1="10.8" x2="0.25" y2="10.8"/><line class="cls-2" x1="-72.25" y1="61.2" x2="0.25" y2="61.2"/><line class="cls-2" x1="-72.25" y1="46.8" x2="0.25" y2="46.8"/><line class="cls-2" x1="-72.25" y1="32.4" x2="0.25" y2="32.4"/><line class="cls-2" x1="-72.25" y1="18" x2="0.25" y2="18"/><line class="cls-2" x1="-72.25" y1="3.6" x2="0.25" y2="3.6"/></pattern><pattern id="_10_lpi_80_9" data-name="10 lpi 80%" width="72" height="72" patternTransform="matrix(1.11, 0.16, -0.16, 1.2, -286.02, 218.92)" patternUnits="userSpaceOnUse" viewBox="0 0 72 72"><rect class="cls-1" width="72" height="72"/><line class="cls-2" x1="71.75" y1="68.4" x2="144.25" y2="68.4"/><line class="cls-2" x1="71.75" y1="54" x2="144.25" y2="54"/><line class="cls-2" x1="71.75" y1="39.6" x2="144.25" y2="39.6"/><line class="cls-2" x1="71.75" y1="25.2" x2="144.25" y2="25.2"/><line class="cls-2" x1="71.75" y1="10.8" x2="144.25" y2="10.8"/><line class="cls-2" x1="71.75" y1="61.2" x2="144.25" y2="61.2"/><line class="cls-2" x1="71.75" y1="46.8" x2="144.25" y2="46.8"/><line class="cls-2" x1="71.75" y1="32.4" x2="144.25" y2="32.4"/><line class="cls-2" x1="71.75" y1="18" x2="144.25" y2="18"/><line class="cls-2" x1="71.75" y1="3.6" x2="144.25" y2="3.6"/><line class="cls-2" x1="-0.25" y1="68.4" x2="72.25" y2="68.4"/><line class="cls-2" x1="-0.25" y1="54" x2="72.25" y2="54"/><line class="cls-2" x1="-0.25" y1="39.6" x2="72.25" y2="39.6"/><line class="cls-2" x1="-0.25" y1="25.2" x2="72.25" y2="25.2"/><line class="cls-2" x1="-0.25" y1="10.8" x2="72.25" y2="10.8"/><line class="cls-2" x1="-0.25" y1="61.2" x2="72.25" y2="61.2"/><line class="cls-2" x1="-0.25" y1="46.8" x2="72.25" y2="46.8"/><line class="cls-2" x1="-0.25" y1="32.4" x2="72.25" y2="32.4"/><line class="cls-2" x1="-0.25" y1="18" x2="72.25" y2="18"/><line class="cls-2" x1="-0.25" y1="3.6" x2="72.25" y2="3.6"/><line class="cls-2" x1="-72.25" y1="68.4" x2="0.25" y2="68.4"/><line class="cls-2" x1="-72.25" y1="54" x2="0.25" y2="54"/><line class="cls-2" x1="-72.25" y1="39.6" x2="0.25" y2="39.6"/><line class="cls-2" x1="-72.25" y1="25.2" x2="0.25" y2="25.2"/><line class="cls-2" x1="-72.25" y1="10.8" x2="0.25" y2="10.8"/><line class="cls-2" x1="-72.25" y1="61.2" x2="0.25" y2="61.2"/><line class="cls-2" x1="-72.25" y1="46.8" x2="0.25" y2="46.8"/><line class="cls-2" x1="-72.25" y1="32.4" x2="0.25" y2="32.4"/><line class="cls-2" x1="-72.25" y1="18" x2="0.25" y2="18"/><line class="cls-2" x1="-72.25" y1="3.6" x2="0.25" y2="3.6"/></pattern><pattern id="_10_lpi_80_11" data-name="10 lpi 80%" width="72" height="72" patternTransform="matrix(0.74, -0.43, 0.65, 1.02, -68.54, 229.84)" patternUnits="userSpaceOnUse" viewBox="0 0 72 72"><rect class="cls-1" width="72" height="72"/><line class="cls-2" x1="71.75" y1="68.4" x2="144.25" y2="68.4"/><line class="cls-2" x1="71.75" y1="54" x2="144.25" y2="54"/><line class="cls-2" x1="71.75" y1="39.6" x2="144.25" y2="39.6"/><line class="cls-2" x1="71.75" y1="25.2" x2="144.25" y2="25.2"/><line class="cls-2" x1="71.75" y1="10.8" x2="144.25" y2="10.8"/><line class="cls-2" x1="71.75" y1="61.2" x2="144.25" y2="61.2"/><line class="cls-2" x1="71.75" y1="46.8" x2="144.25" y2="46.8"/><line class="cls-2" x1="71.75" y1="32.4" x2="144.25" y2="32.4"/><line class="cls-2" x1="71.75" y1="18" x2="144.25" y2="18"/><line class="cls-2" x1="71.75" y1="3.6" x2="144.25" y2="3.6"/><line class="cls-2" x1="-0.25" y1="68.4" x2="72.25" y2="68.4"/><line class="cls-2" x1="-0.25" y1="54" x2="72.25" y2="54"/><line class="cls-2" x1="-0.25" y1="39.6" x2="72.25" y2="39.6"/><line class="cls-2" x1="-0.25" y1="25.2" x2="72.25" y2="25.2"/><line class="cls-2" x1="-0.25" y1="10.8" x2="72.25" y2="10.8"/><line class="cls-2" x1="-0.25" y1="61.2" x2="72.25" y2="61.2"/><line class="cls-2" x1="-0.25" y1="46.8" x2="72.25" y2="46.8"/><line class="cls-2" x1="-0.25" y1="32.4" x2="72.25" y2="32.4"/><line class="cls-2" x1="-0.25" y1="18" x2="72.25" y2="18"/><line class="cls-2" x1="-0.25" y1="3.6" x2="72.25" y2="3.6"/><line class="cls-2" x1="-72.25" y1="68.4" x2="0.25" y2="68.4"/><line class="cls-2" x1="-72.25" y1="54" x2="0.25" y2="54"/><line class="cls-2" x1="-72.25" y1="39.6" x2="0.25" y2="39.6"/><line class="cls-2" x1="-72.25" y1="25.2" x2="0.25" y2="25.2"/><line class="cls-2" x1="-72.25" y1="10.8" x2="0.25" y2="10.8"/><line class="cls-2" x1="-72.25" y1="61.2" x2="0.25" y2="61.2"/><line class="cls-2" x1="-72.25" y1="46.8" x2="0.25" y2="46.8"/><line class="cls-2" x1="-72.25" y1="32.4" x2="0.25" y2="32.4"/><line class="cls-2" x1="-72.25" y1="18" x2="0.25" y2="18"/><line class="cls-2" x1="-72.25" y1="3.6" x2="0.25" y2="3.6"/></pattern></defs><title>Asset 4</title><g id="Layer_2" data-name="Layer 2"><g id="tiger"><path id="tail-2" data-name="tail" class="cls-3" d="M176.09,227.16c83.13-110-35.23-154.93-6.85-172.68,3.45-2.16,6.24-5.28,6.3-9.27.12-8.19-7.69-12.8-16.2-12.34a21.53,21.53,0,0,0-14.68,7.19c-19.54,21.49,16,42.58,23.7,51.76,54.39,69.33-.62,122.37-.62,122.37Z"/><g class="cls-4"><g id="stripes"><polygon class="cls-5" points="180.19 85.35 167.38 92.91 171.95 99.42 186.47 93.23 180.19 85.35"/><polygon class="cls-6" points="196.64 109.86 180.03 115.22 183.33 123.71 201.11 118.44 196.64 109.86"/><polygon class="cls-7" points="207.28 137.81 187.24 145 190.32 153.61 211.74 146.4 207.28 137.81"/><polygon class="cls-8" points="206.95 173.77 186.14 169.27 184.2 178.2 206.18 183.42 206.95 173.77"/><polygon class="cls-9" points="191.65 208.38 170.84 203.87 168.9 212.8 190.88 218.02 191.65 208.38"/><path class="cls-10" d="M165.24,63.44,145.75,72l7.7,7.51s.3-.37,15.3-8.07C167.53,70.19,165.24,63.44,165.24,63.44Z"/></g></g><path id="body" class="cls-11" d="M154.53,87.69c-2.86,105.53,20.08,122.81,20.08,122.81,10,11.54,5,18.07-1.73,21.62-5.79,3.08-12.4,2.18-19,1.95-48-1.66-72.68-1.06-72.68-1.06-45.74,0-33.38-21.7-33.38-21.7,3.09-4.15,3-5.94,2.57-6.7a10.86,10.86,0,0,1-1.61-3.83c-1.15-6.73,1-15.09,3.33-21.52a55.94,55.94,0,0,0,2.11-31C49.38,126.2,38.56,103.4,38.56,103.4,39.41,101.5,96.9,37,154.53,87.69Z"/><path id="body_pocket" class="cls-12" d="M63,178.12c-2.19,10.6-.46,23.93.12,27.76a2,2,0,0,0,1.17,1.53c31.52,13.91,72.54,10.32,86,8.63a2,2,0,0,0,1.34-3.19c-4.67-6-5.81-19.19-6.06-23.67a2,2,0,0,0-1.62-1.83c-57.65-11.84-74.76-11.44-79.24-10.83A2,2,0,0,0,63,178.12Z"/><path id="upperarm_left" class="cls-12" d="M22.76,137.3h0A16.89,16.89,0,0,1,22.11,113L52.18,82.09a17.94,17.94,0,0,1,24.91-.64h0a16.89,16.89,0,0,1,.65,24.29L47.67,136.66A17.93,17.93,0,0,1,22.76,137.3Z"/><path id="lowerarm_left" class="cls-13" d="M9.58,106.81l5.55-5.69c5.17-5.3,14.19-5.13,20.15.4l13.63,12.63c6,5.53,6.59,14.31,1.42,19.61l-5.54,5.69c-5.18,5.31-14.2,5.13-20.16-.4L11,126.42C5.05,120.89,4.41,112.11,9.58,106.81Z"/><g id="hand_left"><path class="cls-3" d="M38.63,102.74a23,23,0,0,0-32,0h0a21.68,21.68,0,0,0,0,31.21l7,6.84a7.19,7.19,0,0,0,5.94,2l.5-.08a8.27,8.27,0,0,0,5.77-4.52,7.26,7.26,0,0,0,.47-5.44l-1-1c.27.13.54.25.83.36a7.43,7.43,0,0,0-.37-.81l1,1a7.85,7.85,0,0,0,5.59-.46,8.37,8.37,0,0,0,4-3.89,7.31,7.31,0,0,0,.48-5.46l-1.05-1a6.71,6.71,0,0,0,.83.36c-.11-.27-.23-.54-.37-.81l1,1a7.74,7.74,0,0,0,4.3,0,8.13,8.13,0,0,0,6.07-7.81v-.09a6.71,6.71,0,0,0-2.05-4.53Z"/><path d="M35,127.09c1.94.34,3.25,7,3.25,7a.6.6,0,0,1-.8.78s-6.84-1.27-7.2-3.16C29.91,130.11,33.31,126.79,35,127.09Z"/><path d="M45.47,116.84c1.94.34,3.25,7,3.25,7a.6.6,0,0,1-.81.78s-6.83-1.27-7.19-3.16C40.42,119.86,43.82,116.54,45.47,116.84Z"/><path d="M24.46,137.33c1.94.35,3.24,7,3.24,7a.6.6,0,0,1-.8.78s-6.84-1.27-7.19-3.17C19.41,140.35,22.8,137,24.46,137.33Z"/></g><g id="headphones"><ellipse id="headphones_right" class="cls-14" cx="103.15" cy="107.19" rx="15.45" ry="15.07"/><path id="headphone_main" class="cls-15" d="M106.44,106.22a3.76,3.76,0,0,0,5.37,2.76c8.56-4,15.31-10.75,18.34-19.34,6.3-17.84-5.84-37-27.12-42.74s-43.65,4-49.95,21.89a29,29,0,0,0,.72,21.14,4.44,4.44,0,0,0,6.39,2.13h0a5.36,5.36,0,0,0,2.57-5.63,23.75,23.75,0,0,1,1-12.28c4.71-13.33,19.13-19,35-14.73s23.59,16.45,18.89,29.78a26,26,0,0,1-9.45,12.51,4.52,4.52,0,0,0-1.82,4.51Z"/><ellipse id="headphones_left" class="cls-14" cx="60.19" cy="92.12" rx="15.45" ry="15.07"/><ellipse id="headphones_left_inside" class="cls-15" cx="60.19" cy="92.12" rx="6.8" ry="6.63"/></g><path id="upperarm_right" class="cls-12" d="M155.15,180.61h0a17.48,17.48,0,0,1-18.9-15.83L131.53,104a17.33,17.33,0,0,1,16.24-18.43h0a17.48,17.48,0,0,1,18.89,15.84l4.73,60.77A17.33,17.33,0,0,1,155.15,180.61Z"/><g id="head"><path id="head_main" class="cls-3" d="M101.62,32.56C121.8,21.81,132.44,37,133.71,39a.36.36,0,0,1,0,.41c-5.92,8.21-9.86,10-11.23,10.38a.38.38,0,0,0-.21.58l5.17,7.59a.38.38,0,0,1-.37.59l-4-.44a.38.38,0,0,0-.27.68L125,60.31a.38.38,0,0,1-.16.69l-1.25.22a12,12,0,0,0-6.72,3.67,146.8,146.8,0,0,0-16.61,21.46,12.85,12.85,0,0,1-5.77,5c-3.93,1.68-6.88,1.12-9,0-2.47-1.39-4.39-3.93-4.27-6.72.7-16-14.52-27.38-14.54-27.38-26.14,4.65-5.91-36.89-1.06-37.76h0c22.9-5.2,33.93,10.59,35.44,13A.39.39,0,0,0,101.62,32.56Z"/><g id="hat"><path id="hat_main" class="cls-12" d="M120.81,37.65c.21-44.74-72.13-49-58.09-16C91.57,30.3,120.81,37.65,120.81,37.65Z"/><g id="cat_logo"><path class="cls-16" d="M91.66,17.5a4.79,4.79,0,0,1-6.25,1.8A6.52,6.52,0,0,1,83,16.78a8.88,8.88,0,0,1-1.16-3.17,5.49,5.49,0,0,1,7.1-6,5.22,5.22,0,0,1,1.57.82,4.71,4.71,0,0,1,1.12,1.29.1.1,0,0,1,0,.13h-.1a5.93,5.93,0,0,0-5.46-.35A5.55,5.55,0,0,0,84,11.08a6.22,6.22,0,0,0-1.13,2.53,3.72,3.72,0,0,0,.67,2.84A4.48,4.48,0,0,0,86,17.92a7,7,0,0,0,5.54-.55.11.11,0,0,1,.13,0A.07.07,0,0,1,91.66,17.5Z"/></g><path id="hat_flap" class="cls-11" d="M97.13,31.37C65.62-11.56,29.6,2.82,48.71,29A8.13,8.13,0,0,0,57.05,32C77.53,27.48,97.13,31.37,97.13,31.37Z"/></g><g id="whiskers_left"><path d="M52.87,52.73c-1.42.8-2.87,1.55-4.27,2.38s-2.8,1.67-4.14,2.6a89.08,89.08,0,0,0-7.85,5.83,86.67,86.67,0,0,0-7.13,6.69,57.73,57.73,0,0,0-6.16,7.61,57,57,0,0,1,6-7.73,85.87,85.87,0,0,1,7-6.86,90.43,90.43,0,0,1,7.78-6c1.33-1,2.74-1.8,4.12-2.7s2.83-1.65,4.25-2.47a.35.35,0,0,1,.5.13.37.37,0,0,1-.13.51h0Z"/><path d="M50.45,50.12,46,51.53c-1.45.55-2.93,1-4.36,1.63S38.78,54.31,37.39,55l-2.11,1-2.06,1.08A66,66,0,0,0,25.32,62a38.14,38.14,0,0,0-6.84,6.29,38,38,0,0,1,6.73-6.44A65.35,65.35,0,0,1,33,56.74l2.05-1.12,2.1-1c1.38-.72,2.83-1.3,4.26-1.94s2.9-1.14,4.35-1.72l4.43-1.51a.36.36,0,0,1,.47.23.37.37,0,0,1-.23.47h0Z"/><path d="M50,48.35c-3.46-.08-6.93-.11-10.39.15a102.38,102.38,0,0,0-10.33,1.19,100.68,100.68,0,0,0-10.17,2.22,77.89,77.89,0,0,0-9.87,3.33,79.1,79.1,0,0,1,9.82-3.51A104.7,104.7,0,0,1,39.58,48,101.16,101.16,0,0,1,50,47.61a.37.37,0,0,1,0,.74h0Z"/></g><g id="whiskers_right"><path d="M74.86,49.32c1.62.29,3.24.53,4.85.86s3.21.66,4.79,1.11a90.14,90.14,0,0,1,9.37,3,83.54,83.54,0,0,1,9,4,57.57,57.57,0,0,1,8.33,5.17,58.12,58.12,0,0,0-8.41-5,82.76,82.76,0,0,0-9-3.82,89.32,89.32,0,0,0-9.38-2.77c-1.57-.41-3.18-.68-4.78-1s-3.21-.5-4.82-.76h0a.38.38,0,0,1-.31-.43.37.37,0,0,1,.42-.31Z"/><path d="M76.09,46l4.68-.11c1.56,0,3.12,0,4.68.12s3.11.15,4.66.35l2.33.25,2.31.34a67.56,67.56,0,0,1,9.11,2.1,37.73,37.73,0,0,1,8.54,3.72,37.66,37.66,0,0,0-8.59-3.54,66.13,66.13,0,0,0-9.11-1.91l-2.31-.3-2.32-.2c-1.54-.16-3.1-.18-4.64-.26s-3.11,0-4.65,0l-4.65.2h0a.37.37,0,1,1,0-.74Z"/><path d="M75.65,44.27c3.27-1.22,6.56-2.39,9.93-3.28a99.21,99.21,0,0,1,10.19-2.28,100.47,100.47,0,0,1,10.37-1.25,80.52,80.52,0,0,1,10.42-.1,78.66,78.66,0,0,0-10.41.29,102.19,102.19,0,0,0-10.31,1.42,99.89,99.89,0,0,0-10.11,2.45c-3.33.95-6.58,2.17-9.8,3.44h0a.37.37,0,0,1-.48-.21.36.36,0,0,1,.21-.48Z"/></g><path id="glasses" class="cls-17" d="M70.84,31.21c-5.31-1.91-10.47.85-10.47.85-3-2.07-8.87-.25-12,1A3.77,3.77,0,0,0,46,36.16c-1.87,19.25,17.64,10.72,14.6-2.92a12.22,12.22,0,0,1,9.35-1S65.87,48.83,81.3,49.67l5.22-.07A12.76,12.76,0,0,0,99.26,37v-.8a7.22,7.22,0,0,0-7.39-7.11l-16.06.19A6.76,6.76,0,0,0,70.84,31.21Z"/><path id="nose" class="cls-13" d="M65,40.42a46.47,46.47,0,0,0-9.74,1.73,6.49,6.49,0,0,0,4.5,4.1A13.84,13.84,0,0,0,65,40.42Z"/><path id="ear" class="cls-3" d="M101.12,32.44a.39.39,0,0,0,.5.12C121.8,21.81,132.44,37,133.71,39a.36.36,0,0,1,0,.41c-5.92,8.21-9.86,10-11.23,10.38a.38.38,0,0,0-.21.58Z"/><g id="inside_ear"><path d="M114.45,39.58A33.82,33.82,0,0,1,119.79,38a15.43,15.43,0,0,1,2.81-.35,6.1,6.1,0,0,1,1.46.13,2.41,2.41,0,0,1,.76.3,1.05,1.05,0,0,1,.55.88v.16l-.16.11a11.33,11.33,0,0,1-2.31,1.28,10.88,10.88,0,0,1-2.52.73v-.51a2.86,2.86,0,0,1,1,.35.89.89,0,0,1,.23.27.59.59,0,0,1,0,.39,1,1,0,0,1-.39.47h0c-.8.29-1.59.6-2.4.86.74-.42,1.5-.79,2.25-1.19l0,0a.64.64,0,0,0,.21-.3c0-.07,0-.1-.11-.17a2.58,2.58,0,0,0-.85-.21l-1.4-.15,1.39-.36a14.21,14.21,0,0,0,2.34-.84,13.11,13.11,0,0,0,2.15-1.25l-.15.27s-.08-.14-.23-.21a1.66,1.66,0,0,0-.52-.21,6,6,0,0,0-1.29-.13,19.31,19.31,0,0,0-2.71.23c-.91.12-1.82.27-2.72.46S115.36,39.42,114.45,39.58Z"/></g><g id="whisker_dots"><ellipse id="whisker_dot1" cx="67.3" cy="47.2" rx="0.46" ry="0.45" transform="translate(-7.23 12.52) rotate(-10.09)"/><ellipse id="whisker_dot2" cx="74.13" cy="50.27" rx="0.46" ry="0.45" transform="translate(-7.66 13.76) rotate(-10.09)"/><ellipse id="whisker_dot3" cx="67.43" cy="51.46" rx="0.46" ry="0.45" transform="translate(-7.97 12.61) rotate(-10.09)"/></g><g id="whisker_dots-2" data-name="whisker_dots"><ellipse id="whisker_dot1-2" data-name="whisker_dot1" cx="53.92" cy="49.58" rx="0.46" ry="0.45" transform="translate(-7.85 10.21) rotate(-10.09)"/><ellipse id="whisker_dot2-2" data-name="whisker_dot2" cx="58.2" cy="52.49" rx="0.46" ry="0.45" transform="translate(-8.3 11.01) rotate(-10.09)"/></g><path id="mouth" class="cls-17" d="M81.11,80.71s3,11.93,12.16-1.87c3.3-5,5.13-11.58,2.34-16.8C92.93,57,86,53.45,75.3,57.25a10.91,10.91,0,0,1-7.37.1c-3.1-1.14-6.6-4-8.17-11.1,0,0,1.52,7.52,6.37,11.11C76.74,64,81.11,80.71,81.11,80.71Z"/><path id="tooth_right" class="cls-18" d="M58.26,56.7c2.72,2.56,4.58,4,5.5,4.76a.35.35,0,0,0,.56-.32,6.64,6.64,0,0,1,.37-3.62C61.87,58.12,58.26,56.7,58.26,56.7Z"/><path id="tooth_left" class="cls-18" d="M75.58,57.51c2.72,2.56,3.61,3.4,4.53,4.1a.35.35,0,0,0,.56-.32,17.78,17.78,0,0,1,.17-4.71A13.41,13.41,0,0,0,75.58,57.51Z"/><path id="tongue" class="cls-16" d="M96.41,68.5c-4.57-1-7.24,1.9-8.83,7.09a8.17,8.17,0,0,1-5.85,5.93C85.56,92.48,98.29,75.52,96.41,68.5Z"/><path id="nose_line" class="cls-19" d="M60.24,38.37a8.92,8.92,0,0,1,6.8-.75"/></g><g id="microphone"><path id="microphone_head" class="cls-17" d="M79.93,94.75h0c-3-2.94-4.77-6-1.75-9l1.75-1.71a7.87,7.87,0,0,1,10.93,0h0a7.42,7.42,0,0,1,0,10.66l-1.75,1.7C86.09,99.4,83,97.69,79.93,94.75Z"/><path id="microphone_body" class="cls-17" d="M51.52,122.46h0c-1.56-1.53-2.49-3.12-1-4.71L75.86,91.09c2.13-2.28,3.15.2,5.38,2.38h0c2.23,2.18,4.78,3.17,2.45,5.25L56.34,123.44C54.72,124.89,53.08,124,51.52,122.46Z"/><path id="microphone_head_line" class="cls-20" d="M89.46,96.11c1.31-1.28-.2-4.57-3.22-7.52h0c-3-2.94-6.39-4.42-7.7-3.14l.9-.88c1.31-1.28,4.68.2,7.7,3.14h0c3,3,4.53,6.24,3.22,7.52Z"/><path id="microphone_body_line" class="cls-20" d="M83.65,98.8c1-1-.31-3.14-2.48-5.26h0c-2.17-2.12-4.33-3.45-5.39-2.42l.73-.71c1.06-1,3.21.3,5.39,2.42h0c2.17,2.12,3.53,4.22,2.47,5.26Z"/><path id="microphone_body_line2" class="cls-21" d="M79.89,102c.94-.92,0-3.29-2-5.29h0c-2.06-2-4.49-2.87-5.43-2"/></g><g id="hand_right"><path class="cls-3" d="M69.48,123c8.84,6.59,23.17,6.59,32,0h0c8.84-6.59,8.84-17.28,0-23.88l-7-5.23a8.63,8.63,0,0,0-5.94-1.56l-.5.06a8.27,8.27,0,0,0-5.78,3.46,4.41,4.41,0,0,0-.46,4.16l1,.78c-.27-.1-.54-.19-.83-.27a5.51,5.51,0,0,0,.37.61l-1-.77a10.07,10.07,0,0,0-5.59.35,7.76,7.76,0,0,0-4,3,4.43,4.43,0,0,0-.48,4.18l1,.77c-.27-.1-.55-.19-.83-.27a5.63,5.63,0,0,0,.37.62l-1-.78a10,10,0,0,0-4.3,0c-3.56.77-6.14,3.21-6.07,6v.07a4.71,4.71,0,0,0,2.05,3.47Z"/><path d="M73.15,104.41c-1.94-.26-3.25-5.36-3.25-5.36-.23-.38.29-.77.8-.6,0,0,6.84,1,7.19,2.42C78.2,102.1,74.8,104.64,73.15,104.41Z"/><path d="M62.64,112.25c-1.94-.26-3.25-5.36-3.25-5.36-.23-.38.3-.77.81-.6,0,0,6.83,1,7.19,2.42C67.69,109.94,64.29,112.48,62.64,112.25Z"/><path d="M83.65,96.57c-1.94-.26-3.24-5.36-3.24-5.36-.23-.38.29-.77.8-.6,0,0,6.84,1,7.19,2.42C88.7,94.26,85.31,96.8,83.65,96.57Z"/></g><path id="lowerarm_right" class="cls-13" d="M166.82,174.74h0c-6.34,7.2-17.84,7.7-25.68,1.13L91,133.84c-7.84-6.57,15.11-32.63,23-26.06l50.16,42C171.94,156.38,173.16,167.54,166.82,174.74Z"/></g></g></svg>